M48
; DRILL file KiCad 10.0.2 date 2026-05-18T22:34:08
; FORMAT={-:-/ absolute / metric / decimal}
; #@! TF.CreationDate,2026-05-18T22:34:08-07:00
; #@! TF.GenerationSoftware,Kicad,Pcbnew,10.0.2
; #@! TF.FileFunction,Plated,1,4,PTH
FMAT,2
METRIC
; #@! TA.AperFunction,Plated,PTH,ViaDrill
T1C0.300
; #@! TA.AperFunction,Plated,PTH,ComponentDrill
T2C0.838
; #@! TA.AperFunction,Plated,PTH,ComponentDrill
T3C1.000
; #@! TA.AperFunction,Plated,PTH,ComponentDrill
T4C1.500
%
G90
G05
T1
X106.5Y-99.65
X106.85Y-109.75
X107.275Y-109.375
X107.5Y-104.15
X108.4Y-104.15
X109.3Y-104.15
X111.3Y-105.35
X112.1Y-127.0
X112.15Y-105.35
X113.25Y-105.35
X113.6Y-125.7
X113.6Y-127.55
X114.6Y-124.4
X114.826Y-99.95
X115.3Y-127.2
X115.6Y-125.15
X116.4Y-102.05
X116.4Y-126.2
X116.5Y-97.95
X117.15Y-127.4
X117.9Y-118.15
X122.25Y-126.65
X122.65Y-120.7
X124.45Y-98.55
X124.5Y-117.7
X124.65Y-104.1
X124.83Y-126.47
X125.375Y-132.045
X126.605Y-124.12
X127.3Y-116.55
X129.575Y-120.275
X129.6Y-126.6
X129.7Y-121.8
X129.955Y-130.595
X130.1Y-122.5
X130.25Y-132.95
X130.55Y-100.85
X130.95Y-99.8
X130.953Y-104.197
X131.55Y-135.85
X131.65Y-100.4
X132.075Y-112.825
X133.0Y-115.55
X134.0Y-127.45
X134.35Y-115.65
X134.65Y-105.3
X135.25Y-114.95
X136.13Y-133.22
X137.53Y-137.52
X138.11Y-109.9
X140.1Y-126.85
X140.31Y-102.8
X141.0Y-126.95
X141.5Y-134.3
X142.0Y-124.9
X142.05Y-112.25
X142.83Y-117.97
X142.95Y-109.5
X143.2Y-127.05
X143.4Y-123.75
X144.906Y-115.306
X144.95Y-137.95
X145.5Y-139.05
X145.85Y-130.6
X146.0Y-132.85
X146.0Y-133.75
X146.06Y-106.65
X146.21Y-111.75
X147.15Y-113.95
X147.4Y-123.9
X147.86Y-108.15
X148.05Y-136.45
X148.3Y-139.451
X148.55Y-106.55
X148.91Y-112.85
X148.91Y-118.24
X149.11Y-99.0
X149.5Y-139.45
X150.95Y-136.45
X151.045Y-109.8
X151.36Y-115.75
X152.4Y-116.5
X153.8Y-136.9
X153.85Y-107.55
T2
X123.51Y-109.76
X126.05Y-112.3
X128.59Y-109.76
T3
X109.4Y-118.518
X109.4Y-123.518
X152.85Y-147.805
X152.85Y-157.805
X153.75Y-114.3
T4
X119.25Y-97.6
X119.8Y-137.5
X136.95Y-101.0
T3
G00X110.65Y-133.85
M15
G01X110.65Y-131.85
M16
G05
G00X114.65Y-137.55
M15
G01X112.65Y-137.55
M16
G05
G00X116.65Y-134.1
M15
G01X116.65Y-131.6
M16
G05
M30
