%TF.GenerationSoftware,KiCad,Pcbnew,10.0.2*%
%TF.CreationDate,2026-05-18T22:34:06-07:00*%
%TF.ProjectId,rick_roller,7269636b-5f72-46f6-9c6c-65722e6b6963,rev?*%
%TF.SameCoordinates,Original*%
%TF.FileFunction,Copper,L4,Bot*%
%TF.FilePolarity,Positive*%
%FSLAX46Y46*%
G04 Gerber Fmt 4.6, Leading zero omitted, Abs format (unit mm)*
G04 Created by KiCad (PCBNEW 10.0.2) date 2026-05-18 22:34:06*
%MOMM*%
%LPD*%
G01*
G04 APERTURE LIST*
G04 Aperture macros list*
%AMRoundRect*
0 Rectangle with rounded corners*
0 $1 Rounding radius*
0 $2 $3 $4 $5 $6 $7 $8 $9 X,Y pos of 4 corners*
0 Add a 4 corners polygon primitive as box body*
4,1,4,$2,$3,$4,$5,$6,$7,$8,$9,$2,$3,0*
0 Add four circle primitives for the rounded corners*
1,1,$1+$1,$2,$3*
1,1,$1+$1,$4,$5*
1,1,$1+$1,$6,$7*
1,1,$1+$1,$8,$9*
0 Add four rect primitives between the rounded corners*
20,1,$1+$1,$2,$3,$4,$5,0*
20,1,$1+$1,$4,$5,$6,$7,0*
20,1,$1+$1,$6,$7,$8,$9,0*
20,1,$1+$1,$8,$9,$2,$3,0*%
G04 Aperture macros list end*
%TA.AperFunction,ComponentPad*%
%ADD10C,3.000000*%
%TD*%
%TA.AperFunction,ComponentPad*%
%ADD11RoundRect,0.250000X0.750000X-0.750000X0.750000X0.750000X-0.750000X0.750000X-0.750000X-0.750000X0*%
%TD*%
%TA.AperFunction,ComponentPad*%
%ADD12C,2.000000*%
%TD*%
%TA.AperFunction,ComponentPad*%
%ADD13O,2.500000X5.000000*%
%TD*%
%TA.AperFunction,ComponentPad*%
%ADD14O,2.250000X4.500000*%
%TD*%
%TA.AperFunction,ComponentPad*%
%ADD15O,4.500000X2.250000*%
%TD*%
%TA.AperFunction,ComponentPad*%
%ADD16R,1.346200X1.346200*%
%TD*%
%TA.AperFunction,ComponentPad*%
%ADD17C,1.346200*%
%TD*%
%TA.AperFunction,ViaPad*%
%ADD18C,0.600000*%
%TD*%
%TA.AperFunction,Conductor*%
%ADD19C,0.200000*%
%TD*%
%TA.AperFunction,Conductor*%
%ADD20C,0.300000*%
%TD*%
G04 APERTURE END LIST*
D10*
%TO.P,TP2,1,1_1*%
%TO.N,+5V*%
X119250000Y-97600000D03*
%TD*%
D11*
%TO.P,C12,1*%
%TO.N,+12V*%
X109400000Y-123517677D03*
D12*
%TO.P,C12,2*%
%TO.N,GND*%
X109400000Y-118517677D03*
%TD*%
%TO.P,LS1,1,1_1*%
%TO.N,/speaker-*%
X152850000Y-147805000D03*
%TO.P,LS1,2,2_2*%
%TO.N,/speaker+*%
X152850000Y-157805000D03*
%TD*%
%TO.P,TP4,1,1_1*%
%TO.N,/switch*%
X153750000Y-114300000D03*
%TD*%
D10*
%TO.P,TP1,1,1_1*%
%TO.N,+12V*%
X119800000Y-137500000D03*
%TD*%
D13*
%TO.P,J2,1*%
%TO.N,+12V*%
X116650000Y-132850000D03*
D14*
%TO.P,J2,2*%
%TO.N,GND*%
X110650000Y-132850000D03*
D15*
%TO.P,J2,3*%
X113650000Y-137550000D03*
%TD*%
D10*
%TO.P,TP3,1,1_1*%
%TO.N,+3.3V*%
X136950000Y-101000000D03*
%TD*%
D16*
%TO.P,R16,1,1_1*%
%TO.N,+3.3V*%
X128590000Y-109760000D03*
D17*
%TO.P,R16,2,2_2*%
%TO.N,/volume*%
X126050000Y-112300000D03*
%TO.P,R16,3,3_3*%
%TO.N,GND*%
X123510000Y-109760000D03*
%TD*%
D18*
%TO.N,GND*%
X127300000Y-116550000D03*
X124500000Y-117700000D03*
X122650000Y-120700000D03*
X129575000Y-120275000D03*
%TO.N,+3.3V*%
X142050000Y-112250000D03*
X129600000Y-126600000D03*
X131550000Y-135850000D03*
X130550000Y-100850000D03*
X153800000Y-136900000D03*
X142000000Y-124900000D03*
X151360300Y-115750000D03*
X148550000Y-106550000D03*
X131650000Y-100400000D03*
X130950000Y-99800000D03*
X133000000Y-115550000D03*
%TO.N,/RESET*%
X151045150Y-109799850D03*
X129700000Y-121800000D03*
%TO.N,GND*%
X116400000Y-102050000D03*
X124650000Y-104100000D03*
X153850000Y-107550000D03*
X144950000Y-137950000D03*
X144906250Y-115306250D03*
X150950000Y-136450000D03*
X130953125Y-104196875D03*
X106500000Y-99650000D03*
X143200000Y-127050000D03*
X148299999Y-139451400D03*
X141000000Y-126950000D03*
X141500000Y-134300000D03*
X106850000Y-109750000D03*
X126605150Y-124119850D03*
X148050000Y-136450000D03*
X107275000Y-109375000D03*
X117900000Y-118150000D03*
X147400000Y-123900000D03*
X152400000Y-116500000D03*
X116500000Y-97950000D03*
X140100000Y-126850000D03*
X134350000Y-115650000D03*
X122250000Y-126650000D03*
X146060300Y-106650000D03*
X130100000Y-122500000D03*
X130250000Y-132950000D03*
X132075000Y-112825000D03*
X134650000Y-105300000D03*
X149110300Y-99000000D03*
X124450000Y-98549999D03*
X114826300Y-99950000D03*
X142830150Y-117969850D03*
X125375150Y-132044950D03*
%TO.N,/volume*%
X134000000Y-127450000D03*
%TO.N,/SAI_SCK*%
X145850000Y-130600000D03*
X149500000Y-139450000D03*
%TO.N,/switch*%
X148910300Y-118239700D03*
X143400000Y-123750000D03*
X148910300Y-112850000D03*
X146210300Y-111750000D03*
%TO.N,/SAI_FS_WS_LRCLK*%
X145500000Y-139050000D03*
X135250000Y-114950000D03*
%TO.N,Net-(R7-Pad2)*%
X129955150Y-130594850D03*
X137530150Y-137519850D03*
%TO.N,+5V*%
X146000000Y-133750000D03*
X146000000Y-132850000D03*
X113250000Y-105350000D03*
X112150000Y-105350000D03*
X111300000Y-105350000D03*
%TO.N,+12V*%
X117150000Y-127400000D03*
X116400000Y-126200000D03*
X115600000Y-125150000D03*
X107500000Y-104150000D03*
X115300000Y-127200000D03*
X108400000Y-104150000D03*
X113600000Y-127550000D03*
X114600000Y-124400000D03*
X113600000Y-125700000D03*
X112100000Y-127000000D03*
X109300000Y-104150000D03*
%TO.N,/SWDIO*%
X147150000Y-113950000D03*
X142950000Y-109500000D03*
%TO.N,/SWO*%
X140310300Y-102800000D03*
X147860300Y-108150000D03*
X138110300Y-109900000D03*
%TO.N,/IO2*%
X124830150Y-126469850D03*
X136130150Y-133219850D03*
%TD*%
%TO.N,/SAI_FS_WS_LRCLK*%
D19*
X134700000Y-117000000D02*
X135250000Y-116450000D01*
X130650000Y-117000000D02*
X134700000Y-117000000D01*
X134150000Y-125600000D02*
X131950000Y-125600000D01*
X136200000Y-127650000D02*
X134150000Y-125600000D01*
X128500000Y-122150000D02*
X128500000Y-119150000D01*
X135250000Y-116450000D02*
X135250000Y-114950000D01*
X136200000Y-130650000D02*
X136200000Y-127650000D01*
X131950000Y-125600000D02*
X128500000Y-122150000D01*
X144600000Y-139050000D02*
X136200000Y-130650000D01*
X145500000Y-139050000D02*
X144600000Y-139050000D01*
X128500000Y-119150000D02*
X130650000Y-117000000D01*
%TO.N,/RESET*%
D20*
X151045150Y-112654850D02*
X151045150Y-109799850D01*
X143430150Y-120269850D02*
X151045150Y-112654850D01*
X131230150Y-120269850D02*
X143430150Y-120269850D01*
X129700000Y-121800000D02*
X131230150Y-120269850D01*
%TO.N,/volume*%
X132350000Y-127450000D02*
X126050000Y-121150000D01*
X134000000Y-127450000D02*
X132350000Y-127450000D01*
X126050000Y-121150000D02*
X126050000Y-112300000D01*
%TO.N,/SAI_SCK*%
D19*
X147200000Y-131950000D02*
X147200000Y-137150000D01*
X147200000Y-137150000D02*
X149500000Y-139450000D01*
X145850000Y-130600000D02*
X147200000Y-131950000D01*
%TO.N,/switch*%
D20*
X146500000Y-111750000D02*
X150150000Y-108100000D01*
X153100000Y-109800000D02*
X153750000Y-110450000D01*
X148910300Y-118239700D02*
X143400000Y-123750000D01*
X152800000Y-108100000D02*
X153100000Y-108400000D01*
X147310300Y-112850000D02*
X148910300Y-112850000D01*
X153100000Y-108400000D02*
X153100000Y-109800000D01*
X153750000Y-110450000D02*
X153750000Y-114300000D01*
X146210300Y-111750000D02*
X147310300Y-112850000D01*
X150150000Y-108100000D02*
X152800000Y-108100000D01*
X146210300Y-111750000D02*
X146500000Y-111750000D01*
%TO.N,Net-(R7-Pad2)*%
X136880150Y-137519850D02*
X137480150Y-137519850D01*
X129955150Y-130594850D02*
X136880150Y-137519850D01*
%TO.N,/SWDIO*%
X142950000Y-110300000D02*
X142950000Y-109500000D01*
X146600000Y-113950000D02*
X142950000Y-110300000D01*
X147150000Y-113950000D02*
X146600000Y-113950000D01*
%TO.N,/SWO*%
X147860300Y-108150000D02*
X142410300Y-108150000D01*
X140310300Y-102800000D02*
X140310300Y-106050000D01*
X142410300Y-108150000D02*
X140660300Y-109900000D01*
X140660300Y-109900000D02*
X138110300Y-109900000D01*
X140310300Y-106050000D02*
X142410300Y-108150000D01*
%TO.N,/IO2*%
X134480150Y-133169850D02*
X136130150Y-133169850D01*
X127780150Y-126469850D02*
X134480150Y-133169850D01*
X124830150Y-126469850D02*
X127780150Y-126469850D01*
%TD*%
M02*
