%TF.GenerationSoftware,KiCad,Pcbnew,10.0.2*%
%TF.CreationDate,2026-05-18T22:34:06-07:00*%
%TF.ProjectId,rick_roller,7269636b-5f72-46f6-9c6c-65722e6b6963,rev?*%
%TF.SameCoordinates,Original*%
%TF.FileFunction,Legend,Top*%
%TF.FilePolarity,Positive*%
%FSLAX46Y46*%
G04 Gerber Fmt 4.6, Leading zero omitted, Abs format (unit mm)*
G04 Created by KiCad (PCBNEW 10.0.2) date 2026-05-18 22:34:06*
%MOMM*%
%LPD*%
G01*
G04 APERTURE LIST*
%ADD10C,0.100000*%
%ADD11C,0.150000*%
%ADD12C,0.254000*%
%ADD13C,0.120000*%
%ADD14C,0.127000*%
%ADD15C,0.200000*%
%ADD16C,0.152400*%
%ADD17C,0.400000*%
%ADD18C,0.000000*%
G04 APERTURE END LIST*
D10*
X131187217Y-96288664D02*
X131330074Y-96336283D01*
X131330074Y-96336283D02*
X131377693Y-96383902D01*
X131377693Y-96383902D02*
X131425312Y-96479140D01*
X131425312Y-96479140D02*
X131425312Y-96621997D01*
X131425312Y-96621997D02*
X131377693Y-96717235D01*
X131377693Y-96717235D02*
X131330074Y-96764855D01*
X131330074Y-96764855D02*
X131234836Y-96812474D01*
X131234836Y-96812474D02*
X130853884Y-96812474D01*
X130853884Y-96812474D02*
X130853884Y-95812474D01*
X130853884Y-95812474D02*
X131187217Y-95812474D01*
X131187217Y-95812474D02*
X131282455Y-95860093D01*
X131282455Y-95860093D02*
X131330074Y-95907712D01*
X131330074Y-95907712D02*
X131377693Y-96002950D01*
X131377693Y-96002950D02*
X131377693Y-96098188D01*
X131377693Y-96098188D02*
X131330074Y-96193426D01*
X131330074Y-96193426D02*
X131282455Y-96241045D01*
X131282455Y-96241045D02*
X131187217Y-96288664D01*
X131187217Y-96288664D02*
X130853884Y-96288664D01*
X131853884Y-96812474D02*
X131853884Y-96145807D01*
X131853884Y-95812474D02*
X131806265Y-95860093D01*
X131806265Y-95860093D02*
X131853884Y-95907712D01*
X131853884Y-95907712D02*
X131901503Y-95860093D01*
X131901503Y-95860093D02*
X131853884Y-95812474D01*
X131853884Y-95812474D02*
X131853884Y-95907712D01*
X132472931Y-96812474D02*
X132377693Y-96764855D01*
X132377693Y-96764855D02*
X132330074Y-96717235D01*
X132330074Y-96717235D02*
X132282455Y-96621997D01*
X132282455Y-96621997D02*
X132282455Y-96336283D01*
X132282455Y-96336283D02*
X132330074Y-96241045D01*
X132330074Y-96241045D02*
X132377693Y-96193426D01*
X132377693Y-96193426D02*
X132472931Y-96145807D01*
X132472931Y-96145807D02*
X132615788Y-96145807D01*
X132615788Y-96145807D02*
X132711026Y-96193426D01*
X132711026Y-96193426D02*
X132758645Y-96241045D01*
X132758645Y-96241045D02*
X132806264Y-96336283D01*
X132806264Y-96336283D02*
X132806264Y-96621997D01*
X132806264Y-96621997D02*
X132758645Y-96717235D01*
X132758645Y-96717235D02*
X132711026Y-96764855D01*
X132711026Y-96764855D02*
X132615788Y-96812474D01*
X132615788Y-96812474D02*
X132472931Y-96812474D01*
X133234836Y-96288664D02*
X133568169Y-96288664D01*
X133711026Y-96812474D02*
X133234836Y-96812474D01*
X133234836Y-96812474D02*
X133234836Y-95812474D01*
X133234836Y-95812474D02*
X133711026Y-95812474D01*
X135234836Y-96288664D02*
X135377693Y-96336283D01*
X135377693Y-96336283D02*
X135425312Y-96383902D01*
X135425312Y-96383902D02*
X135472931Y-96479140D01*
X135472931Y-96479140D02*
X135472931Y-96621997D01*
X135472931Y-96621997D02*
X135425312Y-96717235D01*
X135425312Y-96717235D02*
X135377693Y-96764855D01*
X135377693Y-96764855D02*
X135282455Y-96812474D01*
X135282455Y-96812474D02*
X134901503Y-96812474D01*
X134901503Y-96812474D02*
X134901503Y-95812474D01*
X134901503Y-95812474D02*
X135234836Y-95812474D01*
X135234836Y-95812474D02*
X135330074Y-95860093D01*
X135330074Y-95860093D02*
X135377693Y-95907712D01*
X135377693Y-95907712D02*
X135425312Y-96002950D01*
X135425312Y-96002950D02*
X135425312Y-96098188D01*
X135425312Y-96098188D02*
X135377693Y-96193426D01*
X135377693Y-96193426D02*
X135330074Y-96241045D01*
X135330074Y-96241045D02*
X135234836Y-96288664D01*
X135234836Y-96288664D02*
X134901503Y-96288664D01*
X136044360Y-96812474D02*
X135949122Y-96764855D01*
X135949122Y-96764855D02*
X135901503Y-96717235D01*
X135901503Y-96717235D02*
X135853884Y-96621997D01*
X135853884Y-96621997D02*
X135853884Y-96336283D01*
X135853884Y-96336283D02*
X135901503Y-96241045D01*
X135901503Y-96241045D02*
X135949122Y-96193426D01*
X135949122Y-96193426D02*
X136044360Y-96145807D01*
X136044360Y-96145807D02*
X136187217Y-96145807D01*
X136187217Y-96145807D02*
X136282455Y-96193426D01*
X136282455Y-96193426D02*
X136330074Y-96241045D01*
X136330074Y-96241045D02*
X136377693Y-96336283D01*
X136377693Y-96336283D02*
X136377693Y-96621997D01*
X136377693Y-96621997D02*
X136330074Y-96717235D01*
X136330074Y-96717235D02*
X136282455Y-96764855D01*
X136282455Y-96764855D02*
X136187217Y-96812474D01*
X136187217Y-96812474D02*
X136044360Y-96812474D01*
X136949122Y-96812474D02*
X136853884Y-96764855D01*
X136853884Y-96764855D02*
X136806265Y-96717235D01*
X136806265Y-96717235D02*
X136758646Y-96621997D01*
X136758646Y-96621997D02*
X136758646Y-96336283D01*
X136758646Y-96336283D02*
X136806265Y-96241045D01*
X136806265Y-96241045D02*
X136853884Y-96193426D01*
X136853884Y-96193426D02*
X136949122Y-96145807D01*
X136949122Y-96145807D02*
X137091979Y-96145807D01*
X137091979Y-96145807D02*
X137187217Y-96193426D01*
X137187217Y-96193426D02*
X137234836Y-96241045D01*
X137234836Y-96241045D02*
X137282455Y-96336283D01*
X137282455Y-96336283D02*
X137282455Y-96621997D01*
X137282455Y-96621997D02*
X137234836Y-96717235D01*
X137234836Y-96717235D02*
X137187217Y-96764855D01*
X137187217Y-96764855D02*
X137091979Y-96812474D01*
X137091979Y-96812474D02*
X136949122Y-96812474D01*
X137568170Y-96145807D02*
X137949122Y-96145807D01*
X137711027Y-95812474D02*
X137711027Y-96669616D01*
X137711027Y-96669616D02*
X137758646Y-96764855D01*
X137758646Y-96764855D02*
X137853884Y-96812474D01*
X137853884Y-96812474D02*
X137949122Y-96812474D01*
X138711027Y-96764855D02*
X138615789Y-96812474D01*
X138615789Y-96812474D02*
X138425313Y-96812474D01*
X138425313Y-96812474D02*
X138330075Y-96764855D01*
X138330075Y-96764855D02*
X138282456Y-96717235D01*
X138282456Y-96717235D02*
X138234837Y-96621997D01*
X138234837Y-96621997D02*
X138234837Y-96336283D01*
X138234837Y-96336283D02*
X138282456Y-96241045D01*
X138282456Y-96241045D02*
X138330075Y-96193426D01*
X138330075Y-96193426D02*
X138425313Y-96145807D01*
X138425313Y-96145807D02*
X138615789Y-96145807D01*
X138615789Y-96145807D02*
X138711027Y-96193426D01*
X139568170Y-96812474D02*
X139568170Y-96288664D01*
X139568170Y-96288664D02*
X139520551Y-96193426D01*
X139520551Y-96193426D02*
X139425313Y-96145807D01*
X139425313Y-96145807D02*
X139234837Y-96145807D01*
X139234837Y-96145807D02*
X139139599Y-96193426D01*
X139568170Y-96764855D02*
X139472932Y-96812474D01*
X139472932Y-96812474D02*
X139234837Y-96812474D01*
X139234837Y-96812474D02*
X139139599Y-96764855D01*
X139139599Y-96764855D02*
X139091980Y-96669616D01*
X139091980Y-96669616D02*
X139091980Y-96574378D01*
X139091980Y-96574378D02*
X139139599Y-96479140D01*
X139139599Y-96479140D02*
X139234837Y-96431521D01*
X139234837Y-96431521D02*
X139472932Y-96431521D01*
X139472932Y-96431521D02*
X139568170Y-96383902D01*
X140044361Y-96812474D02*
X140044361Y-96145807D01*
X140044361Y-96241045D02*
X140091980Y-96193426D01*
X140091980Y-96193426D02*
X140187218Y-96145807D01*
X140187218Y-96145807D02*
X140330075Y-96145807D01*
X140330075Y-96145807D02*
X140425313Y-96193426D01*
X140425313Y-96193426D02*
X140472932Y-96288664D01*
X140472932Y-96288664D02*
X140472932Y-96812474D01*
X140472932Y-96288664D02*
X140520551Y-96193426D01*
X140520551Y-96193426D02*
X140615789Y-96145807D01*
X140615789Y-96145807D02*
X140758646Y-96145807D01*
X140758646Y-96145807D02*
X140853885Y-96193426D01*
X140853885Y-96193426D02*
X140901504Y-96288664D01*
X140901504Y-96288664D02*
X140901504Y-96812474D01*
X141377694Y-96145807D02*
X141377694Y-97145807D01*
X141377694Y-96193426D02*
X141472932Y-96145807D01*
X141472932Y-96145807D02*
X141663408Y-96145807D01*
X141663408Y-96145807D02*
X141758646Y-96193426D01*
X141758646Y-96193426D02*
X141806265Y-96241045D01*
X141806265Y-96241045D02*
X141853884Y-96336283D01*
X141853884Y-96336283D02*
X141853884Y-96621997D01*
X141853884Y-96621997D02*
X141806265Y-96717235D01*
X141806265Y-96717235D02*
X141758646Y-96764855D01*
X141758646Y-96764855D02*
X141663408Y-96812474D01*
X141663408Y-96812474D02*
X141472932Y-96812474D01*
X141472932Y-96812474D02*
X141377694Y-96764855D01*
X143044361Y-96431521D02*
X143806266Y-96431521D01*
X145044361Y-96812474D02*
X145044361Y-95812474D01*
X145044361Y-95812474D02*
X145425313Y-95812474D01*
X145425313Y-95812474D02*
X145520551Y-95860093D01*
X145520551Y-95860093D02*
X145568170Y-95907712D01*
X145568170Y-95907712D02*
X145615789Y-96002950D01*
X145615789Y-96002950D02*
X145615789Y-96145807D01*
X145615789Y-96145807D02*
X145568170Y-96241045D01*
X145568170Y-96241045D02*
X145520551Y-96288664D01*
X145520551Y-96288664D02*
X145425313Y-96336283D01*
X145425313Y-96336283D02*
X145044361Y-96336283D01*
X146615789Y-96717235D02*
X146568170Y-96764855D01*
X146568170Y-96764855D02*
X146425313Y-96812474D01*
X146425313Y-96812474D02*
X146330075Y-96812474D01*
X146330075Y-96812474D02*
X146187218Y-96764855D01*
X146187218Y-96764855D02*
X146091980Y-96669616D01*
X146091980Y-96669616D02*
X146044361Y-96574378D01*
X146044361Y-96574378D02*
X145996742Y-96383902D01*
X145996742Y-96383902D02*
X145996742Y-96241045D01*
X145996742Y-96241045D02*
X146044361Y-96050569D01*
X146044361Y-96050569D02*
X146091980Y-95955331D01*
X146091980Y-95955331D02*
X146187218Y-95860093D01*
X146187218Y-95860093D02*
X146330075Y-95812474D01*
X146330075Y-95812474D02*
X146425313Y-95812474D01*
X146425313Y-95812474D02*
X146568170Y-95860093D01*
X146568170Y-95860093D02*
X146615789Y-95907712D01*
X147377694Y-96288664D02*
X147520551Y-96336283D01*
X147520551Y-96336283D02*
X147568170Y-96383902D01*
X147568170Y-96383902D02*
X147615789Y-96479140D01*
X147615789Y-96479140D02*
X147615789Y-96621997D01*
X147615789Y-96621997D02*
X147568170Y-96717235D01*
X147568170Y-96717235D02*
X147520551Y-96764855D01*
X147520551Y-96764855D02*
X147425313Y-96812474D01*
X147425313Y-96812474D02*
X147044361Y-96812474D01*
X147044361Y-96812474D02*
X147044361Y-95812474D01*
X147044361Y-95812474D02*
X147377694Y-95812474D01*
X147377694Y-95812474D02*
X147472932Y-95860093D01*
X147472932Y-95860093D02*
X147520551Y-95907712D01*
X147520551Y-95907712D02*
X147568170Y-96002950D01*
X147568170Y-96002950D02*
X147568170Y-96098188D01*
X147568170Y-96098188D02*
X147520551Y-96193426D01*
X147520551Y-96193426D02*
X147472932Y-96241045D01*
X147472932Y-96241045D02*
X147377694Y-96288664D01*
X147377694Y-96288664D02*
X147044361Y-96288664D01*
X148711028Y-95812474D02*
X148949123Y-96812474D01*
X148949123Y-96812474D02*
X149139599Y-96098188D01*
X149139599Y-96098188D02*
X149330075Y-96812474D01*
X149330075Y-96812474D02*
X149568171Y-95812474D01*
X150091980Y-96812474D02*
X149996742Y-96764855D01*
X149996742Y-96764855D02*
X149949123Y-96717235D01*
X149949123Y-96717235D02*
X149901504Y-96621997D01*
X149901504Y-96621997D02*
X149901504Y-96336283D01*
X149901504Y-96336283D02*
X149949123Y-96241045D01*
X149949123Y-96241045D02*
X149996742Y-96193426D01*
X149996742Y-96193426D02*
X150091980Y-96145807D01*
X150091980Y-96145807D02*
X150234837Y-96145807D01*
X150234837Y-96145807D02*
X150330075Y-96193426D01*
X150330075Y-96193426D02*
X150377694Y-96241045D01*
X150377694Y-96241045D02*
X150425313Y-96336283D01*
X150425313Y-96336283D02*
X150425313Y-96621997D01*
X150425313Y-96621997D02*
X150377694Y-96717235D01*
X150377694Y-96717235D02*
X150330075Y-96764855D01*
X150330075Y-96764855D02*
X150234837Y-96812474D01*
X150234837Y-96812474D02*
X150091980Y-96812474D01*
X150853885Y-96812474D02*
X150853885Y-96145807D01*
X150853885Y-96336283D02*
X150901504Y-96241045D01*
X150901504Y-96241045D02*
X150949123Y-96193426D01*
X150949123Y-96193426D02*
X151044361Y-96145807D01*
X151044361Y-96145807D02*
X151139599Y-96145807D01*
X151472933Y-96812474D02*
X151472933Y-95812474D01*
X151568171Y-96431521D02*
X151853885Y-96812474D01*
X151853885Y-96145807D02*
X151472933Y-96526759D01*
X152234838Y-96764855D02*
X152330076Y-96812474D01*
X152330076Y-96812474D02*
X152520552Y-96812474D01*
X152520552Y-96812474D02*
X152615790Y-96764855D01*
X152615790Y-96764855D02*
X152663409Y-96669616D01*
X152663409Y-96669616D02*
X152663409Y-96621997D01*
X152663409Y-96621997D02*
X152615790Y-96526759D01*
X152615790Y-96526759D02*
X152520552Y-96479140D01*
X152520552Y-96479140D02*
X152377695Y-96479140D01*
X152377695Y-96479140D02*
X152282457Y-96431521D01*
X152282457Y-96431521D02*
X152234838Y-96336283D01*
X152234838Y-96336283D02*
X152234838Y-96288664D01*
X152234838Y-96288664D02*
X152282457Y-96193426D01*
X152282457Y-96193426D02*
X152377695Y-96145807D01*
X152377695Y-96145807D02*
X152520552Y-96145807D01*
X152520552Y-96145807D02*
X152615790Y-96193426D01*
X153091981Y-96812474D02*
X153091981Y-95812474D01*
X153520552Y-96812474D02*
X153520552Y-96288664D01*
X153520552Y-96288664D02*
X153472933Y-96193426D01*
X153472933Y-96193426D02*
X153377695Y-96145807D01*
X153377695Y-96145807D02*
X153234838Y-96145807D01*
X153234838Y-96145807D02*
X153139600Y-96193426D01*
X153139600Y-96193426D02*
X153091981Y-96241045D01*
X154139600Y-96812474D02*
X154044362Y-96764855D01*
X154044362Y-96764855D02*
X153996743Y-96717235D01*
X153996743Y-96717235D02*
X153949124Y-96621997D01*
X153949124Y-96621997D02*
X153949124Y-96336283D01*
X153949124Y-96336283D02*
X153996743Y-96241045D01*
X153996743Y-96241045D02*
X154044362Y-96193426D01*
X154044362Y-96193426D02*
X154139600Y-96145807D01*
X154139600Y-96145807D02*
X154282457Y-96145807D01*
X154282457Y-96145807D02*
X154377695Y-96193426D01*
X154377695Y-96193426D02*
X154425314Y-96241045D01*
X154425314Y-96241045D02*
X154472933Y-96336283D01*
X154472933Y-96336283D02*
X154472933Y-96621997D01*
X154472933Y-96621997D02*
X154425314Y-96717235D01*
X154425314Y-96717235D02*
X154377695Y-96764855D01*
X154377695Y-96764855D02*
X154282457Y-96812474D01*
X154282457Y-96812474D02*
X154139600Y-96812474D01*
X154901505Y-96145807D02*
X154901505Y-97145807D01*
X154901505Y-96193426D02*
X154996743Y-96145807D01*
X154996743Y-96145807D02*
X155187219Y-96145807D01*
X155187219Y-96145807D02*
X155282457Y-96193426D01*
X155282457Y-96193426D02*
X155330076Y-96241045D01*
X155330076Y-96241045D02*
X155377695Y-96336283D01*
X155377695Y-96336283D02*
X155377695Y-96621997D01*
X155377695Y-96621997D02*
X155330076Y-96717235D01*
X155330076Y-96717235D02*
X155282457Y-96764855D01*
X155282457Y-96764855D02*
X155187219Y-96812474D01*
X155187219Y-96812474D02*
X154996743Y-96812474D01*
X154996743Y-96812474D02*
X154901505Y-96764855D01*
X130806265Y-97517656D02*
X130853884Y-97470037D01*
X130853884Y-97470037D02*
X130949122Y-97422418D01*
X130949122Y-97422418D02*
X131187217Y-97422418D01*
X131187217Y-97422418D02*
X131282455Y-97470037D01*
X131282455Y-97470037D02*
X131330074Y-97517656D01*
X131330074Y-97517656D02*
X131377693Y-97612894D01*
X131377693Y-97612894D02*
X131377693Y-97708132D01*
X131377693Y-97708132D02*
X131330074Y-97850989D01*
X131330074Y-97850989D02*
X130758646Y-98422418D01*
X130758646Y-98422418D02*
X131377693Y-98422418D01*
X131996741Y-97422418D02*
X132091979Y-97422418D01*
X132091979Y-97422418D02*
X132187217Y-97470037D01*
X132187217Y-97470037D02*
X132234836Y-97517656D01*
X132234836Y-97517656D02*
X132282455Y-97612894D01*
X132282455Y-97612894D02*
X132330074Y-97803370D01*
X132330074Y-97803370D02*
X132330074Y-98041465D01*
X132330074Y-98041465D02*
X132282455Y-98231941D01*
X132282455Y-98231941D02*
X132234836Y-98327179D01*
X132234836Y-98327179D02*
X132187217Y-98374799D01*
X132187217Y-98374799D02*
X132091979Y-98422418D01*
X132091979Y-98422418D02*
X131996741Y-98422418D01*
X131996741Y-98422418D02*
X131901503Y-98374799D01*
X131901503Y-98374799D02*
X131853884Y-98327179D01*
X131853884Y-98327179D02*
X131806265Y-98231941D01*
X131806265Y-98231941D02*
X131758646Y-98041465D01*
X131758646Y-98041465D02*
X131758646Y-97803370D01*
X131758646Y-97803370D02*
X131806265Y-97612894D01*
X131806265Y-97612894D02*
X131853884Y-97517656D01*
X131853884Y-97517656D02*
X131901503Y-97470037D01*
X131901503Y-97470037D02*
X131996741Y-97422418D01*
X132711027Y-97517656D02*
X132758646Y-97470037D01*
X132758646Y-97470037D02*
X132853884Y-97422418D01*
X132853884Y-97422418D02*
X133091979Y-97422418D01*
X133091979Y-97422418D02*
X133187217Y-97470037D01*
X133187217Y-97470037D02*
X133234836Y-97517656D01*
X133234836Y-97517656D02*
X133282455Y-97612894D01*
X133282455Y-97612894D02*
X133282455Y-97708132D01*
X133282455Y-97708132D02*
X133234836Y-97850989D01*
X133234836Y-97850989D02*
X132663408Y-98422418D01*
X132663408Y-98422418D02*
X133282455Y-98422418D01*
X134139598Y-97422418D02*
X133949122Y-97422418D01*
X133949122Y-97422418D02*
X133853884Y-97470037D01*
X133853884Y-97470037D02*
X133806265Y-97517656D01*
X133806265Y-97517656D02*
X133711027Y-97660513D01*
X133711027Y-97660513D02*
X133663408Y-97850989D01*
X133663408Y-97850989D02*
X133663408Y-98231941D01*
X133663408Y-98231941D02*
X133711027Y-98327179D01*
X133711027Y-98327179D02*
X133758646Y-98374799D01*
X133758646Y-98374799D02*
X133853884Y-98422418D01*
X133853884Y-98422418D02*
X134044360Y-98422418D01*
X134044360Y-98422418D02*
X134139598Y-98374799D01*
X134139598Y-98374799D02*
X134187217Y-98327179D01*
X134187217Y-98327179D02*
X134234836Y-98231941D01*
X134234836Y-98231941D02*
X134234836Y-97993846D01*
X134234836Y-97993846D02*
X134187217Y-97898608D01*
X134187217Y-97898608D02*
X134139598Y-97850989D01*
X134139598Y-97850989D02*
X134044360Y-97803370D01*
X134044360Y-97803370D02*
X133853884Y-97803370D01*
X133853884Y-97803370D02*
X133758646Y-97850989D01*
X133758646Y-97850989D02*
X133711027Y-97898608D01*
X133711027Y-97898608D02*
X133663408Y-97993846D01*
X135330075Y-97755751D02*
X135568170Y-98422418D01*
X135568170Y-98422418D02*
X135806265Y-97755751D01*
X136711027Y-98422418D02*
X136139599Y-98422418D01*
X136425313Y-98422418D02*
X136425313Y-97422418D01*
X136425313Y-97422418D02*
X136330075Y-97565275D01*
X136330075Y-97565275D02*
X136234837Y-97660513D01*
X136234837Y-97660513D02*
X136139599Y-97708132D01*
X137139599Y-98327179D02*
X137187218Y-98374799D01*
X137187218Y-98374799D02*
X137139599Y-98422418D01*
X137139599Y-98422418D02*
X137091980Y-98374799D01*
X137091980Y-98374799D02*
X137139599Y-98327179D01*
X137139599Y-98327179D02*
X137139599Y-98422418D01*
X137806265Y-97422418D02*
X137901503Y-97422418D01*
X137901503Y-97422418D02*
X137996741Y-97470037D01*
X137996741Y-97470037D02*
X138044360Y-97517656D01*
X138044360Y-97517656D02*
X138091979Y-97612894D01*
X138091979Y-97612894D02*
X138139598Y-97803370D01*
X138139598Y-97803370D02*
X138139598Y-98041465D01*
X138139598Y-98041465D02*
X138091979Y-98231941D01*
X138091979Y-98231941D02*
X138044360Y-98327179D01*
X138044360Y-98327179D02*
X137996741Y-98374799D01*
X137996741Y-98374799D02*
X137901503Y-98422418D01*
X137901503Y-98422418D02*
X137806265Y-98422418D01*
X137806265Y-98422418D02*
X137711027Y-98374799D01*
X137711027Y-98374799D02*
X137663408Y-98327179D01*
X137663408Y-98327179D02*
X137615789Y-98231941D01*
X137615789Y-98231941D02*
X137568170Y-98041465D01*
X137568170Y-98041465D02*
X137568170Y-97803370D01*
X137568170Y-97803370D02*
X137615789Y-97612894D01*
X137615789Y-97612894D02*
X137663408Y-97517656D01*
X137663408Y-97517656D02*
X137711027Y-97470037D01*
X137711027Y-97470037D02*
X137806265Y-97422418D01*
D11*
X116580469Y-95719819D02*
X116104279Y-95719819D01*
X116104279Y-95719819D02*
X116056660Y-96196009D01*
X116056660Y-96196009D02*
X116104279Y-96148390D01*
X116104279Y-96148390D02*
X116199517Y-96100771D01*
X116199517Y-96100771D02*
X116437612Y-96100771D01*
X116437612Y-96100771D02*
X116532850Y-96148390D01*
X116532850Y-96148390D02*
X116580469Y-96196009D01*
X116580469Y-96196009D02*
X116628088Y-96291247D01*
X116628088Y-96291247D02*
X116628088Y-96529342D01*
X116628088Y-96529342D02*
X116580469Y-96624580D01*
X116580469Y-96624580D02*
X116532850Y-96672200D01*
X116532850Y-96672200D02*
X116437612Y-96719819D01*
X116437612Y-96719819D02*
X116199517Y-96719819D01*
X116199517Y-96719819D02*
X116104279Y-96672200D01*
X116104279Y-96672200D02*
X116056660Y-96624580D01*
X116913803Y-95719819D02*
X117247136Y-96719819D01*
X117247136Y-96719819D02*
X117580469Y-95719819D01*
X122210588Y-139669819D02*
X121639160Y-139669819D01*
X121924874Y-139669819D02*
X121924874Y-138669819D01*
X121924874Y-138669819D02*
X121829636Y-138812676D01*
X121829636Y-138812676D02*
X121734398Y-138907914D01*
X121734398Y-138907914D02*
X121639160Y-138955533D01*
X122591541Y-138765057D02*
X122639160Y-138717438D01*
X122639160Y-138717438D02*
X122734398Y-138669819D01*
X122734398Y-138669819D02*
X122972493Y-138669819D01*
X122972493Y-138669819D02*
X123067731Y-138717438D01*
X123067731Y-138717438D02*
X123115350Y-138765057D01*
X123115350Y-138765057D02*
X123162969Y-138860295D01*
X123162969Y-138860295D02*
X123162969Y-138955533D01*
X123162969Y-138955533D02*
X123115350Y-139098390D01*
X123115350Y-139098390D02*
X122543922Y-139669819D01*
X122543922Y-139669819D02*
X123162969Y-139669819D01*
X123448684Y-138669819D02*
X123782017Y-139669819D01*
X123782017Y-139669819D02*
X124115350Y-138669819D01*
X135841541Y-103319819D02*
X136460588Y-103319819D01*
X136460588Y-103319819D02*
X136127255Y-103700771D01*
X136127255Y-103700771D02*
X136270112Y-103700771D01*
X136270112Y-103700771D02*
X136365350Y-103748390D01*
X136365350Y-103748390D02*
X136412969Y-103796009D01*
X136412969Y-103796009D02*
X136460588Y-103891247D01*
X136460588Y-103891247D02*
X136460588Y-104129342D01*
X136460588Y-104129342D02*
X136412969Y-104224580D01*
X136412969Y-104224580D02*
X136365350Y-104272200D01*
X136365350Y-104272200D02*
X136270112Y-104319819D01*
X136270112Y-104319819D02*
X135984398Y-104319819D01*
X135984398Y-104319819D02*
X135889160Y-104272200D01*
X135889160Y-104272200D02*
X135841541Y-104224580D01*
X136889160Y-104224580D02*
X136936779Y-104272200D01*
X136936779Y-104272200D02*
X136889160Y-104319819D01*
X136889160Y-104319819D02*
X136841541Y-104272200D01*
X136841541Y-104272200D02*
X136889160Y-104224580D01*
X136889160Y-104224580D02*
X136889160Y-104319819D01*
X137270112Y-103319819D02*
X137889159Y-103319819D01*
X137889159Y-103319819D02*
X137555826Y-103700771D01*
X137555826Y-103700771D02*
X137698683Y-103700771D01*
X137698683Y-103700771D02*
X137793921Y-103748390D01*
X137793921Y-103748390D02*
X137841540Y-103796009D01*
X137841540Y-103796009D02*
X137889159Y-103891247D01*
X137889159Y-103891247D02*
X137889159Y-104129342D01*
X137889159Y-104129342D02*
X137841540Y-104224580D01*
X137841540Y-104224580D02*
X137793921Y-104272200D01*
X137793921Y-104272200D02*
X137698683Y-104319819D01*
X137698683Y-104319819D02*
X137412969Y-104319819D01*
X137412969Y-104319819D02*
X137317731Y-104272200D01*
X137317731Y-104272200D02*
X137270112Y-104224580D01*
X138174874Y-103319819D02*
X138508207Y-104319819D01*
X138508207Y-104319819D02*
X138841540Y-103319819D01*
X153592857Y-111907200D02*
X153735714Y-111954819D01*
X153735714Y-111954819D02*
X153973809Y-111954819D01*
X153973809Y-111954819D02*
X154069047Y-111907200D01*
X154069047Y-111907200D02*
X154116666Y-111859580D01*
X154116666Y-111859580D02*
X154164285Y-111764342D01*
X154164285Y-111764342D02*
X154164285Y-111669104D01*
X154164285Y-111669104D02*
X154116666Y-111573866D01*
X154116666Y-111573866D02*
X154069047Y-111526247D01*
X154069047Y-111526247D02*
X153973809Y-111478628D01*
X153973809Y-111478628D02*
X153783333Y-111431009D01*
X153783333Y-111431009D02*
X153688095Y-111383390D01*
X153688095Y-111383390D02*
X153640476Y-111335771D01*
X153640476Y-111335771D02*
X153592857Y-111240533D01*
X153592857Y-111240533D02*
X153592857Y-111145295D01*
X153592857Y-111145295D02*
X153640476Y-111050057D01*
X153640476Y-111050057D02*
X153688095Y-111002438D01*
X153688095Y-111002438D02*
X153783333Y-110954819D01*
X153783333Y-110954819D02*
X154021428Y-110954819D01*
X154021428Y-110954819D02*
X154164285Y-111002438D01*
X154497619Y-110954819D02*
X154735714Y-111954819D01*
X154735714Y-111954819D02*
X154926190Y-111240533D01*
X154926190Y-111240533D02*
X155116666Y-111954819D01*
X155116666Y-111954819D02*
X155354762Y-110954819D01*
X153340124Y-98643922D02*
X153340124Y-99215350D01*
X152340124Y-98929636D02*
X153340124Y-98929636D01*
X152340124Y-99977255D02*
X152863934Y-99977255D01*
X152863934Y-99977255D02*
X152959172Y-99929636D01*
X152959172Y-99929636D02*
X153006791Y-99834398D01*
X153006791Y-99834398D02*
X153006791Y-99643922D01*
X153006791Y-99643922D02*
X152959172Y-99548684D01*
X152387744Y-99977255D02*
X152340124Y-99882017D01*
X152340124Y-99882017D02*
X152340124Y-99643922D01*
X152340124Y-99643922D02*
X152387744Y-99548684D01*
X152387744Y-99548684D02*
X152482982Y-99501065D01*
X152482982Y-99501065D02*
X152578220Y-99501065D01*
X152578220Y-99501065D02*
X152673458Y-99548684D01*
X152673458Y-99548684D02*
X152721077Y-99643922D01*
X152721077Y-99643922D02*
X152721077Y-99882017D01*
X152721077Y-99882017D02*
X152768696Y-99977255D01*
X153006791Y-100882017D02*
X152197267Y-100882017D01*
X152197267Y-100882017D02*
X152102029Y-100834398D01*
X152102029Y-100834398D02*
X152054410Y-100786779D01*
X152054410Y-100786779D02*
X152006791Y-100691541D01*
X152006791Y-100691541D02*
X152006791Y-100548684D01*
X152006791Y-100548684D02*
X152054410Y-100453446D01*
X152387744Y-100882017D02*
X152340124Y-100786779D01*
X152340124Y-100786779D02*
X152340124Y-100596303D01*
X152340124Y-100596303D02*
X152387744Y-100501065D01*
X152387744Y-100501065D02*
X152435363Y-100453446D01*
X152435363Y-100453446D02*
X152530601Y-100405827D01*
X152530601Y-100405827D02*
X152816315Y-100405827D01*
X152816315Y-100405827D02*
X152911553Y-100453446D01*
X152911553Y-100453446D02*
X152959172Y-100501065D01*
X152959172Y-100501065D02*
X153006791Y-100596303D01*
X153006791Y-100596303D02*
X153006791Y-100786779D01*
X153006791Y-100786779D02*
X152959172Y-100882017D01*
X152721077Y-101358208D02*
X152721077Y-102120113D01*
X150777800Y-99215350D02*
X150730180Y-99120112D01*
X150730180Y-99120112D02*
X150730180Y-98929636D01*
X150730180Y-98929636D02*
X150777800Y-98834398D01*
X150777800Y-98834398D02*
X150825419Y-98786779D01*
X150825419Y-98786779D02*
X150920657Y-98739160D01*
X150920657Y-98739160D02*
X151206371Y-98739160D01*
X151206371Y-98739160D02*
X151301609Y-98786779D01*
X151301609Y-98786779D02*
X151349228Y-98834398D01*
X151349228Y-98834398D02*
X151396847Y-98929636D01*
X151396847Y-98929636D02*
X151396847Y-99120112D01*
X151396847Y-99120112D02*
X151349228Y-99215350D01*
X150730180Y-99786779D02*
X150777800Y-99691541D01*
X150777800Y-99691541D02*
X150825419Y-99643922D01*
X150825419Y-99643922D02*
X150920657Y-99596303D01*
X150920657Y-99596303D02*
X151206371Y-99596303D01*
X151206371Y-99596303D02*
X151301609Y-99643922D01*
X151301609Y-99643922D02*
X151349228Y-99691541D01*
X151349228Y-99691541D02*
X151396847Y-99786779D01*
X151396847Y-99786779D02*
X151396847Y-99929636D01*
X151396847Y-99929636D02*
X151349228Y-100024874D01*
X151349228Y-100024874D02*
X151301609Y-100072493D01*
X151301609Y-100072493D02*
X151206371Y-100120112D01*
X151206371Y-100120112D02*
X150920657Y-100120112D01*
X150920657Y-100120112D02*
X150825419Y-100072493D01*
X150825419Y-100072493D02*
X150777800Y-100024874D01*
X150777800Y-100024874D02*
X150730180Y-99929636D01*
X150730180Y-99929636D02*
X150730180Y-99786779D01*
X151396847Y-100548684D02*
X150730180Y-100548684D01*
X151301609Y-100548684D02*
X151349228Y-100596303D01*
X151349228Y-100596303D02*
X151396847Y-100691541D01*
X151396847Y-100691541D02*
X151396847Y-100834398D01*
X151396847Y-100834398D02*
X151349228Y-100929636D01*
X151349228Y-100929636D02*
X151253990Y-100977255D01*
X151253990Y-100977255D02*
X150730180Y-100977255D01*
X151396847Y-101453446D02*
X150730180Y-101453446D01*
X151301609Y-101453446D02*
X151349228Y-101501065D01*
X151349228Y-101501065D02*
X151396847Y-101596303D01*
X151396847Y-101596303D02*
X151396847Y-101739160D01*
X151396847Y-101739160D02*
X151349228Y-101834398D01*
X151349228Y-101834398D02*
X151253990Y-101882017D01*
X151253990Y-101882017D02*
X150730180Y-101882017D01*
X150777800Y-102739160D02*
X150730180Y-102643922D01*
X150730180Y-102643922D02*
X150730180Y-102453446D01*
X150730180Y-102453446D02*
X150777800Y-102358208D01*
X150777800Y-102358208D02*
X150873038Y-102310589D01*
X150873038Y-102310589D02*
X151253990Y-102310589D01*
X151253990Y-102310589D02*
X151349228Y-102358208D01*
X151349228Y-102358208D02*
X151396847Y-102453446D01*
X151396847Y-102453446D02*
X151396847Y-102643922D01*
X151396847Y-102643922D02*
X151349228Y-102739160D01*
X151349228Y-102739160D02*
X151253990Y-102786779D01*
X151253990Y-102786779D02*
X151158752Y-102786779D01*
X151158752Y-102786779D02*
X151063514Y-102310589D01*
X150777800Y-103643922D02*
X150730180Y-103548684D01*
X150730180Y-103548684D02*
X150730180Y-103358208D01*
X150730180Y-103358208D02*
X150777800Y-103262970D01*
X150777800Y-103262970D02*
X150825419Y-103215351D01*
X150825419Y-103215351D02*
X150920657Y-103167732D01*
X150920657Y-103167732D02*
X151206371Y-103167732D01*
X151206371Y-103167732D02*
X151301609Y-103215351D01*
X151301609Y-103215351D02*
X151349228Y-103262970D01*
X151349228Y-103262970D02*
X151396847Y-103358208D01*
X151396847Y-103358208D02*
X151396847Y-103548684D01*
X151396847Y-103548684D02*
X151349228Y-103643922D01*
X151396847Y-103929637D02*
X151396847Y-104310589D01*
X151730180Y-104072494D02*
X150873038Y-104072494D01*
X150873038Y-104072494D02*
X150777800Y-104120113D01*
X150777800Y-104120113D02*
X150730180Y-104215351D01*
X150730180Y-104215351D02*
X150730180Y-104310589D01*
X127683333Y-114909580D02*
X127635714Y-114957200D01*
X127635714Y-114957200D02*
X127492857Y-115004819D01*
X127492857Y-115004819D02*
X127397619Y-115004819D01*
X127397619Y-115004819D02*
X127254762Y-114957200D01*
X127254762Y-114957200D02*
X127159524Y-114861961D01*
X127159524Y-114861961D02*
X127111905Y-114766723D01*
X127111905Y-114766723D02*
X127064286Y-114576247D01*
X127064286Y-114576247D02*
X127064286Y-114433390D01*
X127064286Y-114433390D02*
X127111905Y-114242914D01*
X127111905Y-114242914D02*
X127159524Y-114147676D01*
X127159524Y-114147676D02*
X127254762Y-114052438D01*
X127254762Y-114052438D02*
X127397619Y-114004819D01*
X127397619Y-114004819D02*
X127492857Y-114004819D01*
X127492857Y-114004819D02*
X127635714Y-114052438D01*
X127635714Y-114052438D02*
X127683333Y-114100057D01*
X128016667Y-114004819D02*
X128635714Y-114004819D01*
X128635714Y-114004819D02*
X128302381Y-114385771D01*
X128302381Y-114385771D02*
X128445238Y-114385771D01*
X128445238Y-114385771D02*
X128540476Y-114433390D01*
X128540476Y-114433390D02*
X128588095Y-114481009D01*
X128588095Y-114481009D02*
X128635714Y-114576247D01*
X128635714Y-114576247D02*
X128635714Y-114814342D01*
X128635714Y-114814342D02*
X128588095Y-114909580D01*
X128588095Y-114909580D02*
X128540476Y-114957200D01*
X128540476Y-114957200D02*
X128445238Y-115004819D01*
X128445238Y-115004819D02*
X128159524Y-115004819D01*
X128159524Y-115004819D02*
X128064286Y-114957200D01*
X128064286Y-114957200D02*
X128016667Y-114909580D01*
X123050833Y-119049580D02*
X123003214Y-119097200D01*
X123003214Y-119097200D02*
X122860357Y-119144819D01*
X122860357Y-119144819D02*
X122765119Y-119144819D01*
X122765119Y-119144819D02*
X122622262Y-119097200D01*
X122622262Y-119097200D02*
X122527024Y-119001961D01*
X122527024Y-119001961D02*
X122479405Y-118906723D01*
X122479405Y-118906723D02*
X122431786Y-118716247D01*
X122431786Y-118716247D02*
X122431786Y-118573390D01*
X122431786Y-118573390D02*
X122479405Y-118382914D01*
X122479405Y-118382914D02*
X122527024Y-118287676D01*
X122527024Y-118287676D02*
X122622262Y-118192438D01*
X122622262Y-118192438D02*
X122765119Y-118144819D01*
X122765119Y-118144819D02*
X122860357Y-118144819D01*
X122860357Y-118144819D02*
X123003214Y-118192438D01*
X123003214Y-118192438D02*
X123050833Y-118240057D01*
X123431786Y-118240057D02*
X123479405Y-118192438D01*
X123479405Y-118192438D02*
X123574643Y-118144819D01*
X123574643Y-118144819D02*
X123812738Y-118144819D01*
X123812738Y-118144819D02*
X123907976Y-118192438D01*
X123907976Y-118192438D02*
X123955595Y-118240057D01*
X123955595Y-118240057D02*
X124003214Y-118335295D01*
X124003214Y-118335295D02*
X124003214Y-118430533D01*
X124003214Y-118430533D02*
X123955595Y-118573390D01*
X123955595Y-118573390D02*
X123384167Y-119144819D01*
X123384167Y-119144819D02*
X124003214Y-119144819D01*
X125169048Y-116331342D02*
X125169048Y-116712295D01*
X124902381Y-115912295D02*
X125169048Y-116331342D01*
X125169048Y-116331342D02*
X125435714Y-115912295D01*
X126121428Y-116712295D02*
X125664285Y-116712295D01*
X125892857Y-116712295D02*
X125892857Y-115912295D01*
X125892857Y-115912295D02*
X125816666Y-116026580D01*
X125816666Y-116026580D02*
X125740476Y-116102771D01*
X125740476Y-116102771D02*
X125664285Y-116140866D01*
X135585601Y-120774568D02*
X135585601Y-121584244D01*
X135585601Y-121584244D02*
X135633229Y-121679500D01*
X135633229Y-121679500D02*
X135680857Y-121727129D01*
X135680857Y-121727129D02*
X135776113Y-121774757D01*
X135776113Y-121774757D02*
X135966625Y-121774757D01*
X135966625Y-121774757D02*
X136061881Y-121727129D01*
X136061881Y-121727129D02*
X136109509Y-121679500D01*
X136109509Y-121679500D02*
X136157137Y-121584244D01*
X136157137Y-121584244D02*
X136157137Y-120774568D01*
X137157326Y-121774757D02*
X136585790Y-121774757D01*
X136871558Y-121774757D02*
X136871558Y-120774568D01*
X136871558Y-120774568D02*
X136776302Y-120917452D01*
X136776302Y-120917452D02*
X136681046Y-121012708D01*
X136681046Y-121012708D02*
X136585790Y-121060336D01*
X136684969Y-135311516D02*
X136208778Y-135644849D01*
X136684969Y-135882944D02*
X135684969Y-135882944D01*
X135684969Y-135882944D02*
X135684969Y-135501992D01*
X135684969Y-135501992D02*
X135732588Y-135406754D01*
X135732588Y-135406754D02*
X135780207Y-135359135D01*
X135780207Y-135359135D02*
X135875445Y-135311516D01*
X135875445Y-135311516D02*
X136018302Y-135311516D01*
X136018302Y-135311516D02*
X136113540Y-135359135D01*
X136113540Y-135359135D02*
X136161159Y-135406754D01*
X136161159Y-135406754D02*
X136208778Y-135501992D01*
X136208778Y-135501992D02*
X136208778Y-135882944D01*
X135684969Y-134978182D02*
X135684969Y-134311516D01*
X135684969Y-134311516D02*
X136684969Y-134740087D01*
X108973380Y-97706657D02*
X109021000Y-97754276D01*
X109021000Y-97754276D02*
X109068619Y-97897133D01*
X109068619Y-97897133D02*
X109068619Y-97992371D01*
X109068619Y-97992371D02*
X109021000Y-98135228D01*
X109021000Y-98135228D02*
X108925761Y-98230466D01*
X108925761Y-98230466D02*
X108830523Y-98278085D01*
X108830523Y-98278085D02*
X108640047Y-98325704D01*
X108640047Y-98325704D02*
X108497190Y-98325704D01*
X108497190Y-98325704D02*
X108306714Y-98278085D01*
X108306714Y-98278085D02*
X108211476Y-98230466D01*
X108211476Y-98230466D02*
X108116238Y-98135228D01*
X108116238Y-98135228D02*
X108068619Y-97992371D01*
X108068619Y-97992371D02*
X108068619Y-97897133D01*
X108068619Y-97897133D02*
X108116238Y-97754276D01*
X108116238Y-97754276D02*
X108163857Y-97706657D01*
X109068619Y-96754276D02*
X109068619Y-97325704D01*
X109068619Y-97039990D02*
X108068619Y-97039990D01*
X108068619Y-97039990D02*
X108211476Y-97135228D01*
X108211476Y-97135228D02*
X108306714Y-97230466D01*
X108306714Y-97230466D02*
X108354333Y-97325704D01*
X108497190Y-96182847D02*
X108449571Y-96278085D01*
X108449571Y-96278085D02*
X108401952Y-96325704D01*
X108401952Y-96325704D02*
X108306714Y-96373323D01*
X108306714Y-96373323D02*
X108259095Y-96373323D01*
X108259095Y-96373323D02*
X108163857Y-96325704D01*
X108163857Y-96325704D02*
X108116238Y-96278085D01*
X108116238Y-96278085D02*
X108068619Y-96182847D01*
X108068619Y-96182847D02*
X108068619Y-95992371D01*
X108068619Y-95992371D02*
X108116238Y-95897133D01*
X108116238Y-95897133D02*
X108163857Y-95849514D01*
X108163857Y-95849514D02*
X108259095Y-95801895D01*
X108259095Y-95801895D02*
X108306714Y-95801895D01*
X108306714Y-95801895D02*
X108401952Y-95849514D01*
X108401952Y-95849514D02*
X108449571Y-95897133D01*
X108449571Y-95897133D02*
X108497190Y-95992371D01*
X108497190Y-95992371D02*
X108497190Y-96182847D01*
X108497190Y-96182847D02*
X108544809Y-96278085D01*
X108544809Y-96278085D02*
X108592428Y-96325704D01*
X108592428Y-96325704D02*
X108687666Y-96373323D01*
X108687666Y-96373323D02*
X108878142Y-96373323D01*
X108878142Y-96373323D02*
X108973380Y-96325704D01*
X108973380Y-96325704D02*
X109021000Y-96278085D01*
X109021000Y-96278085D02*
X109068619Y-96182847D01*
X109068619Y-96182847D02*
X109068619Y-95992371D01*
X109068619Y-95992371D02*
X109021000Y-95897133D01*
X109021000Y-95897133D02*
X108973380Y-95849514D01*
X108973380Y-95849514D02*
X108878142Y-95801895D01*
X108878142Y-95801895D02*
X108687666Y-95801895D01*
X108687666Y-95801895D02*
X108592428Y-95849514D01*
X108592428Y-95849514D02*
X108544809Y-95897133D01*
X108544809Y-95897133D02*
X108497190Y-95992371D01*
X133474819Y-108942857D02*
X132998628Y-109276190D01*
X133474819Y-109514285D02*
X132474819Y-109514285D01*
X132474819Y-109514285D02*
X132474819Y-109133333D01*
X132474819Y-109133333D02*
X132522438Y-109038095D01*
X132522438Y-109038095D02*
X132570057Y-108990476D01*
X132570057Y-108990476D02*
X132665295Y-108942857D01*
X132665295Y-108942857D02*
X132808152Y-108942857D01*
X132808152Y-108942857D02*
X132903390Y-108990476D01*
X132903390Y-108990476D02*
X132951009Y-109038095D01*
X132951009Y-109038095D02*
X132998628Y-109133333D01*
X132998628Y-109133333D02*
X132998628Y-109514285D01*
X133474819Y-107990476D02*
X133474819Y-108561904D01*
X133474819Y-108276190D02*
X132474819Y-108276190D01*
X132474819Y-108276190D02*
X132617676Y-108371428D01*
X132617676Y-108371428D02*
X132712914Y-108466666D01*
X132712914Y-108466666D02*
X132760533Y-108561904D01*
X132570057Y-107609523D02*
X132522438Y-107561904D01*
X132522438Y-107561904D02*
X132474819Y-107466666D01*
X132474819Y-107466666D02*
X132474819Y-107228571D01*
X132474819Y-107228571D02*
X132522438Y-107133333D01*
X132522438Y-107133333D02*
X132570057Y-107085714D01*
X132570057Y-107085714D02*
X132665295Y-107038095D01*
X132665295Y-107038095D02*
X132760533Y-107038095D01*
X132760533Y-107038095D02*
X132903390Y-107085714D01*
X132903390Y-107085714D02*
X133474819Y-107657142D01*
X133474819Y-107657142D02*
X133474819Y-107038095D01*
X142837292Y-125029430D02*
X142789673Y-125077050D01*
X142789673Y-125077050D02*
X142646816Y-125124669D01*
X142646816Y-125124669D02*
X142551578Y-125124669D01*
X142551578Y-125124669D02*
X142408721Y-125077050D01*
X142408721Y-125077050D02*
X142313483Y-124981811D01*
X142313483Y-124981811D02*
X142265864Y-124886573D01*
X142265864Y-124886573D02*
X142218245Y-124696097D01*
X142218245Y-124696097D02*
X142218245Y-124553240D01*
X142218245Y-124553240D02*
X142265864Y-124362764D01*
X142265864Y-124362764D02*
X142313483Y-124267526D01*
X142313483Y-124267526D02*
X142408721Y-124172288D01*
X142408721Y-124172288D02*
X142551578Y-124124669D01*
X142551578Y-124124669D02*
X142646816Y-124124669D01*
X142646816Y-124124669D02*
X142789673Y-124172288D01*
X142789673Y-124172288D02*
X142837292Y-124219907D01*
X143218245Y-124219907D02*
X143265864Y-124172288D01*
X143265864Y-124172288D02*
X143361102Y-124124669D01*
X143361102Y-124124669D02*
X143599197Y-124124669D01*
X143599197Y-124124669D02*
X143694435Y-124172288D01*
X143694435Y-124172288D02*
X143742054Y-124219907D01*
X143742054Y-124219907D02*
X143789673Y-124315145D01*
X143789673Y-124315145D02*
X143789673Y-124410383D01*
X143789673Y-124410383D02*
X143742054Y-124553240D01*
X143742054Y-124553240D02*
X143170626Y-125124669D01*
X143170626Y-125124669D02*
X143789673Y-125124669D01*
X144123007Y-124124669D02*
X144742054Y-124124669D01*
X144742054Y-124124669D02*
X144408721Y-124505621D01*
X144408721Y-124505621D02*
X144551578Y-124505621D01*
X144551578Y-124505621D02*
X144646816Y-124553240D01*
X144646816Y-124553240D02*
X144694435Y-124600859D01*
X144694435Y-124600859D02*
X144742054Y-124696097D01*
X144742054Y-124696097D02*
X144742054Y-124934192D01*
X144742054Y-124934192D02*
X144694435Y-125029430D01*
X144694435Y-125029430D02*
X144646816Y-125077050D01*
X144646816Y-125077050D02*
X144551578Y-125124669D01*
X144551578Y-125124669D02*
X144265864Y-125124669D01*
X144265864Y-125124669D02*
X144170626Y-125077050D01*
X144170626Y-125077050D02*
X144123007Y-125029430D01*
X121107142Y-104554819D02*
X120773809Y-104078628D01*
X120535714Y-104554819D02*
X120535714Y-103554819D01*
X120535714Y-103554819D02*
X120916666Y-103554819D01*
X120916666Y-103554819D02*
X121011904Y-103602438D01*
X121011904Y-103602438D02*
X121059523Y-103650057D01*
X121059523Y-103650057D02*
X121107142Y-103745295D01*
X121107142Y-103745295D02*
X121107142Y-103888152D01*
X121107142Y-103888152D02*
X121059523Y-103983390D01*
X121059523Y-103983390D02*
X121011904Y-104031009D01*
X121011904Y-104031009D02*
X120916666Y-104078628D01*
X120916666Y-104078628D02*
X120535714Y-104078628D01*
X122059523Y-104554819D02*
X121488095Y-104554819D01*
X121773809Y-104554819D02*
X121773809Y-103554819D01*
X121773809Y-103554819D02*
X121678571Y-103697676D01*
X121678571Y-103697676D02*
X121583333Y-103792914D01*
X121583333Y-103792914D02*
X121488095Y-103840533D01*
X122964285Y-103554819D02*
X122488095Y-103554819D01*
X122488095Y-103554819D02*
X122440476Y-104031009D01*
X122440476Y-104031009D02*
X122488095Y-103983390D01*
X122488095Y-103983390D02*
X122583333Y-103935771D01*
X122583333Y-103935771D02*
X122821428Y-103935771D01*
X122821428Y-103935771D02*
X122916666Y-103983390D01*
X122916666Y-103983390D02*
X122964285Y-104031009D01*
X122964285Y-104031009D02*
X123011904Y-104126247D01*
X123011904Y-104126247D02*
X123011904Y-104364342D01*
X123011904Y-104364342D02*
X122964285Y-104459580D01*
X122964285Y-104459580D02*
X122916666Y-104507200D01*
X122916666Y-104507200D02*
X122821428Y-104554819D01*
X122821428Y-104554819D02*
X122583333Y-104554819D01*
X122583333Y-104554819D02*
X122488095Y-104507200D01*
X122488095Y-104507200D02*
X122440476Y-104459580D01*
X136884969Y-112862707D02*
X136408778Y-113196040D01*
X136884969Y-113434135D02*
X135884969Y-113434135D01*
X135884969Y-113434135D02*
X135884969Y-113053183D01*
X135884969Y-113053183D02*
X135932588Y-112957945D01*
X135932588Y-112957945D02*
X135980207Y-112910326D01*
X135980207Y-112910326D02*
X136075445Y-112862707D01*
X136075445Y-112862707D02*
X136218302Y-112862707D01*
X136218302Y-112862707D02*
X136313540Y-112910326D01*
X136313540Y-112910326D02*
X136361159Y-112957945D01*
X136361159Y-112957945D02*
X136408778Y-113053183D01*
X136408778Y-113053183D02*
X136408778Y-113434135D01*
X136884969Y-111910326D02*
X136884969Y-112481754D01*
X136884969Y-112196040D02*
X135884969Y-112196040D01*
X135884969Y-112196040D02*
X136027826Y-112291278D01*
X136027826Y-112291278D02*
X136123064Y-112386516D01*
X136123064Y-112386516D02*
X136170683Y-112481754D01*
X136884969Y-110957945D02*
X136884969Y-111529373D01*
X136884969Y-111243659D02*
X135884969Y-111243659D01*
X135884969Y-111243659D02*
X136027826Y-111338897D01*
X136027826Y-111338897D02*
X136123064Y-111434135D01*
X136123064Y-111434135D02*
X136170683Y-111529373D01*
X152254819Y-134142857D02*
X151778628Y-134476190D01*
X152254819Y-134714285D02*
X151254819Y-134714285D01*
X151254819Y-134714285D02*
X151254819Y-134333333D01*
X151254819Y-134333333D02*
X151302438Y-134238095D01*
X151302438Y-134238095D02*
X151350057Y-134190476D01*
X151350057Y-134190476D02*
X151445295Y-134142857D01*
X151445295Y-134142857D02*
X151588152Y-134142857D01*
X151588152Y-134142857D02*
X151683390Y-134190476D01*
X151683390Y-134190476D02*
X151731009Y-134238095D01*
X151731009Y-134238095D02*
X151778628Y-134333333D01*
X151778628Y-134333333D02*
X151778628Y-134714285D01*
X152254819Y-133190476D02*
X152254819Y-133761904D01*
X152254819Y-133476190D02*
X151254819Y-133476190D01*
X151254819Y-133476190D02*
X151397676Y-133571428D01*
X151397676Y-133571428D02*
X151492914Y-133666666D01*
X151492914Y-133666666D02*
X151540533Y-133761904D01*
X151254819Y-132857142D02*
X151254819Y-132238095D01*
X151254819Y-132238095D02*
X151635771Y-132571428D01*
X151635771Y-132571428D02*
X151635771Y-132428571D01*
X151635771Y-132428571D02*
X151683390Y-132333333D01*
X151683390Y-132333333D02*
X151731009Y-132285714D01*
X151731009Y-132285714D02*
X151826247Y-132238095D01*
X151826247Y-132238095D02*
X152064342Y-132238095D01*
X152064342Y-132238095D02*
X152159580Y-132285714D01*
X152159580Y-132285714D02*
X152207200Y-132333333D01*
X152207200Y-132333333D02*
X152254819Y-132428571D01*
X152254819Y-132428571D02*
X152254819Y-132714285D01*
X152254819Y-132714285D02*
X152207200Y-132809523D01*
X152207200Y-132809523D02*
X152159580Y-132857142D01*
X125920330Y-131283045D02*
X125110807Y-131283045D01*
X125110807Y-131283045D02*
X125015569Y-131330664D01*
X125015569Y-131330664D02*
X124967950Y-131378283D01*
X124967950Y-131378283D02*
X124920330Y-131473521D01*
X124920330Y-131473521D02*
X124920330Y-131663997D01*
X124920330Y-131663997D02*
X124967950Y-131759235D01*
X124967950Y-131759235D02*
X125015569Y-131806854D01*
X125015569Y-131806854D02*
X125110807Y-131854473D01*
X125110807Y-131854473D02*
X125920330Y-131854473D01*
X125825092Y-132283045D02*
X125872711Y-132330664D01*
X125872711Y-132330664D02*
X125920330Y-132425902D01*
X125920330Y-132425902D02*
X125920330Y-132663997D01*
X125920330Y-132663997D02*
X125872711Y-132759235D01*
X125872711Y-132759235D02*
X125825092Y-132806854D01*
X125825092Y-132806854D02*
X125729854Y-132854473D01*
X125729854Y-132854473D02*
X125634616Y-132854473D01*
X125634616Y-132854473D02*
X125491759Y-132806854D01*
X125491759Y-132806854D02*
X124920330Y-132235426D01*
X124920330Y-132235426D02*
X124920330Y-132854473D01*
X144437292Y-118174669D02*
X144103959Y-117698478D01*
X143865864Y-118174669D02*
X143865864Y-117174669D01*
X143865864Y-117174669D02*
X144246816Y-117174669D01*
X144246816Y-117174669D02*
X144342054Y-117222288D01*
X144342054Y-117222288D02*
X144389673Y-117269907D01*
X144389673Y-117269907D02*
X144437292Y-117365145D01*
X144437292Y-117365145D02*
X144437292Y-117508002D01*
X144437292Y-117508002D02*
X144389673Y-117603240D01*
X144389673Y-117603240D02*
X144342054Y-117650859D01*
X144342054Y-117650859D02*
X144246816Y-117698478D01*
X144246816Y-117698478D02*
X143865864Y-117698478D01*
X145389673Y-118174669D02*
X144818245Y-118174669D01*
X145103959Y-118174669D02*
X145103959Y-117174669D01*
X145103959Y-117174669D02*
X145008721Y-117317526D01*
X145008721Y-117317526D02*
X144913483Y-117412764D01*
X144913483Y-117412764D02*
X144818245Y-117460383D01*
X146008721Y-117174669D02*
X146103959Y-117174669D01*
X146103959Y-117174669D02*
X146199197Y-117222288D01*
X146199197Y-117222288D02*
X146246816Y-117269907D01*
X146246816Y-117269907D02*
X146294435Y-117365145D01*
X146294435Y-117365145D02*
X146342054Y-117555621D01*
X146342054Y-117555621D02*
X146342054Y-117793716D01*
X146342054Y-117793716D02*
X146294435Y-117984192D01*
X146294435Y-117984192D02*
X146246816Y-118079430D01*
X146246816Y-118079430D02*
X146199197Y-118127050D01*
X146199197Y-118127050D02*
X146103959Y-118174669D01*
X146103959Y-118174669D02*
X146008721Y-118174669D01*
X146008721Y-118174669D02*
X145913483Y-118127050D01*
X145913483Y-118127050D02*
X145865864Y-118079430D01*
X145865864Y-118079430D02*
X145818245Y-117984192D01*
X145818245Y-117984192D02*
X145770626Y-117793716D01*
X145770626Y-117793716D02*
X145770626Y-117555621D01*
X145770626Y-117555621D02*
X145818245Y-117365145D01*
X145818245Y-117365145D02*
X145865864Y-117269907D01*
X145865864Y-117269907D02*
X145913483Y-117222288D01*
X145913483Y-117222288D02*
X146008721Y-117174669D01*
X131954969Y-131199016D02*
X131478778Y-131532349D01*
X131954969Y-131770444D02*
X130954969Y-131770444D01*
X130954969Y-131770444D02*
X130954969Y-131389492D01*
X130954969Y-131389492D02*
X131002588Y-131294254D01*
X131002588Y-131294254D02*
X131050207Y-131246635D01*
X131050207Y-131246635D02*
X131145445Y-131199016D01*
X131145445Y-131199016D02*
X131288302Y-131199016D01*
X131288302Y-131199016D02*
X131383540Y-131246635D01*
X131383540Y-131246635D02*
X131431159Y-131294254D01*
X131431159Y-131294254D02*
X131478778Y-131389492D01*
X131478778Y-131389492D02*
X131478778Y-131770444D01*
X130954969Y-130341873D02*
X130954969Y-130532349D01*
X130954969Y-130532349D02*
X131002588Y-130627587D01*
X131002588Y-130627587D02*
X131050207Y-130675206D01*
X131050207Y-130675206D02*
X131193064Y-130770444D01*
X131193064Y-130770444D02*
X131383540Y-130818063D01*
X131383540Y-130818063D02*
X131764492Y-130818063D01*
X131764492Y-130818063D02*
X131859730Y-130770444D01*
X131859730Y-130770444D02*
X131907350Y-130722825D01*
X131907350Y-130722825D02*
X131954969Y-130627587D01*
X131954969Y-130627587D02*
X131954969Y-130437111D01*
X131954969Y-130437111D02*
X131907350Y-130341873D01*
X131907350Y-130341873D02*
X131859730Y-130294254D01*
X131859730Y-130294254D02*
X131764492Y-130246635D01*
X131764492Y-130246635D02*
X131526397Y-130246635D01*
X131526397Y-130246635D02*
X131431159Y-130294254D01*
X131431159Y-130294254D02*
X131383540Y-130341873D01*
X131383540Y-130341873D02*
X131335921Y-130437111D01*
X131335921Y-130437111D02*
X131335921Y-130627587D01*
X131335921Y-130627587D02*
X131383540Y-130722825D01*
X131383540Y-130722825D02*
X131431159Y-130770444D01*
X131431159Y-130770444D02*
X131526397Y-130818063D01*
X108707142Y-127659580D02*
X108659523Y-127707200D01*
X108659523Y-127707200D02*
X108516666Y-127754819D01*
X108516666Y-127754819D02*
X108421428Y-127754819D01*
X108421428Y-127754819D02*
X108278571Y-127707200D01*
X108278571Y-127707200D02*
X108183333Y-127611961D01*
X108183333Y-127611961D02*
X108135714Y-127516723D01*
X108135714Y-127516723D02*
X108088095Y-127326247D01*
X108088095Y-127326247D02*
X108088095Y-127183390D01*
X108088095Y-127183390D02*
X108135714Y-126992914D01*
X108135714Y-126992914D02*
X108183333Y-126897676D01*
X108183333Y-126897676D02*
X108278571Y-126802438D01*
X108278571Y-126802438D02*
X108421428Y-126754819D01*
X108421428Y-126754819D02*
X108516666Y-126754819D01*
X108516666Y-126754819D02*
X108659523Y-126802438D01*
X108659523Y-126802438D02*
X108707142Y-126850057D01*
X109659523Y-127754819D02*
X109088095Y-127754819D01*
X109373809Y-127754819D02*
X109373809Y-126754819D01*
X109373809Y-126754819D02*
X109278571Y-126897676D01*
X109278571Y-126897676D02*
X109183333Y-126992914D01*
X109183333Y-126992914D02*
X109088095Y-127040533D01*
X110040476Y-126850057D02*
X110088095Y-126802438D01*
X110088095Y-126802438D02*
X110183333Y-126754819D01*
X110183333Y-126754819D02*
X110421428Y-126754819D01*
X110421428Y-126754819D02*
X110516666Y-126802438D01*
X110516666Y-126802438D02*
X110564285Y-126850057D01*
X110564285Y-126850057D02*
X110611904Y-126945295D01*
X110611904Y-126945295D02*
X110611904Y-127040533D01*
X110611904Y-127040533D02*
X110564285Y-127183390D01*
X110564285Y-127183390D02*
X109992857Y-127754819D01*
X109992857Y-127754819D02*
X110611904Y-127754819D01*
X145813483Y-116529430D02*
X145765864Y-116577050D01*
X145765864Y-116577050D02*
X145623007Y-116624669D01*
X145623007Y-116624669D02*
X145527769Y-116624669D01*
X145527769Y-116624669D02*
X145384912Y-116577050D01*
X145384912Y-116577050D02*
X145289674Y-116481811D01*
X145289674Y-116481811D02*
X145242055Y-116386573D01*
X145242055Y-116386573D02*
X145194436Y-116196097D01*
X145194436Y-116196097D02*
X145194436Y-116053240D01*
X145194436Y-116053240D02*
X145242055Y-115862764D01*
X145242055Y-115862764D02*
X145289674Y-115767526D01*
X145289674Y-115767526D02*
X145384912Y-115672288D01*
X145384912Y-115672288D02*
X145527769Y-115624669D01*
X145527769Y-115624669D02*
X145623007Y-115624669D01*
X145623007Y-115624669D02*
X145765864Y-115672288D01*
X145765864Y-115672288D02*
X145813483Y-115719907D01*
X146718245Y-115624669D02*
X146242055Y-115624669D01*
X146242055Y-115624669D02*
X146194436Y-116100859D01*
X146194436Y-116100859D02*
X146242055Y-116053240D01*
X146242055Y-116053240D02*
X146337293Y-116005621D01*
X146337293Y-116005621D02*
X146575388Y-116005621D01*
X146575388Y-116005621D02*
X146670626Y-116053240D01*
X146670626Y-116053240D02*
X146718245Y-116100859D01*
X146718245Y-116100859D02*
X146765864Y-116196097D01*
X146765864Y-116196097D02*
X146765864Y-116434192D01*
X146765864Y-116434192D02*
X146718245Y-116529430D01*
X146718245Y-116529430D02*
X146670626Y-116577050D01*
X146670626Y-116577050D02*
X146575388Y-116624669D01*
X146575388Y-116624669D02*
X146337293Y-116624669D01*
X146337293Y-116624669D02*
X146242055Y-116577050D01*
X146242055Y-116577050D02*
X146194436Y-116529430D01*
X143157142Y-136289580D02*
X143109523Y-136337200D01*
X143109523Y-136337200D02*
X142966666Y-136384819D01*
X142966666Y-136384819D02*
X142871428Y-136384819D01*
X142871428Y-136384819D02*
X142728571Y-136337200D01*
X142728571Y-136337200D02*
X142633333Y-136241961D01*
X142633333Y-136241961D02*
X142585714Y-136146723D01*
X142585714Y-136146723D02*
X142538095Y-135956247D01*
X142538095Y-135956247D02*
X142538095Y-135813390D01*
X142538095Y-135813390D02*
X142585714Y-135622914D01*
X142585714Y-135622914D02*
X142633333Y-135527676D01*
X142633333Y-135527676D02*
X142728571Y-135432438D01*
X142728571Y-135432438D02*
X142871428Y-135384819D01*
X142871428Y-135384819D02*
X142966666Y-135384819D01*
X142966666Y-135384819D02*
X143109523Y-135432438D01*
X143109523Y-135432438D02*
X143157142Y-135480057D01*
X144109523Y-136384819D02*
X143538095Y-136384819D01*
X143823809Y-136384819D02*
X143823809Y-135384819D01*
X143823809Y-135384819D02*
X143728571Y-135527676D01*
X143728571Y-135527676D02*
X143633333Y-135622914D01*
X143633333Y-135622914D02*
X143538095Y-135670533D01*
X144442857Y-135384819D02*
X145061904Y-135384819D01*
X145061904Y-135384819D02*
X144728571Y-135765771D01*
X144728571Y-135765771D02*
X144871428Y-135765771D01*
X144871428Y-135765771D02*
X144966666Y-135813390D01*
X144966666Y-135813390D02*
X145014285Y-135861009D01*
X145014285Y-135861009D02*
X145061904Y-135956247D01*
X145061904Y-135956247D02*
X145061904Y-136194342D01*
X145061904Y-136194342D02*
X145014285Y-136289580D01*
X145014285Y-136289580D02*
X144966666Y-136337200D01*
X144966666Y-136337200D02*
X144871428Y-136384819D01*
X144871428Y-136384819D02*
X144585714Y-136384819D01*
X144585714Y-136384819D02*
X144490476Y-136337200D01*
X144490476Y-136337200D02*
X144442857Y-136289580D01*
X112808980Y-106351895D02*
X111999457Y-106351895D01*
X111999457Y-106351895D02*
X111904219Y-106399514D01*
X111904219Y-106399514D02*
X111856600Y-106447133D01*
X111856600Y-106447133D02*
X111808980Y-106542371D01*
X111808980Y-106542371D02*
X111808980Y-106732847D01*
X111808980Y-106732847D02*
X111856600Y-106828085D01*
X111856600Y-106828085D02*
X111904219Y-106875704D01*
X111904219Y-106875704D02*
X111999457Y-106923323D01*
X111999457Y-106923323D02*
X112808980Y-106923323D01*
X112475647Y-107828085D02*
X111808980Y-107828085D01*
X112856600Y-107589990D02*
X112142314Y-107351895D01*
X112142314Y-107351895D02*
X112142314Y-107970942D01*
X111469619Y-105406449D02*
X111707714Y-105406449D01*
X111612476Y-105644544D02*
X111707714Y-105406449D01*
X111707714Y-105406449D02*
X111612476Y-105168354D01*
X111898190Y-105549306D02*
X111707714Y-105406449D01*
X111707714Y-105406449D02*
X111898190Y-105263592D01*
X112559980Y-105406450D02*
X112321885Y-105406450D01*
X112417123Y-105168355D02*
X112321885Y-105406450D01*
X112321885Y-105406450D02*
X112417123Y-105644545D01*
X112131409Y-105263593D02*
X112321885Y-105406450D01*
X112321885Y-105406450D02*
X112131409Y-105549307D01*
D10*
X127507142Y-152762419D02*
X127030952Y-152762419D01*
X127030952Y-152762419D02*
X127030952Y-151762419D01*
X127792857Y-152714800D02*
X127935714Y-152762419D01*
X127935714Y-152762419D02*
X128173809Y-152762419D01*
X128173809Y-152762419D02*
X128269047Y-152714800D01*
X128269047Y-152714800D02*
X128316666Y-152667180D01*
X128316666Y-152667180D02*
X128364285Y-152571942D01*
X128364285Y-152571942D02*
X128364285Y-152476704D01*
X128364285Y-152476704D02*
X128316666Y-152381466D01*
X128316666Y-152381466D02*
X128269047Y-152333847D01*
X128269047Y-152333847D02*
X128173809Y-152286228D01*
X128173809Y-152286228D02*
X127983333Y-152238609D01*
X127983333Y-152238609D02*
X127888095Y-152190990D01*
X127888095Y-152190990D02*
X127840476Y-152143371D01*
X127840476Y-152143371D02*
X127792857Y-152048133D01*
X127792857Y-152048133D02*
X127792857Y-151952895D01*
X127792857Y-151952895D02*
X127840476Y-151857657D01*
X127840476Y-151857657D02*
X127888095Y-151810038D01*
X127888095Y-151810038D02*
X127983333Y-151762419D01*
X127983333Y-151762419D02*
X128221428Y-151762419D01*
X128221428Y-151762419D02*
X128364285Y-151810038D01*
X129316666Y-152762419D02*
X128745238Y-152762419D01*
X129030952Y-152762419D02*
X129030952Y-151762419D01*
X129030952Y-151762419D02*
X128935714Y-151905276D01*
X128935714Y-151905276D02*
X128840476Y-152000514D01*
X128840476Y-152000514D02*
X128745238Y-152048133D01*
D12*
X151663842Y-126917619D02*
X151724318Y-126736190D01*
X151724318Y-126736190D02*
X151724318Y-126433809D01*
X151724318Y-126433809D02*
X151663842Y-126312857D01*
X151663842Y-126312857D02*
X151603365Y-126252381D01*
X151603365Y-126252381D02*
X151482413Y-126191904D01*
X151482413Y-126191904D02*
X151361461Y-126191904D01*
X151361461Y-126191904D02*
X151240508Y-126252381D01*
X151240508Y-126252381D02*
X151180032Y-126312857D01*
X151180032Y-126312857D02*
X151119556Y-126433809D01*
X151119556Y-126433809D02*
X151059080Y-126675714D01*
X151059080Y-126675714D02*
X150998603Y-126796666D01*
X150998603Y-126796666D02*
X150938127Y-126857143D01*
X150938127Y-126857143D02*
X150817175Y-126917619D01*
X150817175Y-126917619D02*
X150696222Y-126917619D01*
X150696222Y-126917619D02*
X150575270Y-126857143D01*
X150575270Y-126857143D02*
X150514794Y-126796666D01*
X150514794Y-126796666D02*
X150454318Y-126675714D01*
X150454318Y-126675714D02*
X150454318Y-126373333D01*
X150454318Y-126373333D02*
X150514794Y-126191904D01*
X151724318Y-124982380D02*
X151724318Y-125708095D01*
X151724318Y-125345238D02*
X150454318Y-125345238D01*
X150454318Y-125345238D02*
X150635746Y-125466190D01*
X150635746Y-125466190D02*
X150756699Y-125587142D01*
X150756699Y-125587142D02*
X150817175Y-125708095D01*
D11*
X122557142Y-100359580D02*
X122509523Y-100407200D01*
X122509523Y-100407200D02*
X122366666Y-100454819D01*
X122366666Y-100454819D02*
X122271428Y-100454819D01*
X122271428Y-100454819D02*
X122128571Y-100407200D01*
X122128571Y-100407200D02*
X122033333Y-100311961D01*
X122033333Y-100311961D02*
X121985714Y-100216723D01*
X121985714Y-100216723D02*
X121938095Y-100026247D01*
X121938095Y-100026247D02*
X121938095Y-99883390D01*
X121938095Y-99883390D02*
X121985714Y-99692914D01*
X121985714Y-99692914D02*
X122033333Y-99597676D01*
X122033333Y-99597676D02*
X122128571Y-99502438D01*
X122128571Y-99502438D02*
X122271428Y-99454819D01*
X122271428Y-99454819D02*
X122366666Y-99454819D01*
X122366666Y-99454819D02*
X122509523Y-99502438D01*
X122509523Y-99502438D02*
X122557142Y-99550057D01*
X123509523Y-100454819D02*
X122938095Y-100454819D01*
X123223809Y-100454819D02*
X123223809Y-99454819D01*
X123223809Y-99454819D02*
X123128571Y-99597676D01*
X123128571Y-99597676D02*
X123033333Y-99692914D01*
X123033333Y-99692914D02*
X122938095Y-99740533D01*
X123985714Y-100454819D02*
X124176190Y-100454819D01*
X124176190Y-100454819D02*
X124271428Y-100407200D01*
X124271428Y-100407200D02*
X124319047Y-100359580D01*
X124319047Y-100359580D02*
X124414285Y-100216723D01*
X124414285Y-100216723D02*
X124461904Y-100026247D01*
X124461904Y-100026247D02*
X124461904Y-99645295D01*
X124461904Y-99645295D02*
X124414285Y-99550057D01*
X124414285Y-99550057D02*
X124366666Y-99502438D01*
X124366666Y-99502438D02*
X124271428Y-99454819D01*
X124271428Y-99454819D02*
X124080952Y-99454819D01*
X124080952Y-99454819D02*
X123985714Y-99502438D01*
X123985714Y-99502438D02*
X123938095Y-99550057D01*
X123938095Y-99550057D02*
X123890476Y-99645295D01*
X123890476Y-99645295D02*
X123890476Y-99883390D01*
X123890476Y-99883390D02*
X123938095Y-99978628D01*
X123938095Y-99978628D02*
X123985714Y-100026247D01*
X123985714Y-100026247D02*
X124080952Y-100073866D01*
X124080952Y-100073866D02*
X124271428Y-100073866D01*
X124271428Y-100073866D02*
X124366666Y-100026247D01*
X124366666Y-100026247D02*
X124414285Y-99978628D01*
X124414285Y-99978628D02*
X124461904Y-99883390D01*
X112644642Y-100359580D02*
X112597023Y-100407200D01*
X112597023Y-100407200D02*
X112454166Y-100454819D01*
X112454166Y-100454819D02*
X112358928Y-100454819D01*
X112358928Y-100454819D02*
X112216071Y-100407200D01*
X112216071Y-100407200D02*
X112120833Y-100311961D01*
X112120833Y-100311961D02*
X112073214Y-100216723D01*
X112073214Y-100216723D02*
X112025595Y-100026247D01*
X112025595Y-100026247D02*
X112025595Y-99883390D01*
X112025595Y-99883390D02*
X112073214Y-99692914D01*
X112073214Y-99692914D02*
X112120833Y-99597676D01*
X112120833Y-99597676D02*
X112216071Y-99502438D01*
X112216071Y-99502438D02*
X112358928Y-99454819D01*
X112358928Y-99454819D02*
X112454166Y-99454819D01*
X112454166Y-99454819D02*
X112597023Y-99502438D01*
X112597023Y-99502438D02*
X112644642Y-99550057D01*
X113597023Y-100454819D02*
X113025595Y-100454819D01*
X113311309Y-100454819D02*
X113311309Y-99454819D01*
X113311309Y-99454819D02*
X113216071Y-99597676D01*
X113216071Y-99597676D02*
X113120833Y-99692914D01*
X113120833Y-99692914D02*
X113025595Y-99740533D01*
X114454166Y-99454819D02*
X114263690Y-99454819D01*
X114263690Y-99454819D02*
X114168452Y-99502438D01*
X114168452Y-99502438D02*
X114120833Y-99550057D01*
X114120833Y-99550057D02*
X114025595Y-99692914D01*
X114025595Y-99692914D02*
X113977976Y-99883390D01*
X113977976Y-99883390D02*
X113977976Y-100264342D01*
X113977976Y-100264342D02*
X114025595Y-100359580D01*
X114025595Y-100359580D02*
X114073214Y-100407200D01*
X114073214Y-100407200D02*
X114168452Y-100454819D01*
X114168452Y-100454819D02*
X114358928Y-100454819D01*
X114358928Y-100454819D02*
X114454166Y-100407200D01*
X114454166Y-100407200D02*
X114501785Y-100359580D01*
X114501785Y-100359580D02*
X114549404Y-100264342D01*
X114549404Y-100264342D02*
X114549404Y-100026247D01*
X114549404Y-100026247D02*
X114501785Y-99931009D01*
X114501785Y-99931009D02*
X114454166Y-99883390D01*
X114454166Y-99883390D02*
X114358928Y-99835771D01*
X114358928Y-99835771D02*
X114168452Y-99835771D01*
X114168452Y-99835771D02*
X114073214Y-99883390D01*
X114073214Y-99883390D02*
X114025595Y-99931009D01*
X114025595Y-99931009D02*
X113977976Y-100026247D01*
X145457142Y-127254819D02*
X145123809Y-126778628D01*
X144885714Y-127254819D02*
X144885714Y-126254819D01*
X144885714Y-126254819D02*
X145266666Y-126254819D01*
X145266666Y-126254819D02*
X145361904Y-126302438D01*
X145361904Y-126302438D02*
X145409523Y-126350057D01*
X145409523Y-126350057D02*
X145457142Y-126445295D01*
X145457142Y-126445295D02*
X145457142Y-126588152D01*
X145457142Y-126588152D02*
X145409523Y-126683390D01*
X145409523Y-126683390D02*
X145361904Y-126731009D01*
X145361904Y-126731009D02*
X145266666Y-126778628D01*
X145266666Y-126778628D02*
X144885714Y-126778628D01*
X146409523Y-127254819D02*
X145838095Y-127254819D01*
X146123809Y-127254819D02*
X146123809Y-126254819D01*
X146123809Y-126254819D02*
X146028571Y-126397676D01*
X146028571Y-126397676D02*
X145933333Y-126492914D01*
X145933333Y-126492914D02*
X145838095Y-126540533D01*
X147266666Y-126588152D02*
X147266666Y-127254819D01*
X147028571Y-126207200D02*
X146790476Y-126921485D01*
X146790476Y-126921485D02*
X147409523Y-126921485D01*
X153074669Y-111816666D02*
X152598478Y-112149999D01*
X153074669Y-112388094D02*
X152074669Y-112388094D01*
X152074669Y-112388094D02*
X152074669Y-112007142D01*
X152074669Y-112007142D02*
X152122288Y-111911904D01*
X152122288Y-111911904D02*
X152169907Y-111864285D01*
X152169907Y-111864285D02*
X152265145Y-111816666D01*
X152265145Y-111816666D02*
X152408002Y-111816666D01*
X152408002Y-111816666D02*
X152503240Y-111864285D01*
X152503240Y-111864285D02*
X152550859Y-111911904D01*
X152550859Y-111911904D02*
X152598478Y-112007142D01*
X152598478Y-112007142D02*
X152598478Y-112388094D01*
X153074669Y-110864285D02*
X153074669Y-111435713D01*
X153074669Y-111149999D02*
X152074669Y-111149999D01*
X152074669Y-111149999D02*
X152217526Y-111245237D01*
X152217526Y-111245237D02*
X152312764Y-111340475D01*
X152312764Y-111340475D02*
X152360383Y-111435713D01*
X113120833Y-96809580D02*
X113073214Y-96857200D01*
X113073214Y-96857200D02*
X112930357Y-96904819D01*
X112930357Y-96904819D02*
X112835119Y-96904819D01*
X112835119Y-96904819D02*
X112692262Y-96857200D01*
X112692262Y-96857200D02*
X112597024Y-96761961D01*
X112597024Y-96761961D02*
X112549405Y-96666723D01*
X112549405Y-96666723D02*
X112501786Y-96476247D01*
X112501786Y-96476247D02*
X112501786Y-96333390D01*
X112501786Y-96333390D02*
X112549405Y-96142914D01*
X112549405Y-96142914D02*
X112597024Y-96047676D01*
X112597024Y-96047676D02*
X112692262Y-95952438D01*
X112692262Y-95952438D02*
X112835119Y-95904819D01*
X112835119Y-95904819D02*
X112930357Y-95904819D01*
X112930357Y-95904819D02*
X113073214Y-95952438D01*
X113073214Y-95952438D02*
X113120833Y-96000057D01*
X114073214Y-96904819D02*
X113501786Y-96904819D01*
X113787500Y-96904819D02*
X113787500Y-95904819D01*
X113787500Y-95904819D02*
X113692262Y-96047676D01*
X113692262Y-96047676D02*
X113597024Y-96142914D01*
X113597024Y-96142914D02*
X113501786Y-96190533D01*
X139554819Y-109666666D02*
X139078628Y-109999999D01*
X139554819Y-110238094D02*
X138554819Y-110238094D01*
X138554819Y-110238094D02*
X138554819Y-109857142D01*
X138554819Y-109857142D02*
X138602438Y-109761904D01*
X138602438Y-109761904D02*
X138650057Y-109714285D01*
X138650057Y-109714285D02*
X138745295Y-109666666D01*
X138745295Y-109666666D02*
X138888152Y-109666666D01*
X138888152Y-109666666D02*
X138983390Y-109714285D01*
X138983390Y-109714285D02*
X139031009Y-109761904D01*
X139031009Y-109761904D02*
X139078628Y-109857142D01*
X139078628Y-109857142D02*
X139078628Y-110238094D01*
X139554819Y-109190475D02*
X139554819Y-108999999D01*
X139554819Y-108999999D02*
X139507200Y-108904761D01*
X139507200Y-108904761D02*
X139459580Y-108857142D01*
X139459580Y-108857142D02*
X139316723Y-108761904D01*
X139316723Y-108761904D02*
X139126247Y-108714285D01*
X139126247Y-108714285D02*
X138745295Y-108714285D01*
X138745295Y-108714285D02*
X138650057Y-108761904D01*
X138650057Y-108761904D02*
X138602438Y-108809523D01*
X138602438Y-108809523D02*
X138554819Y-108904761D01*
X138554819Y-108904761D02*
X138554819Y-109095237D01*
X138554819Y-109095237D02*
X138602438Y-109190475D01*
X138602438Y-109190475D02*
X138650057Y-109238094D01*
X138650057Y-109238094D02*
X138745295Y-109285713D01*
X138745295Y-109285713D02*
X138983390Y-109285713D01*
X138983390Y-109285713D02*
X139078628Y-109238094D01*
X139078628Y-109238094D02*
X139126247Y-109190475D01*
X139126247Y-109190475D02*
X139173866Y-109095237D01*
X139173866Y-109095237D02*
X139173866Y-108904761D01*
X139173866Y-108904761D02*
X139126247Y-108809523D01*
X139126247Y-108809523D02*
X139078628Y-108761904D01*
X139078628Y-108761904D02*
X138983390Y-108714285D01*
X124513483Y-125779430D02*
X124465864Y-125827050D01*
X124465864Y-125827050D02*
X124323007Y-125874669D01*
X124323007Y-125874669D02*
X124227769Y-125874669D01*
X124227769Y-125874669D02*
X124084912Y-125827050D01*
X124084912Y-125827050D02*
X123989674Y-125731811D01*
X123989674Y-125731811D02*
X123942055Y-125636573D01*
X123942055Y-125636573D02*
X123894436Y-125446097D01*
X123894436Y-125446097D02*
X123894436Y-125303240D01*
X123894436Y-125303240D02*
X123942055Y-125112764D01*
X123942055Y-125112764D02*
X123989674Y-125017526D01*
X123989674Y-125017526D02*
X124084912Y-124922288D01*
X124084912Y-124922288D02*
X124227769Y-124874669D01*
X124227769Y-124874669D02*
X124323007Y-124874669D01*
X124323007Y-124874669D02*
X124465864Y-124922288D01*
X124465864Y-124922288D02*
X124513483Y-124969907D01*
X124846817Y-124874669D02*
X125513483Y-124874669D01*
X125513483Y-124874669D02*
X125084912Y-125874669D01*
X109616651Y-137854794D02*
X109616651Y-138569113D01*
X109616651Y-138569113D02*
X109569029Y-138711977D01*
X109569029Y-138711977D02*
X109473787Y-138807220D01*
X109473787Y-138807220D02*
X109330923Y-138854841D01*
X109330923Y-138854841D02*
X109235680Y-138854841D01*
X110045243Y-137950036D02*
X110092864Y-137902415D01*
X110092864Y-137902415D02*
X110188107Y-137854794D01*
X110188107Y-137854794D02*
X110426213Y-137854794D01*
X110426213Y-137854794D02*
X110521456Y-137902415D01*
X110521456Y-137902415D02*
X110569077Y-137950036D01*
X110569077Y-137950036D02*
X110616698Y-138045279D01*
X110616698Y-138045279D02*
X110616698Y-138140522D01*
X110616698Y-138140522D02*
X110569077Y-138283385D01*
X110569077Y-138283385D02*
X109997621Y-138854841D01*
X109997621Y-138854841D02*
X110616698Y-138854841D01*
X130689730Y-138036516D02*
X130737350Y-138084135D01*
X130737350Y-138084135D02*
X130784969Y-138226992D01*
X130784969Y-138226992D02*
X130784969Y-138322230D01*
X130784969Y-138322230D02*
X130737350Y-138465087D01*
X130737350Y-138465087D02*
X130642111Y-138560325D01*
X130642111Y-138560325D02*
X130546873Y-138607944D01*
X130546873Y-138607944D02*
X130356397Y-138655563D01*
X130356397Y-138655563D02*
X130213540Y-138655563D01*
X130213540Y-138655563D02*
X130023064Y-138607944D01*
X130023064Y-138607944D02*
X129927826Y-138560325D01*
X129927826Y-138560325D02*
X129832588Y-138465087D01*
X129832588Y-138465087D02*
X129784969Y-138322230D01*
X129784969Y-138322230D02*
X129784969Y-138226992D01*
X129784969Y-138226992D02*
X129832588Y-138084135D01*
X129832588Y-138084135D02*
X129880207Y-138036516D01*
X130784969Y-137560325D02*
X130784969Y-137369849D01*
X130784969Y-137369849D02*
X130737350Y-137274611D01*
X130737350Y-137274611D02*
X130689730Y-137226992D01*
X130689730Y-137226992D02*
X130546873Y-137131754D01*
X130546873Y-137131754D02*
X130356397Y-137084135D01*
X130356397Y-137084135D02*
X129975445Y-137084135D01*
X129975445Y-137084135D02*
X129880207Y-137131754D01*
X129880207Y-137131754D02*
X129832588Y-137179373D01*
X129832588Y-137179373D02*
X129784969Y-137274611D01*
X129784969Y-137274611D02*
X129784969Y-137465087D01*
X129784969Y-137465087D02*
X129832588Y-137560325D01*
X129832588Y-137560325D02*
X129880207Y-137607944D01*
X129880207Y-137607944D02*
X129975445Y-137655563D01*
X129975445Y-137655563D02*
X130213540Y-137655563D01*
X130213540Y-137655563D02*
X130308778Y-137607944D01*
X130308778Y-137607944D02*
X130356397Y-137560325D01*
X130356397Y-137560325D02*
X130404016Y-137465087D01*
X130404016Y-137465087D02*
X130404016Y-137274611D01*
X130404016Y-137274611D02*
X130356397Y-137179373D01*
X130356397Y-137179373D02*
X130308778Y-137131754D01*
X130308778Y-137131754D02*
X130213540Y-137084135D01*
D12*
X147862618Y-110374318D02*
X147862618Y-109104318D01*
X147862618Y-109104318D02*
X148164999Y-109104318D01*
X148164999Y-109104318D02*
X148346428Y-109164794D01*
X148346428Y-109164794D02*
X148467380Y-109285746D01*
X148467380Y-109285746D02*
X148527857Y-109406699D01*
X148527857Y-109406699D02*
X148588333Y-109648603D01*
X148588333Y-109648603D02*
X148588333Y-109830032D01*
X148588333Y-109830032D02*
X148527857Y-110071937D01*
X148527857Y-110071937D02*
X148467380Y-110192889D01*
X148467380Y-110192889D02*
X148346428Y-110313842D01*
X148346428Y-110313842D02*
X148164999Y-110374318D01*
X148164999Y-110374318D02*
X147862618Y-110374318D01*
X149072142Y-109225270D02*
X149132618Y-109164794D01*
X149132618Y-109164794D02*
X149253571Y-109104318D01*
X149253571Y-109104318D02*
X149555952Y-109104318D01*
X149555952Y-109104318D02*
X149676904Y-109164794D01*
X149676904Y-109164794D02*
X149737380Y-109225270D01*
X149737380Y-109225270D02*
X149797857Y-109346222D01*
X149797857Y-109346222D02*
X149797857Y-109467175D01*
X149797857Y-109467175D02*
X149737380Y-109648603D01*
X149737380Y-109648603D02*
X149011666Y-110374318D01*
X149011666Y-110374318D02*
X149797857Y-110374318D01*
D11*
X148183333Y-120254819D02*
X147850000Y-119778628D01*
X147611905Y-120254819D02*
X147611905Y-119254819D01*
X147611905Y-119254819D02*
X147992857Y-119254819D01*
X147992857Y-119254819D02*
X148088095Y-119302438D01*
X148088095Y-119302438D02*
X148135714Y-119350057D01*
X148135714Y-119350057D02*
X148183333Y-119445295D01*
X148183333Y-119445295D02*
X148183333Y-119588152D01*
X148183333Y-119588152D02*
X148135714Y-119683390D01*
X148135714Y-119683390D02*
X148088095Y-119731009D01*
X148088095Y-119731009D02*
X147992857Y-119778628D01*
X147992857Y-119778628D02*
X147611905Y-119778628D01*
X148564286Y-119350057D02*
X148611905Y-119302438D01*
X148611905Y-119302438D02*
X148707143Y-119254819D01*
X148707143Y-119254819D02*
X148945238Y-119254819D01*
X148945238Y-119254819D02*
X149040476Y-119302438D01*
X149040476Y-119302438D02*
X149088095Y-119350057D01*
X149088095Y-119350057D02*
X149135714Y-119445295D01*
X149135714Y-119445295D02*
X149135714Y-119540533D01*
X149135714Y-119540533D02*
X149088095Y-119683390D01*
X149088095Y-119683390D02*
X148516667Y-120254819D01*
X148516667Y-120254819D02*
X149135714Y-120254819D01*
X131158330Y-103755357D02*
X131205950Y-103802976D01*
X131205950Y-103802976D02*
X131253569Y-103945833D01*
X131253569Y-103945833D02*
X131253569Y-104041071D01*
X131253569Y-104041071D02*
X131205950Y-104183928D01*
X131205950Y-104183928D02*
X131110711Y-104279166D01*
X131110711Y-104279166D02*
X131015473Y-104326785D01*
X131015473Y-104326785D02*
X130824997Y-104374404D01*
X130824997Y-104374404D02*
X130682140Y-104374404D01*
X130682140Y-104374404D02*
X130491664Y-104326785D01*
X130491664Y-104326785D02*
X130396426Y-104279166D01*
X130396426Y-104279166D02*
X130301188Y-104183928D01*
X130301188Y-104183928D02*
X130253569Y-104041071D01*
X130253569Y-104041071D02*
X130253569Y-103945833D01*
X130253569Y-103945833D02*
X130301188Y-103802976D01*
X130301188Y-103802976D02*
X130348807Y-103755357D01*
X130348807Y-103374404D02*
X130301188Y-103326785D01*
X130301188Y-103326785D02*
X130253569Y-103231547D01*
X130253569Y-103231547D02*
X130253569Y-102993452D01*
X130253569Y-102993452D02*
X130301188Y-102898214D01*
X130301188Y-102898214D02*
X130348807Y-102850595D01*
X130348807Y-102850595D02*
X130444045Y-102802976D01*
X130444045Y-102802976D02*
X130539283Y-102802976D01*
X130539283Y-102802976D02*
X130682140Y-102850595D01*
X130682140Y-102850595D02*
X131253569Y-103422023D01*
X131253569Y-103422023D02*
X131253569Y-102802976D01*
X130253569Y-102183928D02*
X130253569Y-102088690D01*
X130253569Y-102088690D02*
X130301188Y-101993452D01*
X130301188Y-101993452D02*
X130348807Y-101945833D01*
X130348807Y-101945833D02*
X130444045Y-101898214D01*
X130444045Y-101898214D02*
X130634521Y-101850595D01*
X130634521Y-101850595D02*
X130872616Y-101850595D01*
X130872616Y-101850595D02*
X131063092Y-101898214D01*
X131063092Y-101898214D02*
X131158330Y-101945833D01*
X131158330Y-101945833D02*
X131205950Y-101993452D01*
X131205950Y-101993452D02*
X131253569Y-102088690D01*
X131253569Y-102088690D02*
X131253569Y-102183928D01*
X131253569Y-102183928D02*
X131205950Y-102279166D01*
X131205950Y-102279166D02*
X131158330Y-102326785D01*
X131158330Y-102326785D02*
X131063092Y-102374404D01*
X131063092Y-102374404D02*
X130872616Y-102422023D01*
X130872616Y-102422023D02*
X130634521Y-102422023D01*
X130634521Y-102422023D02*
X130444045Y-102374404D01*
X130444045Y-102374404D02*
X130348807Y-102326785D01*
X130348807Y-102326785D02*
X130301188Y-102279166D01*
X130301188Y-102279166D02*
X130253569Y-102183928D01*
X110483442Y-113560880D02*
X110435823Y-113608500D01*
X110435823Y-113608500D02*
X110292966Y-113656119D01*
X110292966Y-113656119D02*
X110197728Y-113656119D01*
X110197728Y-113656119D02*
X110054871Y-113608500D01*
X110054871Y-113608500D02*
X109959633Y-113513261D01*
X109959633Y-113513261D02*
X109912014Y-113418023D01*
X109912014Y-113418023D02*
X109864395Y-113227547D01*
X109864395Y-113227547D02*
X109864395Y-113084690D01*
X109864395Y-113084690D02*
X109912014Y-112894214D01*
X109912014Y-112894214D02*
X109959633Y-112798976D01*
X109959633Y-112798976D02*
X110054871Y-112703738D01*
X110054871Y-112703738D02*
X110197728Y-112656119D01*
X110197728Y-112656119D02*
X110292966Y-112656119D01*
X110292966Y-112656119D02*
X110435823Y-112703738D01*
X110435823Y-112703738D02*
X110483442Y-112751357D01*
X111435823Y-113656119D02*
X110864395Y-113656119D01*
X111150109Y-113656119D02*
X111150109Y-112656119D01*
X111150109Y-112656119D02*
X111054871Y-112798976D01*
X111054871Y-112798976D02*
X110959633Y-112894214D01*
X110959633Y-112894214D02*
X110864395Y-112941833D01*
X112340585Y-112656119D02*
X111864395Y-112656119D01*
X111864395Y-112656119D02*
X111816776Y-113132309D01*
X111816776Y-113132309D02*
X111864395Y-113084690D01*
X111864395Y-113084690D02*
X111959633Y-113037071D01*
X111959633Y-113037071D02*
X112197728Y-113037071D01*
X112197728Y-113037071D02*
X112292966Y-113084690D01*
X112292966Y-113084690D02*
X112340585Y-113132309D01*
X112340585Y-113132309D02*
X112388204Y-113227547D01*
X112388204Y-113227547D02*
X112388204Y-113465642D01*
X112388204Y-113465642D02*
X112340585Y-113560880D01*
X112340585Y-113560880D02*
X112292966Y-113608500D01*
X112292966Y-113608500D02*
X112197728Y-113656119D01*
X112197728Y-113656119D02*
X111959633Y-113656119D01*
X111959633Y-113656119D02*
X111864395Y-113608500D01*
X111864395Y-113608500D02*
X111816776Y-113560880D01*
X153157142Y-117759580D02*
X153109523Y-117807200D01*
X153109523Y-117807200D02*
X152966666Y-117854819D01*
X152966666Y-117854819D02*
X152871428Y-117854819D01*
X152871428Y-117854819D02*
X152728571Y-117807200D01*
X152728571Y-117807200D02*
X152633333Y-117711961D01*
X152633333Y-117711961D02*
X152585714Y-117616723D01*
X152585714Y-117616723D02*
X152538095Y-117426247D01*
X152538095Y-117426247D02*
X152538095Y-117283390D01*
X152538095Y-117283390D02*
X152585714Y-117092914D01*
X152585714Y-117092914D02*
X152633333Y-116997676D01*
X152633333Y-116997676D02*
X152728571Y-116902438D01*
X152728571Y-116902438D02*
X152871428Y-116854819D01*
X152871428Y-116854819D02*
X152966666Y-116854819D01*
X152966666Y-116854819D02*
X153109523Y-116902438D01*
X153109523Y-116902438D02*
X153157142Y-116950057D01*
X154109523Y-117854819D02*
X153538095Y-117854819D01*
X153823809Y-117854819D02*
X153823809Y-116854819D01*
X153823809Y-116854819D02*
X153728571Y-116997676D01*
X153728571Y-116997676D02*
X153633333Y-117092914D01*
X153633333Y-117092914D02*
X153538095Y-117140533D01*
X155061904Y-117854819D02*
X154490476Y-117854819D01*
X154776190Y-117854819D02*
X154776190Y-116854819D01*
X154776190Y-116854819D02*
X154680952Y-116997676D01*
X154680952Y-116997676D02*
X154585714Y-117092914D01*
X154585714Y-117092914D02*
X154490476Y-117140533D01*
X138334969Y-131286516D02*
X137858778Y-131619849D01*
X138334969Y-131857944D02*
X137334969Y-131857944D01*
X137334969Y-131857944D02*
X137334969Y-131476992D01*
X137334969Y-131476992D02*
X137382588Y-131381754D01*
X137382588Y-131381754D02*
X137430207Y-131334135D01*
X137430207Y-131334135D02*
X137525445Y-131286516D01*
X137525445Y-131286516D02*
X137668302Y-131286516D01*
X137668302Y-131286516D02*
X137763540Y-131334135D01*
X137763540Y-131334135D02*
X137811159Y-131381754D01*
X137811159Y-131381754D02*
X137858778Y-131476992D01*
X137858778Y-131476992D02*
X137858778Y-131857944D01*
X137763540Y-130715087D02*
X137715921Y-130810325D01*
X137715921Y-130810325D02*
X137668302Y-130857944D01*
X137668302Y-130857944D02*
X137573064Y-130905563D01*
X137573064Y-130905563D02*
X137525445Y-130905563D01*
X137525445Y-130905563D02*
X137430207Y-130857944D01*
X137430207Y-130857944D02*
X137382588Y-130810325D01*
X137382588Y-130810325D02*
X137334969Y-130715087D01*
X137334969Y-130715087D02*
X137334969Y-130524611D01*
X137334969Y-130524611D02*
X137382588Y-130429373D01*
X137382588Y-130429373D02*
X137430207Y-130381754D01*
X137430207Y-130381754D02*
X137525445Y-130334135D01*
X137525445Y-130334135D02*
X137573064Y-130334135D01*
X137573064Y-130334135D02*
X137668302Y-130381754D01*
X137668302Y-130381754D02*
X137715921Y-130429373D01*
X137715921Y-130429373D02*
X137763540Y-130524611D01*
X137763540Y-130524611D02*
X137763540Y-130715087D01*
X137763540Y-130715087D02*
X137811159Y-130810325D01*
X137811159Y-130810325D02*
X137858778Y-130857944D01*
X137858778Y-130857944D02*
X137954016Y-130905563D01*
X137954016Y-130905563D02*
X138144492Y-130905563D01*
X138144492Y-130905563D02*
X138239730Y-130857944D01*
X138239730Y-130857944D02*
X138287350Y-130810325D01*
X138287350Y-130810325D02*
X138334969Y-130715087D01*
X138334969Y-130715087D02*
X138334969Y-130524611D01*
X138334969Y-130524611D02*
X138287350Y-130429373D01*
X138287350Y-130429373D02*
X138239730Y-130381754D01*
X138239730Y-130381754D02*
X138144492Y-130334135D01*
X138144492Y-130334135D02*
X137954016Y-130334135D01*
X137954016Y-130334135D02*
X137858778Y-130381754D01*
X137858778Y-130381754D02*
X137811159Y-130429373D01*
X137811159Y-130429373D02*
X137763540Y-130524611D01*
X151264792Y-107579430D02*
X151217173Y-107627050D01*
X151217173Y-107627050D02*
X151074316Y-107674669D01*
X151074316Y-107674669D02*
X150979078Y-107674669D01*
X150979078Y-107674669D02*
X150836221Y-107627050D01*
X150836221Y-107627050D02*
X150740983Y-107531811D01*
X150740983Y-107531811D02*
X150693364Y-107436573D01*
X150693364Y-107436573D02*
X150645745Y-107246097D01*
X150645745Y-107246097D02*
X150645745Y-107103240D01*
X150645745Y-107103240D02*
X150693364Y-106912764D01*
X150693364Y-106912764D02*
X150740983Y-106817526D01*
X150740983Y-106817526D02*
X150836221Y-106722288D01*
X150836221Y-106722288D02*
X150979078Y-106674669D01*
X150979078Y-106674669D02*
X151074316Y-106674669D01*
X151074316Y-106674669D02*
X151217173Y-106722288D01*
X151217173Y-106722288D02*
X151264792Y-106769907D01*
X152217173Y-107674669D02*
X151645745Y-107674669D01*
X151931459Y-107674669D02*
X151931459Y-106674669D01*
X151931459Y-106674669D02*
X151836221Y-106817526D01*
X151836221Y-106817526D02*
X151740983Y-106912764D01*
X151740983Y-106912764D02*
X151645745Y-106960383D01*
X152836221Y-106674669D02*
X152931459Y-106674669D01*
X152931459Y-106674669D02*
X153026697Y-106722288D01*
X153026697Y-106722288D02*
X153074316Y-106769907D01*
X153074316Y-106769907D02*
X153121935Y-106865145D01*
X153121935Y-106865145D02*
X153169554Y-107055621D01*
X153169554Y-107055621D02*
X153169554Y-107293716D01*
X153169554Y-107293716D02*
X153121935Y-107484192D01*
X153121935Y-107484192D02*
X153074316Y-107579430D01*
X153074316Y-107579430D02*
X153026697Y-107627050D01*
X153026697Y-107627050D02*
X152931459Y-107674669D01*
X152931459Y-107674669D02*
X152836221Y-107674669D01*
X152836221Y-107674669D02*
X152740983Y-107627050D01*
X152740983Y-107627050D02*
X152693364Y-107579430D01*
X152693364Y-107579430D02*
X152645745Y-107484192D01*
X152645745Y-107484192D02*
X152598126Y-107293716D01*
X152598126Y-107293716D02*
X152598126Y-107055621D01*
X152598126Y-107055621D02*
X152645745Y-106865145D01*
X152645745Y-106865145D02*
X152693364Y-106769907D01*
X152693364Y-106769907D02*
X152740983Y-106722288D01*
X152740983Y-106722288D02*
X152836221Y-106674669D01*
X124713483Y-123579430D02*
X124665864Y-123627050D01*
X124665864Y-123627050D02*
X124523007Y-123674669D01*
X124523007Y-123674669D02*
X124427769Y-123674669D01*
X124427769Y-123674669D02*
X124284912Y-123627050D01*
X124284912Y-123627050D02*
X124189674Y-123531811D01*
X124189674Y-123531811D02*
X124142055Y-123436573D01*
X124142055Y-123436573D02*
X124094436Y-123246097D01*
X124094436Y-123246097D02*
X124094436Y-123103240D01*
X124094436Y-123103240D02*
X124142055Y-122912764D01*
X124142055Y-122912764D02*
X124189674Y-122817526D01*
X124189674Y-122817526D02*
X124284912Y-122722288D01*
X124284912Y-122722288D02*
X124427769Y-122674669D01*
X124427769Y-122674669D02*
X124523007Y-122674669D01*
X124523007Y-122674669D02*
X124665864Y-122722288D01*
X124665864Y-122722288D02*
X124713483Y-122769907D01*
X125284912Y-123103240D02*
X125189674Y-123055621D01*
X125189674Y-123055621D02*
X125142055Y-123008002D01*
X125142055Y-123008002D02*
X125094436Y-122912764D01*
X125094436Y-122912764D02*
X125094436Y-122865145D01*
X125094436Y-122865145D02*
X125142055Y-122769907D01*
X125142055Y-122769907D02*
X125189674Y-122722288D01*
X125189674Y-122722288D02*
X125284912Y-122674669D01*
X125284912Y-122674669D02*
X125475388Y-122674669D01*
X125475388Y-122674669D02*
X125570626Y-122722288D01*
X125570626Y-122722288D02*
X125618245Y-122769907D01*
X125618245Y-122769907D02*
X125665864Y-122865145D01*
X125665864Y-122865145D02*
X125665864Y-122912764D01*
X125665864Y-122912764D02*
X125618245Y-123008002D01*
X125618245Y-123008002D02*
X125570626Y-123055621D01*
X125570626Y-123055621D02*
X125475388Y-123103240D01*
X125475388Y-123103240D02*
X125284912Y-123103240D01*
X125284912Y-123103240D02*
X125189674Y-123150859D01*
X125189674Y-123150859D02*
X125142055Y-123198478D01*
X125142055Y-123198478D02*
X125094436Y-123293716D01*
X125094436Y-123293716D02*
X125094436Y-123484192D01*
X125094436Y-123484192D02*
X125142055Y-123579430D01*
X125142055Y-123579430D02*
X125189674Y-123627050D01*
X125189674Y-123627050D02*
X125284912Y-123674669D01*
X125284912Y-123674669D02*
X125475388Y-123674669D01*
X125475388Y-123674669D02*
X125570626Y-123627050D01*
X125570626Y-123627050D02*
X125618245Y-123579430D01*
X125618245Y-123579430D02*
X125665864Y-123484192D01*
X125665864Y-123484192D02*
X125665864Y-123293716D01*
X125665864Y-123293716D02*
X125618245Y-123198478D01*
X125618245Y-123198478D02*
X125570626Y-123150859D01*
X125570626Y-123150859D02*
X125475388Y-123103240D01*
X135104969Y-131274016D02*
X134628778Y-131607349D01*
X135104969Y-131845444D02*
X134104969Y-131845444D01*
X134104969Y-131845444D02*
X134104969Y-131464492D01*
X134104969Y-131464492D02*
X134152588Y-131369254D01*
X134152588Y-131369254D02*
X134200207Y-131321635D01*
X134200207Y-131321635D02*
X134295445Y-131274016D01*
X134295445Y-131274016D02*
X134438302Y-131274016D01*
X134438302Y-131274016D02*
X134533540Y-131321635D01*
X134533540Y-131321635D02*
X134581159Y-131369254D01*
X134581159Y-131369254D02*
X134628778Y-131464492D01*
X134628778Y-131464492D02*
X134628778Y-131845444D01*
X134438302Y-130416873D02*
X135104969Y-130416873D01*
X134057350Y-130654968D02*
X134771635Y-130893063D01*
X134771635Y-130893063D02*
X134771635Y-130274016D01*
X134923569Y-103838094D02*
X133923569Y-103838094D01*
X133923569Y-103838094D02*
X133923569Y-103599999D01*
X133923569Y-103599999D02*
X133971188Y-103457142D01*
X133971188Y-103457142D02*
X134066426Y-103361904D01*
X134066426Y-103361904D02*
X134161664Y-103314285D01*
X134161664Y-103314285D02*
X134352140Y-103266666D01*
X134352140Y-103266666D02*
X134494997Y-103266666D01*
X134494997Y-103266666D02*
X134685473Y-103314285D01*
X134685473Y-103314285D02*
X134780711Y-103361904D01*
X134780711Y-103361904D02*
X134875950Y-103457142D01*
X134875950Y-103457142D02*
X134923569Y-103599999D01*
X134923569Y-103599999D02*
X134923569Y-103838094D01*
X133923569Y-102933332D02*
X133923569Y-102314285D01*
X133923569Y-102314285D02*
X134304521Y-102647618D01*
X134304521Y-102647618D02*
X134304521Y-102504761D01*
X134304521Y-102504761D02*
X134352140Y-102409523D01*
X134352140Y-102409523D02*
X134399759Y-102361904D01*
X134399759Y-102361904D02*
X134494997Y-102314285D01*
X134494997Y-102314285D02*
X134733092Y-102314285D01*
X134733092Y-102314285D02*
X134828330Y-102361904D01*
X134828330Y-102361904D02*
X134875950Y-102409523D01*
X134875950Y-102409523D02*
X134923569Y-102504761D01*
X134923569Y-102504761D02*
X134923569Y-102790475D01*
X134923569Y-102790475D02*
X134875950Y-102885713D01*
X134875950Y-102885713D02*
X134828330Y-102933332D01*
D12*
X121074318Y-123287381D02*
X119804318Y-123287381D01*
X119804318Y-123287381D02*
X119804318Y-122985000D01*
X119804318Y-122985000D02*
X119864794Y-122803571D01*
X119864794Y-122803571D02*
X119985746Y-122682619D01*
X119985746Y-122682619D02*
X120106699Y-122622142D01*
X120106699Y-122622142D02*
X120348603Y-122561666D01*
X120348603Y-122561666D02*
X120530032Y-122561666D01*
X120530032Y-122561666D02*
X120771937Y-122622142D01*
X120771937Y-122622142D02*
X120892889Y-122682619D01*
X120892889Y-122682619D02*
X121013842Y-122803571D01*
X121013842Y-122803571D02*
X121074318Y-122985000D01*
X121074318Y-122985000D02*
X121074318Y-123287381D01*
X121074318Y-121352142D02*
X121074318Y-122077857D01*
X121074318Y-121715000D02*
X119804318Y-121715000D01*
X119804318Y-121715000D02*
X119985746Y-121835952D01*
X119985746Y-121835952D02*
X120106699Y-121956904D01*
X120106699Y-121956904D02*
X120167175Y-122077857D01*
D11*
X148811904Y-136995180D02*
X148811904Y-136185657D01*
X148811904Y-136185657D02*
X148764285Y-136090419D01*
X148764285Y-136090419D02*
X148716666Y-136042800D01*
X148716666Y-136042800D02*
X148621428Y-135995180D01*
X148621428Y-135995180D02*
X148430952Y-135995180D01*
X148430952Y-135995180D02*
X148335714Y-136042800D01*
X148335714Y-136042800D02*
X148288095Y-136090419D01*
X148288095Y-136090419D02*
X148240476Y-136185657D01*
X148240476Y-136185657D02*
X148240476Y-136995180D01*
X147859523Y-136995180D02*
X147240476Y-136995180D01*
X147240476Y-136995180D02*
X147573809Y-136614228D01*
X147573809Y-136614228D02*
X147430952Y-136614228D01*
X147430952Y-136614228D02*
X147335714Y-136566609D01*
X147335714Y-136566609D02*
X147288095Y-136518990D01*
X147288095Y-136518990D02*
X147240476Y-136423752D01*
X147240476Y-136423752D02*
X147240476Y-136185657D01*
X147240476Y-136185657D02*
X147288095Y-136090419D01*
X147288095Y-136090419D02*
X147335714Y-136042800D01*
X147335714Y-136042800D02*
X147430952Y-135995180D01*
X147430952Y-135995180D02*
X147716666Y-135995180D01*
X147716666Y-135995180D02*
X147811904Y-136042800D01*
X147811904Y-136042800D02*
X147859523Y-136090419D01*
X150640800Y-136904819D02*
X150640800Y-137142914D01*
X150402705Y-137047676D02*
X150640800Y-137142914D01*
X150640800Y-137142914D02*
X150878895Y-137047676D01*
X150497943Y-137333390D02*
X150640800Y-137142914D01*
X150640800Y-137142914D02*
X150783657Y-137333390D01*
X150640799Y-137995180D02*
X150640799Y-137757085D01*
X150878894Y-137852323D02*
X150640799Y-137757085D01*
X150640799Y-137757085D02*
X150402704Y-137852323D01*
X150783656Y-137566609D02*
X150640799Y-137757085D01*
X150640799Y-137757085D02*
X150497942Y-137566609D01*
X142507142Y-130859580D02*
X142459523Y-130907200D01*
X142459523Y-130907200D02*
X142316666Y-130954819D01*
X142316666Y-130954819D02*
X142221428Y-130954819D01*
X142221428Y-130954819D02*
X142078571Y-130907200D01*
X142078571Y-130907200D02*
X141983333Y-130811961D01*
X141983333Y-130811961D02*
X141935714Y-130716723D01*
X141935714Y-130716723D02*
X141888095Y-130526247D01*
X141888095Y-130526247D02*
X141888095Y-130383390D01*
X141888095Y-130383390D02*
X141935714Y-130192914D01*
X141935714Y-130192914D02*
X141983333Y-130097676D01*
X141983333Y-130097676D02*
X142078571Y-130002438D01*
X142078571Y-130002438D02*
X142221428Y-129954819D01*
X142221428Y-129954819D02*
X142316666Y-129954819D01*
X142316666Y-129954819D02*
X142459523Y-130002438D01*
X142459523Y-130002438D02*
X142507142Y-130050057D01*
X143459523Y-130954819D02*
X142888095Y-130954819D01*
X143173809Y-130954819D02*
X143173809Y-129954819D01*
X143173809Y-129954819D02*
X143078571Y-130097676D01*
X143078571Y-130097676D02*
X142983333Y-130192914D01*
X142983333Y-130192914D02*
X142888095Y-130240533D01*
X144316666Y-130288152D02*
X144316666Y-130954819D01*
X144078571Y-129907200D02*
X143840476Y-130621485D01*
X143840476Y-130621485D02*
X144459523Y-130621485D01*
X130284969Y-127836516D02*
X129808778Y-128169849D01*
X130284969Y-128407944D02*
X129284969Y-128407944D01*
X129284969Y-128407944D02*
X129284969Y-128026992D01*
X129284969Y-128026992D02*
X129332588Y-127931754D01*
X129332588Y-127931754D02*
X129380207Y-127884135D01*
X129380207Y-127884135D02*
X129475445Y-127836516D01*
X129475445Y-127836516D02*
X129618302Y-127836516D01*
X129618302Y-127836516D02*
X129713540Y-127884135D01*
X129713540Y-127884135D02*
X129761159Y-127931754D01*
X129761159Y-127931754D02*
X129808778Y-128026992D01*
X129808778Y-128026992D02*
X129808778Y-128407944D01*
X129284969Y-126931754D02*
X129284969Y-127407944D01*
X129284969Y-127407944D02*
X129761159Y-127455563D01*
X129761159Y-127455563D02*
X129713540Y-127407944D01*
X129713540Y-127407944D02*
X129665921Y-127312706D01*
X129665921Y-127312706D02*
X129665921Y-127074611D01*
X129665921Y-127074611D02*
X129713540Y-126979373D01*
X129713540Y-126979373D02*
X129761159Y-126931754D01*
X129761159Y-126931754D02*
X129856397Y-126884135D01*
X129856397Y-126884135D02*
X130094492Y-126884135D01*
X130094492Y-126884135D02*
X130189730Y-126931754D01*
X130189730Y-126931754D02*
X130237350Y-126979373D01*
X130237350Y-126979373D02*
X130284969Y-127074611D01*
X130284969Y-127074611D02*
X130284969Y-127312706D01*
X130284969Y-127312706D02*
X130237350Y-127407944D01*
X130237350Y-127407944D02*
X130189730Y-127455563D01*
X132439730Y-112536516D02*
X132487350Y-112584135D01*
X132487350Y-112584135D02*
X132534969Y-112726992D01*
X132534969Y-112726992D02*
X132534969Y-112822230D01*
X132534969Y-112822230D02*
X132487350Y-112965087D01*
X132487350Y-112965087D02*
X132392111Y-113060325D01*
X132392111Y-113060325D02*
X132296873Y-113107944D01*
X132296873Y-113107944D02*
X132106397Y-113155563D01*
X132106397Y-113155563D02*
X131963540Y-113155563D01*
X131963540Y-113155563D02*
X131773064Y-113107944D01*
X131773064Y-113107944D02*
X131677826Y-113060325D01*
X131677826Y-113060325D02*
X131582588Y-112965087D01*
X131582588Y-112965087D02*
X131534969Y-112822230D01*
X131534969Y-112822230D02*
X131534969Y-112726992D01*
X131534969Y-112726992D02*
X131582588Y-112584135D01*
X131582588Y-112584135D02*
X131630207Y-112536516D01*
X131868302Y-111679373D02*
X132534969Y-111679373D01*
X131487350Y-111917468D02*
X132201635Y-112155563D01*
X132201635Y-112155563D02*
X132201635Y-111536516D01*
X133504969Y-135186516D02*
X133028778Y-135519849D01*
X133504969Y-135757944D02*
X132504969Y-135757944D01*
X132504969Y-135757944D02*
X132504969Y-135376992D01*
X132504969Y-135376992D02*
X132552588Y-135281754D01*
X132552588Y-135281754D02*
X132600207Y-135234135D01*
X132600207Y-135234135D02*
X132695445Y-135186516D01*
X132695445Y-135186516D02*
X132838302Y-135186516D01*
X132838302Y-135186516D02*
X132933540Y-135234135D01*
X132933540Y-135234135D02*
X132981159Y-135281754D01*
X132981159Y-135281754D02*
X133028778Y-135376992D01*
X133028778Y-135376992D02*
X133028778Y-135757944D01*
X132504969Y-134853182D02*
X132504969Y-134234135D01*
X132504969Y-134234135D02*
X132885921Y-134567468D01*
X132885921Y-134567468D02*
X132885921Y-134424611D01*
X132885921Y-134424611D02*
X132933540Y-134329373D01*
X132933540Y-134329373D02*
X132981159Y-134281754D01*
X132981159Y-134281754D02*
X133076397Y-134234135D01*
X133076397Y-134234135D02*
X133314492Y-134234135D01*
X133314492Y-134234135D02*
X133409730Y-134281754D01*
X133409730Y-134281754D02*
X133457350Y-134329373D01*
X133457350Y-134329373D02*
X133504969Y-134424611D01*
X133504969Y-134424611D02*
X133504969Y-134710325D01*
X133504969Y-134710325D02*
X133457350Y-134805563D01*
X133457350Y-134805563D02*
X133409730Y-134853182D01*
X127697880Y-103855355D02*
X127745500Y-103902974D01*
X127745500Y-103902974D02*
X127793119Y-104045831D01*
X127793119Y-104045831D02*
X127793119Y-104141069D01*
X127793119Y-104141069D02*
X127745500Y-104283926D01*
X127745500Y-104283926D02*
X127650261Y-104379164D01*
X127650261Y-104379164D02*
X127555023Y-104426783D01*
X127555023Y-104426783D02*
X127364547Y-104474402D01*
X127364547Y-104474402D02*
X127221690Y-104474402D01*
X127221690Y-104474402D02*
X127031214Y-104426783D01*
X127031214Y-104426783D02*
X126935976Y-104379164D01*
X126935976Y-104379164D02*
X126840738Y-104283926D01*
X126840738Y-104283926D02*
X126793119Y-104141069D01*
X126793119Y-104141069D02*
X126793119Y-104045831D01*
X126793119Y-104045831D02*
X126840738Y-103902974D01*
X126840738Y-103902974D02*
X126888357Y-103855355D01*
X126888357Y-103474402D02*
X126840738Y-103426783D01*
X126840738Y-103426783D02*
X126793119Y-103331545D01*
X126793119Y-103331545D02*
X126793119Y-103093450D01*
X126793119Y-103093450D02*
X126840738Y-102998212D01*
X126840738Y-102998212D02*
X126888357Y-102950593D01*
X126888357Y-102950593D02*
X126983595Y-102902974D01*
X126983595Y-102902974D02*
X127078833Y-102902974D01*
X127078833Y-102902974D02*
X127221690Y-102950593D01*
X127221690Y-102950593D02*
X127793119Y-103522021D01*
X127793119Y-103522021D02*
X127793119Y-102902974D01*
X127793119Y-101950593D02*
X127793119Y-102522021D01*
X127793119Y-102236307D02*
X126793119Y-102236307D01*
X126793119Y-102236307D02*
X126935976Y-102331545D01*
X126935976Y-102331545D02*
X127031214Y-102426783D01*
X127031214Y-102426783D02*
X127078833Y-102522021D01*
X126592245Y-98004818D02*
X126592245Y-98814341D01*
X126592245Y-98814341D02*
X126639864Y-98909579D01*
X126639864Y-98909579D02*
X126687483Y-98957199D01*
X126687483Y-98957199D02*
X126782721Y-99004818D01*
X126782721Y-99004818D02*
X126973197Y-99004818D01*
X126973197Y-99004818D02*
X127068435Y-98957199D01*
X127068435Y-98957199D02*
X127116054Y-98909579D01*
X127116054Y-98909579D02*
X127163673Y-98814341D01*
X127163673Y-98814341D02*
X127163673Y-98004818D01*
X128116054Y-98004818D02*
X127639864Y-98004818D01*
X127639864Y-98004818D02*
X127592245Y-98481008D01*
X127592245Y-98481008D02*
X127639864Y-98433389D01*
X127639864Y-98433389D02*
X127735102Y-98385770D01*
X127735102Y-98385770D02*
X127973197Y-98385770D01*
X127973197Y-98385770D02*
X128068435Y-98433389D01*
X128068435Y-98433389D02*
X128116054Y-98481008D01*
X128116054Y-98481008D02*
X128163673Y-98576246D01*
X128163673Y-98576246D02*
X128163673Y-98814341D01*
X128163673Y-98814341D02*
X128116054Y-98909579D01*
X128116054Y-98909579D02*
X128068435Y-98957199D01*
X128068435Y-98957199D02*
X127973197Y-99004818D01*
X127973197Y-99004818D02*
X127735102Y-99004818D01*
X127735102Y-99004818D02*
X127639864Y-98957199D01*
X127639864Y-98957199D02*
X127592245Y-98909579D01*
X125450000Y-95754819D02*
X125450000Y-95992914D01*
X125211905Y-95897676D02*
X125450000Y-95992914D01*
X125450000Y-95992914D02*
X125688095Y-95897676D01*
X125307143Y-96183390D02*
X125450000Y-95992914D01*
X125450000Y-95992914D02*
X125592857Y-96183390D01*
X117354819Y-108216666D02*
X117354819Y-108692856D01*
X117354819Y-108692856D02*
X116354819Y-108692856D01*
X117354819Y-107359523D02*
X117354819Y-107930951D01*
X117354819Y-107645237D02*
X116354819Y-107645237D01*
X116354819Y-107645237D02*
X116497676Y-107740475D01*
X116497676Y-107740475D02*
X116592914Y-107835713D01*
X116592914Y-107835713D02*
X116640533Y-107930951D01*
X116354819Y-112063199D02*
X116592914Y-112063199D01*
X116497676Y-112301294D02*
X116592914Y-112063199D01*
X116592914Y-112063199D02*
X116497676Y-111825104D01*
X116783390Y-112206056D02*
X116592914Y-112063199D01*
X116592914Y-112063199D02*
X116783390Y-111920342D01*
X116354819Y-112063199D02*
X116592914Y-112063199D01*
X116497676Y-112301294D02*
X116592914Y-112063199D01*
X116592914Y-112063199D02*
X116497676Y-111825104D01*
X116783390Y-112206056D02*
X116592914Y-112063199D01*
X116592914Y-112063199D02*
X116783390Y-111920342D01*
X143750983Y-112279430D02*
X143703364Y-112327050D01*
X143703364Y-112327050D02*
X143560507Y-112374669D01*
X143560507Y-112374669D02*
X143465269Y-112374669D01*
X143465269Y-112374669D02*
X143322412Y-112327050D01*
X143322412Y-112327050D02*
X143227174Y-112231811D01*
X143227174Y-112231811D02*
X143179555Y-112136573D01*
X143179555Y-112136573D02*
X143131936Y-111946097D01*
X143131936Y-111946097D02*
X143131936Y-111803240D01*
X143131936Y-111803240D02*
X143179555Y-111612764D01*
X143179555Y-111612764D02*
X143227174Y-111517526D01*
X143227174Y-111517526D02*
X143322412Y-111422288D01*
X143322412Y-111422288D02*
X143465269Y-111374669D01*
X143465269Y-111374669D02*
X143560507Y-111374669D01*
X143560507Y-111374669D02*
X143703364Y-111422288D01*
X143703364Y-111422288D02*
X143750983Y-111469907D01*
X144608126Y-111374669D02*
X144417650Y-111374669D01*
X144417650Y-111374669D02*
X144322412Y-111422288D01*
X144322412Y-111422288D02*
X144274793Y-111469907D01*
X144274793Y-111469907D02*
X144179555Y-111612764D01*
X144179555Y-111612764D02*
X144131936Y-111803240D01*
X144131936Y-111803240D02*
X144131936Y-112184192D01*
X144131936Y-112184192D02*
X144179555Y-112279430D01*
X144179555Y-112279430D02*
X144227174Y-112327050D01*
X144227174Y-112327050D02*
X144322412Y-112374669D01*
X144322412Y-112374669D02*
X144512888Y-112374669D01*
X144512888Y-112374669D02*
X144608126Y-112327050D01*
X144608126Y-112327050D02*
X144655745Y-112279430D01*
X144655745Y-112279430D02*
X144703364Y-112184192D01*
X144703364Y-112184192D02*
X144703364Y-111946097D01*
X144703364Y-111946097D02*
X144655745Y-111850859D01*
X144655745Y-111850859D02*
X144608126Y-111803240D01*
X144608126Y-111803240D02*
X144512888Y-111755621D01*
X144512888Y-111755621D02*
X144322412Y-111755621D01*
X144322412Y-111755621D02*
X144227174Y-111803240D01*
X144227174Y-111803240D02*
X144179555Y-111850859D01*
X144179555Y-111850859D02*
X144131936Y-111946097D01*
X130659730Y-115862707D02*
X130707350Y-115910326D01*
X130707350Y-115910326D02*
X130754969Y-116053183D01*
X130754969Y-116053183D02*
X130754969Y-116148421D01*
X130754969Y-116148421D02*
X130707350Y-116291278D01*
X130707350Y-116291278D02*
X130612111Y-116386516D01*
X130612111Y-116386516D02*
X130516873Y-116434135D01*
X130516873Y-116434135D02*
X130326397Y-116481754D01*
X130326397Y-116481754D02*
X130183540Y-116481754D01*
X130183540Y-116481754D02*
X129993064Y-116434135D01*
X129993064Y-116434135D02*
X129897826Y-116386516D01*
X129897826Y-116386516D02*
X129802588Y-116291278D01*
X129802588Y-116291278D02*
X129754969Y-116148421D01*
X129754969Y-116148421D02*
X129754969Y-116053183D01*
X129754969Y-116053183D02*
X129802588Y-115910326D01*
X129802588Y-115910326D02*
X129850207Y-115862707D01*
X129850207Y-115481754D02*
X129802588Y-115434135D01*
X129802588Y-115434135D02*
X129754969Y-115338897D01*
X129754969Y-115338897D02*
X129754969Y-115100802D01*
X129754969Y-115100802D02*
X129802588Y-115005564D01*
X129802588Y-115005564D02*
X129850207Y-114957945D01*
X129850207Y-114957945D02*
X129945445Y-114910326D01*
X129945445Y-114910326D02*
X130040683Y-114910326D01*
X130040683Y-114910326D02*
X130183540Y-114957945D01*
X130183540Y-114957945D02*
X130754969Y-115529373D01*
X130754969Y-115529373D02*
X130754969Y-114910326D01*
X129850207Y-114529373D02*
X129802588Y-114481754D01*
X129802588Y-114481754D02*
X129754969Y-114386516D01*
X129754969Y-114386516D02*
X129754969Y-114148421D01*
X129754969Y-114148421D02*
X129802588Y-114053183D01*
X129802588Y-114053183D02*
X129850207Y-114005564D01*
X129850207Y-114005564D02*
X129945445Y-113957945D01*
X129945445Y-113957945D02*
X130040683Y-113957945D01*
X130040683Y-113957945D02*
X130183540Y-114005564D01*
X130183540Y-114005564D02*
X130754969Y-114576992D01*
X130754969Y-114576992D02*
X130754969Y-113957945D01*
X126692857Y-109267080D02*
X127026190Y-109743271D01*
X127264285Y-109267080D02*
X127264285Y-110267080D01*
X127264285Y-110267080D02*
X126883333Y-110267080D01*
X126883333Y-110267080D02*
X126788095Y-110219461D01*
X126788095Y-110219461D02*
X126740476Y-110171842D01*
X126740476Y-110171842D02*
X126692857Y-110076604D01*
X126692857Y-110076604D02*
X126692857Y-109933747D01*
X126692857Y-109933747D02*
X126740476Y-109838509D01*
X126740476Y-109838509D02*
X126788095Y-109790890D01*
X126788095Y-109790890D02*
X126883333Y-109743271D01*
X126883333Y-109743271D02*
X127264285Y-109743271D01*
X125740476Y-109267080D02*
X126311904Y-109267080D01*
X126026190Y-109267080D02*
X126026190Y-110267080D01*
X126026190Y-110267080D02*
X126121428Y-110124223D01*
X126121428Y-110124223D02*
X126216666Y-110028985D01*
X126216666Y-110028985D02*
X126311904Y-109981366D01*
X124883333Y-110267080D02*
X125073809Y-110267080D01*
X125073809Y-110267080D02*
X125169047Y-110219461D01*
X125169047Y-110219461D02*
X125216666Y-110171842D01*
X125216666Y-110171842D02*
X125311904Y-110028985D01*
X125311904Y-110028985D02*
X125359523Y-109838509D01*
X125359523Y-109838509D02*
X125359523Y-109457557D01*
X125359523Y-109457557D02*
X125311904Y-109362319D01*
X125311904Y-109362319D02*
X125264285Y-109314700D01*
X125264285Y-109314700D02*
X125169047Y-109267080D01*
X125169047Y-109267080D02*
X124978571Y-109267080D01*
X124978571Y-109267080D02*
X124883333Y-109314700D01*
X124883333Y-109314700D02*
X124835714Y-109362319D01*
X124835714Y-109362319D02*
X124788095Y-109457557D01*
X124788095Y-109457557D02*
X124788095Y-109695652D01*
X124788095Y-109695652D02*
X124835714Y-109790890D01*
X124835714Y-109790890D02*
X124883333Y-109838509D01*
X124883333Y-109838509D02*
X124978571Y-109886128D01*
X124978571Y-109886128D02*
X125169047Y-109886128D01*
X125169047Y-109886128D02*
X125264285Y-109838509D01*
X125264285Y-109838509D02*
X125311904Y-109790890D01*
X125311904Y-109790890D02*
X125359523Y-109695652D01*
%TO.C,C3*%
D13*
X127766665Y-115440000D02*
X127998335Y-115440000D01*
X127766665Y-116160000D02*
X127998335Y-116160000D01*
%TO.C,C2*%
X123101665Y-119490000D02*
X123333335Y-119490000D01*
X123101665Y-120210000D02*
X123333335Y-120210000D01*
%TO.C,Y1*%
D14*
X126680000Y-119850000D02*
X127220000Y-119850000D01*
X127220000Y-117350000D02*
X126680000Y-117350000D01*
D15*
X129400000Y-117630000D02*
G75*
G02*
X129200000Y-117630000I-100000J0D01*
G01*
X129200000Y-117630000D02*
G75*
G02*
X129400000Y-117630000I100000J0D01*
G01*
%TO.C,U1*%
D14*
X133030150Y-117719850D02*
X133030150Y-118249850D01*
X133030150Y-124389850D02*
X133030150Y-124919850D01*
X133030150Y-124919850D02*
X133560150Y-124919850D01*
X133560150Y-117719850D02*
X133030150Y-117719850D01*
X139700150Y-124919850D02*
X140230150Y-124919850D01*
X140230150Y-117719850D02*
X139700150Y-117719850D01*
X140230150Y-118249850D02*
X140230150Y-117719850D01*
X140230150Y-124919850D02*
X140230150Y-124389850D01*
D15*
X131130150Y-118119850D02*
G75*
G02*
X130930150Y-118119850I-100000J0D01*
G01*
X130930150Y-118119850D02*
G75*
G02*
X131130150Y-118119850I100000J0D01*
G01*
%TO.C,R7*%
D13*
X137107650Y-134952626D02*
X137107650Y-135462074D01*
X138152650Y-134952626D02*
X138152650Y-135462074D01*
%TO.C,TP2*%
X120950000Y-97600000D02*
G75*
G02*
X117550000Y-97600000I-1700000J0D01*
G01*
X117550000Y-97600000D02*
G75*
G02*
X120950000Y-97600000I1700000J0D01*
G01*
%TO.C,C18*%
X107553800Y-101862552D02*
X107553800Y-100440048D01*
X109373800Y-101862552D02*
X109373800Y-100440048D01*
%TO.C,R12*%
X133940000Y-109027064D02*
X133940000Y-107572936D01*
X135760000Y-109027064D02*
X135760000Y-107572936D01*
%TO.C,C23*%
X142733883Y-125509850D02*
X143026417Y-125509850D01*
X142733883Y-126529850D02*
X143026417Y-126529850D01*
%TO.C,R15*%
X120731236Y-101239998D02*
X122185364Y-101239998D01*
X120731236Y-103059998D02*
X122185364Y-103059998D01*
%TO.C,J1*%
X147015300Y-103220000D02*
X147015300Y-103855000D01*
X147015300Y-103855000D02*
X146380300Y-103855000D01*
%TO.C,R11*%
X137507650Y-112374574D02*
X137507650Y-111865126D01*
X138552650Y-112374574D02*
X138552650Y-111865126D01*
%TO.C,R13*%
X152890000Y-132722936D02*
X152890000Y-134177064D01*
X154710000Y-132722936D02*
X154710000Y-134177064D01*
%TO.C,U2*%
D16*
X122200150Y-127866650D02*
X122200150Y-136223250D01*
X122200150Y-136223250D02*
X122921510Y-136223250D01*
X122921510Y-127866650D02*
X122200150Y-127866650D01*
X127828790Y-136223250D02*
X128550150Y-136223250D01*
X128550150Y-127866650D02*
X127828790Y-127866650D01*
X128550150Y-136223250D02*
X128550150Y-127866650D01*
X127381750Y-126266450D02*
G75*
G02*
X127178550Y-126266450I-101600J0D01*
G01*
X127178550Y-126266450D02*
G75*
G02*
X127381750Y-126266450I101600J0D01*
G01*
%TO.C,R10*%
D13*
X145322374Y-118597350D02*
X144812926Y-118597350D01*
X145322374Y-119642350D02*
X144812926Y-119642350D01*
%TO.C,R6*%
X132407650Y-131287074D02*
X132407650Y-130777626D01*
X133452650Y-131287074D02*
X133452650Y-130777626D01*
%TO.C,C12*%
X104320000Y-120977677D02*
X114480000Y-120977677D01*
X104320000Y-121017677D02*
X114480000Y-121017677D01*
X104321000Y-120897677D02*
X114479000Y-120897677D01*
X104321000Y-120937677D02*
X114479000Y-120937677D01*
X104323000Y-120857677D02*
X114477000Y-120857677D01*
X104324000Y-120817677D02*
X114476000Y-120817677D01*
X104326000Y-120777677D02*
X114474000Y-120777677D01*
X104328000Y-120737677D02*
X114472000Y-120737677D01*
X104330000Y-120697677D02*
X114470000Y-120697677D01*
X104333000Y-120657677D02*
X114467000Y-120657677D01*
X104336000Y-120617677D02*
X114464000Y-120617677D01*
X104339000Y-120577677D02*
X114461000Y-120577677D01*
X104343000Y-120537677D02*
X114457000Y-120537677D01*
X104346000Y-120497677D02*
X114454000Y-120497677D01*
X104351000Y-120457677D02*
X114449000Y-120457677D01*
X104355000Y-120417677D02*
X114445000Y-120417677D01*
X104360000Y-120377677D02*
X114440000Y-120377677D01*
X104365000Y-120337677D02*
X114435000Y-120337677D01*
X104371000Y-120297677D02*
X114429000Y-120297677D01*
X104377000Y-120257677D02*
X114423000Y-120257677D01*
X104383000Y-120217677D02*
X114417000Y-120217677D01*
X104389000Y-120177677D02*
X114411000Y-120177677D01*
X104396000Y-120137677D02*
X114404000Y-120137677D01*
X104403000Y-120097677D02*
X114397000Y-120097677D01*
X104411000Y-120057677D02*
X114389000Y-120057677D01*
X104419000Y-120017677D02*
X114381000Y-120017677D01*
X104427000Y-119977677D02*
X114373000Y-119977677D01*
X104435000Y-119937677D02*
X114365000Y-119937677D01*
X104444000Y-119897677D02*
X114356000Y-119897677D01*
X104453000Y-119857677D02*
X114347000Y-119857677D01*
X104463000Y-119817677D02*
X114337000Y-119817677D01*
X104472000Y-119777677D02*
X114328000Y-119777677D01*
X104483000Y-119737677D02*
X108160000Y-119737677D01*
X104493000Y-119697677D02*
X108160000Y-119697677D01*
X104504000Y-119657677D02*
X108160000Y-119657677D01*
X104515000Y-119617677D02*
X108160000Y-119617677D01*
X104527000Y-119577677D02*
X108160000Y-119577677D01*
X104539000Y-119537677D02*
X108160000Y-119537677D01*
X104551000Y-119497677D02*
X108160000Y-119497677D01*
X104563000Y-119457677D02*
X108160000Y-119457677D01*
X104576000Y-119417677D02*
X108160000Y-119417677D01*
X104590000Y-119377677D02*
X108160000Y-119377677D01*
X104603000Y-119337677D02*
X108160000Y-119337677D01*
X104618000Y-119297677D02*
X108160000Y-119297677D01*
X104632000Y-119257677D02*
X108160000Y-119257677D01*
X104647000Y-119217677D02*
X108160000Y-119217677D01*
X104662000Y-119177677D02*
X108160000Y-119177677D01*
X104678000Y-119137677D02*
X108160000Y-119137677D01*
X104694000Y-119097677D02*
X108160000Y-119097677D01*
X104710000Y-119057677D02*
X108160000Y-119057677D01*
X104727000Y-119017677D02*
X108160000Y-119017677D01*
X104744000Y-118977677D02*
X108160000Y-118977677D01*
X104762000Y-118937677D02*
X108160000Y-118937677D01*
X104780000Y-118897677D02*
X108160000Y-118897677D01*
X104798000Y-118857677D02*
X108160000Y-118857677D01*
X104817000Y-118817677D02*
X108160000Y-118817677D01*
X104836000Y-118777677D02*
X108160000Y-118777677D01*
X104856000Y-118737677D02*
X108160000Y-118737677D01*
X104876000Y-118697677D02*
X108160000Y-118697677D01*
X104896000Y-118657677D02*
X108160000Y-118657677D01*
X104917000Y-118617677D02*
X108160000Y-118617677D01*
X104939000Y-118577677D02*
X108160000Y-118577677D01*
X104961000Y-118537677D02*
X108160000Y-118537677D01*
X104983000Y-118497677D02*
X108160000Y-118497677D01*
X105006000Y-118457677D02*
X108160000Y-118457677D01*
X105029000Y-118417677D02*
X108160000Y-118417677D01*
X105053000Y-118377677D02*
X108160000Y-118377677D01*
X105077000Y-118337677D02*
X108160000Y-118337677D01*
X105102000Y-118297677D02*
X108160000Y-118297677D01*
X105128000Y-118257677D02*
X108160000Y-118257677D01*
X105153000Y-118217677D02*
X108160000Y-118217677D01*
X105180000Y-118177677D02*
X108160000Y-118177677D01*
X105207000Y-118137677D02*
X108160000Y-118137677D01*
X105234000Y-118097677D02*
X108160000Y-118097677D01*
X105262000Y-118057677D02*
X108160000Y-118057677D01*
X105291000Y-118017677D02*
X108160000Y-118017677D01*
X105320000Y-117977677D02*
X108160000Y-117977677D01*
X105350000Y-117937677D02*
X108160000Y-117937677D01*
X105380000Y-117897677D02*
X108160000Y-117897677D01*
X105412000Y-117857677D02*
X108160000Y-117857677D01*
X105443000Y-117817677D02*
X108160000Y-117817677D01*
X105476000Y-117777677D02*
X108160000Y-117777677D01*
X105509000Y-117737677D02*
X108160000Y-117737677D01*
X105542000Y-117697677D02*
X108160000Y-117697677D01*
X105577000Y-117657677D02*
X108160000Y-117657677D01*
X105612000Y-117617677D02*
X108160000Y-117617677D01*
X105648000Y-117577677D02*
X108160000Y-117577677D01*
X105684000Y-117537677D02*
X108160000Y-117537677D01*
X105722000Y-117497677D02*
X108160000Y-117497677D01*
X105760000Y-117457677D02*
X108160000Y-117457677D01*
X105799000Y-117417677D02*
X108160000Y-117417677D01*
X105839000Y-117377677D02*
X108160000Y-117377677D01*
X105880000Y-117337677D02*
X108160000Y-117337677D01*
X105922000Y-117297677D02*
X108160000Y-117297677D01*
X105965000Y-117257677D02*
X112835000Y-117257677D01*
X106009000Y-117217677D02*
X112791000Y-117217677D01*
X106025000Y-125997323D02*
X107025000Y-125997323D01*
X106053000Y-117177677D02*
X112747000Y-117177677D01*
X106099000Y-117137677D02*
X112701000Y-117137677D01*
X106146000Y-117097677D02*
X112654000Y-117097677D01*
X106195000Y-117057677D02*
X112605000Y-117057677D01*
X106244000Y-117017677D02*
X112556000Y-117017677D01*
X106295000Y-116977677D02*
X112505000Y-116977677D01*
X106347000Y-116937677D02*
X112453000Y-116937677D01*
X106400000Y-116897677D02*
X112400000Y-116897677D01*
X106455000Y-116857677D02*
X112345000Y-116857677D01*
X106512000Y-116817677D02*
X112288000Y-116817677D01*
X106525000Y-126497323D02*
X106525000Y-125497323D01*
X106570000Y-116777677D02*
X112230000Y-116777677D01*
X106630000Y-116737677D02*
X112170000Y-116737677D01*
X106692000Y-116697677D02*
X112108000Y-116697677D01*
X106756000Y-116657677D02*
X112044000Y-116657677D01*
X106822000Y-116617677D02*
X111978000Y-116617677D01*
X106890000Y-116577677D02*
X111910000Y-116577677D01*
X106961000Y-116537677D02*
X111839000Y-116537677D01*
X107035000Y-116497677D02*
X111765000Y-116497677D01*
X107112000Y-116457677D02*
X111688000Y-116457677D01*
X107192000Y-116417677D02*
X111608000Y-116417677D01*
X107276000Y-116377677D02*
X111524000Y-116377677D01*
X107363000Y-116337677D02*
X111437000Y-116337677D01*
X107456000Y-116297677D02*
X111344000Y-116297677D01*
X107554000Y-116257677D02*
X111246000Y-116257677D01*
X107658000Y-116217677D02*
X111142000Y-116217677D01*
X107770000Y-116177677D02*
X111030000Y-116177677D01*
X107891000Y-116137677D02*
X110909000Y-116137677D01*
X108023000Y-116097677D02*
X110777000Y-116097677D01*
X108170000Y-116057677D02*
X110630000Y-116057677D01*
X108338000Y-116017677D02*
X110462000Y-116017677D01*
X108538000Y-115977677D02*
X110262000Y-115977677D01*
X108801000Y-115937677D02*
X109999000Y-115937677D01*
X110640000Y-117297677D02*
X112878000Y-117297677D01*
X110640000Y-117337677D02*
X112920000Y-117337677D01*
X110640000Y-117377677D02*
X112961000Y-117377677D01*
X110640000Y-117417677D02*
X113001000Y-117417677D01*
X110640000Y-117457677D02*
X113040000Y-117457677D01*
X110640000Y-117497677D02*
X113078000Y-117497677D01*
X110640000Y-117537677D02*
X113116000Y-117537677D01*
X110640000Y-117577677D02*
X113152000Y-117577677D01*
X110640000Y-117617677D02*
X113188000Y-117617677D01*
X110640000Y-117657677D02*
X113223000Y-117657677D01*
X110640000Y-117697677D02*
X113258000Y-117697677D01*
X110640000Y-117737677D02*
X113291000Y-117737677D01*
X110640000Y-117777677D02*
X113324000Y-117777677D01*
X110640000Y-117817677D02*
X113357000Y-117817677D01*
X110640000Y-117857677D02*
X113388000Y-117857677D01*
X110640000Y-117897677D02*
X113420000Y-117897677D01*
X110640000Y-117937677D02*
X113450000Y-117937677D01*
X110640000Y-117977677D02*
X113480000Y-117977677D01*
X110640000Y-118017677D02*
X113509000Y-118017677D01*
X110640000Y-118057677D02*
X113538000Y-118057677D01*
X110640000Y-118097677D02*
X113566000Y-118097677D01*
X110640000Y-118137677D02*
X113593000Y-118137677D01*
X110640000Y-118177677D02*
X113620000Y-118177677D01*
X110640000Y-118217677D02*
X113647000Y-118217677D01*
X110640000Y-118257677D02*
X113672000Y-118257677D01*
X110640000Y-118297677D02*
X113698000Y-118297677D01*
X110640000Y-118337677D02*
X113723000Y-118337677D01*
X110640000Y-118377677D02*
X113747000Y-118377677D01*
X110640000Y-118417677D02*
X113771000Y-118417677D01*
X110640000Y-118457677D02*
X113794000Y-118457677D01*
X110640000Y-118497677D02*
X113817000Y-118497677D01*
X110640000Y-118537677D02*
X113839000Y-118537677D01*
X110640000Y-118577677D02*
X113861000Y-118577677D01*
X110640000Y-118617677D02*
X113883000Y-118617677D01*
X110640000Y-118657677D02*
X113904000Y-118657677D01*
X110640000Y-118697677D02*
X113924000Y-118697677D01*
X110640000Y-118737677D02*
X113944000Y-118737677D01*
X110640000Y-118777677D02*
X113964000Y-118777677D01*
X110640000Y-118817677D02*
X113983000Y-118817677D01*
X110640000Y-118857677D02*
X114002000Y-118857677D01*
X110640000Y-118897677D02*
X114020000Y-118897677D01*
X110640000Y-118937677D02*
X114038000Y-118937677D01*
X110640000Y-118977677D02*
X114056000Y-118977677D01*
X110640000Y-119017677D02*
X114073000Y-119017677D01*
X110640000Y-119057677D02*
X114090000Y-119057677D01*
X110640000Y-119097677D02*
X114106000Y-119097677D01*
X110640000Y-119137677D02*
X114122000Y-119137677D01*
X110640000Y-119177677D02*
X114138000Y-119177677D01*
X110640000Y-119217677D02*
X114153000Y-119217677D01*
X110640000Y-119257677D02*
X114168000Y-119257677D01*
X110640000Y-119297677D02*
X114182000Y-119297677D01*
X110640000Y-119337677D02*
X114197000Y-119337677D01*
X110640000Y-119377677D02*
X114210000Y-119377677D01*
X110640000Y-119417677D02*
X114224000Y-119417677D01*
X110640000Y-119457677D02*
X114237000Y-119457677D01*
X110640000Y-119497677D02*
X114249000Y-119497677D01*
X110640000Y-119537677D02*
X114261000Y-119537677D01*
X110640000Y-119577677D02*
X114273000Y-119577677D01*
X110640000Y-119617677D02*
X114285000Y-119617677D01*
X110640000Y-119657677D02*
X114296000Y-119657677D01*
X110640000Y-119697677D02*
X114307000Y-119697677D01*
X110640000Y-119737677D02*
X114317000Y-119737677D01*
X114520000Y-121017677D02*
G75*
G02*
X104280000Y-121017677I-5120000J0D01*
G01*
X104280000Y-121017677D02*
G75*
G02*
X114520000Y-121017677I5120000J0D01*
G01*
%TO.C,C5*%
X142983883Y-115709850D02*
X143276417Y-115709850D01*
X142983883Y-116729850D02*
X143276417Y-116729850D01*
%TO.C,C13*%
X143946267Y-133990000D02*
X143653733Y-133990000D01*
X143946267Y-135010000D02*
X143653733Y-135010000D01*
%TO.C,U4*%
D16*
X107788200Y-106085900D02*
X107788200Y-108041700D01*
X111039400Y-108041700D02*
X111039400Y-106085900D01*
%TO.C,TP4*%
D13*
X155250000Y-114300000D02*
G75*
G02*
X152250000Y-114300000I-1500000J0D01*
G01*
X152250000Y-114300000D02*
G75*
G02*
X155250000Y-114300000I1500000J0D01*
G01*
%TO.C,S1*%
D15*
X148900000Y-124350000D02*
X148900000Y-127550000D01*
X151950000Y-123700000D02*
X150350000Y-123700000D01*
X151950000Y-128200000D02*
X150350000Y-128200000D01*
D10*
X152750000Y-122050000D02*
X152750000Y-122050000D01*
X152750000Y-122150000D02*
X152750000Y-122150000D01*
D15*
X153400000Y-124350000D02*
X153400000Y-127550000D01*
D10*
X152750000Y-122050000D02*
G75*
G02*
X152750000Y-122150000I0J-50000D01*
G01*
X152750000Y-122150000D02*
G75*
G02*
X152750000Y-122050000I0J50000D01*
G01*
%TO.C,C19*%
D13*
X122698300Y-97466231D02*
X122698300Y-97758765D01*
X123718300Y-97466231D02*
X123718300Y-97758765D01*
%TO.C,TP1*%
X121500000Y-137500000D02*
G75*
G02*
X118100000Y-137500000I-1700000J0D01*
G01*
X118100000Y-137500000D02*
G75*
G02*
X121500000Y-137500000I1700000J0D01*
G01*
%TO.C,C16*%
X112576248Y-100740000D02*
X113998752Y-100740000D01*
X112576248Y-102560000D02*
X113998752Y-102560000D01*
%TO.C,R14*%
X142922936Y-127790000D02*
X144377064Y-127790000D01*
X142922936Y-129610000D02*
X144377064Y-129610000D01*
%TO.C,R1*%
X149790000Y-113396914D02*
X149790000Y-111942786D01*
X151610000Y-113396914D02*
X151610000Y-111942786D01*
%TO.C,C1*%
X112576248Y-97390000D02*
X113998752Y-97390000D01*
X112576248Y-99210000D02*
X113998752Y-99210000D01*
%TO.C,R9*%
X139957650Y-109465126D02*
X139957650Y-109974574D01*
X141002650Y-109465126D02*
X141002650Y-109974574D01*
%TO.C,C7*%
X127903902Y-124534850D02*
X127381398Y-124534850D01*
X127903902Y-126004850D02*
X127381398Y-126004850D01*
%TO.C,J2*%
D14*
X102950000Y-128350000D02*
X117350000Y-128350000D01*
X102950000Y-137350000D02*
X102950000Y-128350000D01*
X111100000Y-137350000D02*
X102950000Y-137350000D01*
X117350000Y-128350000D02*
X117350000Y-130200000D01*
X117350000Y-135400000D02*
X117350000Y-137350000D01*
X117350000Y-137350000D02*
X116200000Y-137350000D01*
D17*
X118850000Y-132850000D02*
G75*
G02*
X118450000Y-132850000I-200000J0D01*
G01*
X118450000Y-132850000D02*
G75*
G02*
X118850000Y-132850000I200000J0D01*
G01*
%TO.C,C9*%
D13*
X129712350Y-134847383D02*
X129712350Y-135139917D01*
X130732350Y-134847383D02*
X130732350Y-135139917D01*
%TO.C,D2*%
D15*
X144410300Y-109450000D02*
X144410300Y-108650000D01*
D10*
X146110300Y-107450000D02*
X146110300Y-107450000D01*
X146210300Y-107450000D02*
X146210300Y-107450000D01*
D15*
X146410300Y-109450000D02*
X146410300Y-108650000D01*
D10*
X146110300Y-107450000D02*
G75*
G02*
X146210300Y-107450000I50000J0D01*
G01*
X146210300Y-107450000D02*
G75*
G02*
X146110300Y-107450000I-50000J0D01*
G01*
%TO.C,R2*%
D13*
X151210436Y-118790000D02*
X152664564Y-118790000D01*
X151210436Y-120610000D02*
X152664564Y-120610000D01*
%TO.C,C20*%
X128858750Y-102966233D02*
X128858750Y-103258767D01*
X129878750Y-102966233D02*
X129878750Y-103258767D01*
%TO.C,TP3*%
X138650000Y-101000000D02*
G75*
G02*
X135250000Y-101000000I-1700000J0D01*
G01*
X135250000Y-101000000D02*
G75*
G02*
X138650000Y-101000000I1700000J0D01*
G01*
%TO.C,C15*%
X110880033Y-110853800D02*
X111172567Y-110853800D01*
X110880033Y-111873800D02*
X111172567Y-111873800D01*
%TO.C,C11*%
X150466233Y-116890000D02*
X150758767Y-116890000D01*
X150466233Y-117910000D02*
X150758767Y-117910000D01*
%TO.C,R8*%
X138757650Y-130952626D02*
X138757650Y-131462074D01*
X139802650Y-130952626D02*
X139802650Y-131462074D01*
%TO.C,C10*%
X151761383Y-108139850D02*
X152053917Y-108139850D01*
X151761383Y-109159850D02*
X152053917Y-109159850D01*
%TO.C,C8*%
X127763917Y-122659850D02*
X127471383Y-122659850D01*
X127763917Y-123679850D02*
X127471383Y-123679850D01*
%TO.C,R4*%
X135557650Y-131362074D02*
X135557650Y-130852626D01*
X136602650Y-131362074D02*
X136602650Y-130852626D01*
%TO.C,D3*%
X131768750Y-101090000D02*
X131768750Y-104350000D01*
X133468750Y-101090000D02*
X131768750Y-101090000D01*
X133468750Y-101090000D02*
X133468750Y-104350000D01*
%TO.C,D1*%
D15*
X116620000Y-119880000D02*
X116620000Y-125020000D01*
X119180000Y-125020000D02*
X119180000Y-119880000D01*
%TO.C,U3*%
D16*
X146373600Y-134773600D02*
X146373600Y-135240259D01*
X146373600Y-137659741D02*
X146373600Y-138126400D01*
X146373600Y-138126400D02*
X146840259Y-138126400D01*
X146840259Y-134773600D02*
X146373600Y-134773600D01*
X149259741Y-138126400D02*
X149726400Y-138126400D01*
X149726400Y-134773600D02*
X149259741Y-134773600D01*
X149726400Y-135240259D02*
X149726400Y-134773600D01*
X149726400Y-138126400D02*
X149726400Y-137659741D01*
D18*
G36*
X145840200Y-136390501D02*
G01*
X145586200Y-136390501D01*
X145586200Y-136009500D01*
X145840200Y-136009500D01*
X145840200Y-136390501D01*
G37*
%TO.C,C14*%
D13*
X143723752Y-131340000D02*
X142301248Y-131340000D01*
X143723752Y-133160000D02*
X142301248Y-133160000D01*
%TO.C,R5*%
X130607650Y-127137074D02*
X130607650Y-126627626D01*
X131652650Y-127137074D02*
X131652650Y-126627626D01*
%TO.C,C4*%
X133320150Y-113566117D02*
X133320150Y-113273583D01*
X134340150Y-113566117D02*
X134340150Y-113273583D01*
%TO.C,R3*%
X133957650Y-135274574D02*
X133957650Y-134765126D01*
X135002650Y-135274574D02*
X135002650Y-134765126D01*
%TO.C,C21*%
X125398300Y-103066231D02*
X125398300Y-103358765D01*
X126418300Y-103066231D02*
X126418300Y-103358765D01*
%TO.C,U5*%
D16*
X126376250Y-100226399D02*
X128332050Y-100226399D01*
X128332050Y-96873599D02*
X126376250Y-96873599D01*
X128332050Y-98913260D02*
X128332050Y-98186738D01*
%TO.C,L1*%
X113775800Y-106680797D02*
X113775800Y-109419203D01*
X120024200Y-109419203D02*
X120024200Y-106680797D01*
%TO.C,C6*%
D13*
X143206398Y-112859850D02*
X144628902Y-112859850D01*
X143206398Y-114679850D02*
X144628902Y-114679850D01*
%TO.C,C22*%
X131220150Y-115366117D02*
X131220150Y-115073583D01*
X132240150Y-115366117D02*
X132240150Y-115073583D01*
%TO.C,R16*%
D16*
X122621000Y-106102400D02*
X122621000Y-109289476D01*
X122621000Y-110230524D02*
X122621000Y-113341400D01*
X122621000Y-113341400D02*
X129479000Y-113341400D01*
X129479000Y-106102400D02*
X122621000Y-106102400D01*
X129479000Y-108833714D02*
X129479000Y-106102400D01*
X129479000Y-113341400D02*
X129479000Y-110686286D01*
X128717000Y-104959400D02*
G75*
G02*
X128463000Y-104959400I-127000J0D01*
G01*
X128463000Y-104959400D02*
G75*
G02*
X128717000Y-104959400I127000J0D01*
G01*
%TD*%
M02*
