%TF.GenerationSoftware,KiCad,Pcbnew,10.0.2*%
%TF.CreationDate,2026-05-18T22:34:06-07:00*%
%TF.ProjectId,rick_roller,7269636b-5f72-46f6-9c6c-65722e6b6963,rev?*%
%TF.SameCoordinates,Original*%
%TF.FileFunction,Copper,L1,Top*%
%TF.FilePolarity,Positive*%
%FSLAX46Y46*%
G04 Gerber Fmt 4.6, Leading zero omitted, Abs format (unit mm)*
G04 Created by KiCad (PCBNEW 10.0.2) date 2026-05-18 22:34:06*
%MOMM*%
%LPD*%
G01*
G04 APERTURE LIST*
G04 Aperture macros list*
%AMRoundRect*
0 Rectangle with rounded corners*
0 $1 Rounding radius*
0 $2 $3 $4 $5 $6 $7 $8 $9 X,Y pos of 4 corners*
0 Add a 4 corners polygon primitive as box body*
4,1,4,$2,$3,$4,$5,$6,$7,$8,$9,$2,$3,0*
0 Add four circle primitives for the rounded corners*
1,1,$1+$1,$2,$3*
1,1,$1+$1,$4,$5*
1,1,$1+$1,$6,$7*
1,1,$1+$1,$8,$9*
0 Add four rect primitives between the rounded corners*
20,1,$1+$1,$2,$3,$4,$5,0*
20,1,$1+$1,$4,$5,$6,$7,0*
20,1,$1+$1,$6,$7,$8,$9,0*
20,1,$1+$1,$8,$9,$2,$3,0*%
G04 Aperture macros list end*
%TA.AperFunction,SMDPad,CuDef*%
%ADD10RoundRect,0.155000X-0.212500X-0.155000X0.212500X-0.155000X0.212500X0.155000X-0.212500X0.155000X0*%
%TD*%
%TA.AperFunction,SMDPad,CuDef*%
%ADD11R,1.300000X1.100000*%
%TD*%
%TA.AperFunction,SMDPad,CuDef*%
%ADD12RoundRect,0.042000X-0.738000X-0.098000X0.738000X-0.098000X0.738000X0.098000X-0.738000X0.098000X0*%
%TD*%
%TA.AperFunction,SMDPad,CuDef*%
%ADD13RoundRect,0.042000X-0.098000X-0.738000X0.098000X-0.738000X0.098000X0.738000X-0.098000X0.738000X0*%
%TD*%
%TA.AperFunction,SMDPad,CuDef*%
%ADD14RoundRect,0.237500X-0.237500X0.250000X-0.237500X-0.250000X0.237500X-0.250000X0.237500X0.250000X0*%
%TD*%
%TA.AperFunction,ComponentPad*%
%ADD15C,3.000000*%
%TD*%
%TA.AperFunction,SMDPad,CuDef*%
%ADD16RoundRect,0.250000X0.650000X-0.412500X0.650000X0.412500X-0.650000X0.412500X-0.650000X-0.412500X0*%
%TD*%
%TA.AperFunction,SMDPad,CuDef*%
%ADD17RoundRect,0.250000X0.625000X-0.400000X0.625000X0.400000X-0.625000X0.400000X-0.625000X-0.400000X0*%
%TD*%
%TA.AperFunction,SMDPad,CuDef*%
%ADD18RoundRect,0.237500X-0.300000X-0.237500X0.300000X-0.237500X0.300000X0.237500X-0.300000X0.237500X0*%
%TD*%
%TA.AperFunction,SMDPad,CuDef*%
%ADD19RoundRect,0.250000X-0.400000X-0.625000X0.400000X-0.625000X0.400000X0.625000X-0.400000X0.625000X0*%
%TD*%
%TA.AperFunction,ConnectorPad*%
%ADD20C,0.787400*%
%TD*%
%TA.AperFunction,SMDPad,CuDef*%
%ADD21RoundRect,0.237500X0.237500X-0.250000X0.237500X0.250000X-0.237500X0.250000X-0.237500X-0.250000X0*%
%TD*%
%TA.AperFunction,SMDPad,CuDef*%
%ADD22RoundRect,0.250000X-0.625000X0.400000X-0.625000X-0.400000X0.625000X-0.400000X0.625000X0.400000X0*%
%TD*%
%TA.AperFunction,SMDPad,CuDef*%
%ADD23R,0.431800X0.965200*%
%TD*%
%TA.AperFunction,SMDPad,CuDef*%
%ADD24R,4.343400X3.454400*%
%TD*%
%TA.AperFunction,SMDPad,CuDef*%
%ADD25RoundRect,0.237500X0.250000X0.237500X-0.250000X0.237500X-0.250000X-0.237500X0.250000X-0.237500X0*%
%TD*%
%TA.AperFunction,ComponentPad*%
%ADD26RoundRect,0.250000X0.750000X-0.750000X0.750000X0.750000X-0.750000X0.750000X-0.750000X-0.750000X0*%
%TD*%
%TA.AperFunction,ComponentPad*%
%ADD27C,2.000000*%
%TD*%
%TA.AperFunction,SMDPad,CuDef*%
%ADD28RoundRect,0.237500X0.300000X0.237500X-0.300000X0.237500X-0.300000X-0.237500X0.300000X-0.237500X0*%
%TD*%
%TA.AperFunction,SMDPad,CuDef*%
%ADD29R,0.508000X1.104900*%
%TD*%
%TA.AperFunction,SMDPad,CuDef*%
%ADD30R,1.000000X1.550000*%
%TD*%
%TA.AperFunction,SMDPad,CuDef*%
%ADD31RoundRect,0.237500X-0.237500X0.300000X-0.237500X-0.300000X0.237500X-0.300000X0.237500X0.300000X0*%
%TD*%
%TA.AperFunction,SMDPad,CuDef*%
%ADD32RoundRect,0.250000X-0.412500X-0.650000X0.412500X-0.650000X0.412500X0.650000X-0.412500X0.650000X0*%
%TD*%
%TA.AperFunction,SMDPad,CuDef*%
%ADD33RoundRect,0.250000X0.337500X0.475000X-0.337500X0.475000X-0.337500X-0.475000X0.337500X-0.475000X0*%
%TD*%
%TA.AperFunction,ComponentPad*%
%ADD34O,2.500000X5.000000*%
%TD*%
%TA.AperFunction,ComponentPad*%
%ADD35O,2.250000X4.500000*%
%TD*%
%TA.AperFunction,ComponentPad*%
%ADD36O,4.500000X2.250000*%
%TD*%
%TA.AperFunction,SMDPad,CuDef*%
%ADD37R,0.600000X0.600000*%
%TD*%
%TA.AperFunction,SMDPad,CuDef*%
%ADD38R,0.400000X0.600000*%
%TD*%
%TA.AperFunction,SMDPad,CuDef*%
%ADD39RoundRect,0.250000X-0.250000X0.250000X-0.250000X-0.250000X0.250000X-0.250000X0.250000X0.250000X0*%
%TD*%
%TA.AperFunction,SMDPad,CuDef*%
%ADD40R,1.500000X2.100000*%
%TD*%
%TA.AperFunction,SMDPad,CuDef*%
%ADD41R,0.914400X0.254000*%
%TD*%
%TA.AperFunction,SMDPad,CuDef*%
%ADD42R,0.254000X0.914400*%
%TD*%
%TA.AperFunction,SMDPad,CuDef*%
%ADD43R,1.244600X1.244600*%
%TD*%
%TA.AperFunction,SMDPad,CuDef*%
%ADD44RoundRect,0.250000X0.412500X0.650000X-0.412500X0.650000X-0.412500X-0.650000X0.412500X-0.650000X0*%
%TD*%
%TA.AperFunction,SMDPad,CuDef*%
%ADD45RoundRect,0.237500X0.237500X-0.300000X0.237500X0.300000X-0.237500X0.300000X-0.237500X-0.300000X0*%
%TD*%
%TA.AperFunction,SMDPad,CuDef*%
%ADD46R,1.206500X0.508000*%
%TD*%
%TA.AperFunction,SMDPad,CuDef*%
%ADD47R,5.689600X1.600200*%
%TD*%
%TA.AperFunction,ComponentPad*%
%ADD48R,1.346200X1.346200*%
%TD*%
%TA.AperFunction,ComponentPad*%
%ADD49C,1.346200*%
%TD*%
%TA.AperFunction,ViaPad*%
%ADD50C,0.600000*%
%TD*%
%TA.AperFunction,Conductor*%
%ADD51C,0.300000*%
%TD*%
%TA.AperFunction,Conductor*%
%ADD52C,0.600000*%
%TD*%
%TA.AperFunction,Conductor*%
%ADD53C,0.400000*%
%TD*%
%TA.AperFunction,Conductor*%
%ADD54C,0.500000*%
%TD*%
%TA.AperFunction,Conductor*%
%ADD55C,0.800000*%
%TD*%
%TA.AperFunction,Conductor*%
%ADD56C,0.200000*%
%TD*%
%TA.AperFunction,Conductor*%
%ADD57C,0.700000*%
%TD*%
G04 APERTURE END LIST*
D10*
%TO.P,C3,1*%
%TO.N,GND*%
X127315000Y-115800000D03*
%TO.P,C3,2*%
%TO.N,/OSC_IN*%
X128450000Y-115800000D03*
%TD*%
%TO.P,C2,1*%
%TO.N,GND*%
X122650000Y-119850000D03*
%TO.P,C2,2*%
%TO.N,/OSC_OUT*%
X123785000Y-119850000D03*
%TD*%
D11*
%TO.P,Y1,1,IN/OUT_1*%
%TO.N,/OSC_IN*%
X128100000Y-117700000D03*
%TO.P,Y1,2,GND_2*%
%TO.N,GND*%
X125800000Y-117700000D03*
%TO.P,Y1,3,OUT/IN_3*%
%TO.N,/OSC_OUT*%
X125800000Y-119500000D03*
%TO.P,Y1,4,GND__1_4*%
%TO.N,GND*%
X128100000Y-119500000D03*
%TD*%
D12*
%TO.P,U1,1,VBAT_1*%
%TO.N,+3.3V*%
X132450150Y-118569850D03*
%TO.P,U1,2,PC13_2*%
%TO.N,unconnected-(U1-PC13-Pad2)*%
X132450150Y-119069850D03*
%TO.P,U1,3,PC14-OSC32_IN_3*%
%TO.N,unconnected-(U1-PC14-OSC32_IN-Pad3)*%
X132450150Y-119569850D03*
%TO.P,U1,4,PC15-OSC32_OUT_4*%
%TO.N,unconnected-(U1-PC15-OSC32_OUT-Pad4)*%
X132450150Y-120069850D03*
%TO.P,U1,5,PH0-OSC_IN_5*%
%TO.N,/OSC_IN*%
X132450150Y-120569850D03*
%TO.P,U1,6,PH1-OSC_OUT_6*%
%TO.N,/OSC_OUT*%
X132450150Y-121069850D03*
%TO.P,U1,7,~{RST}_7*%
%TO.N,/RESET*%
X132450150Y-121569850D03*
%TO.P,U1,8,VSSA/VREF_M_8*%
%TO.N,GND*%
X132450150Y-122069850D03*
%TO.P,U1,9,VDDA/VREF_P_9*%
%TO.N,+3.3V*%
X132450150Y-122569850D03*
%TO.P,U1,10,PA0_10*%
%TO.N,unconnected-(U1-PA0-Pad10)*%
X132450150Y-123069850D03*
%TO.P,U1,11,PA1_11*%
%TO.N,unconnected-(U1-PA1-Pad11)*%
X132450150Y-123569850D03*
%TO.P,U1,12,PA2_12*%
%TO.N,Net-(U1-PA2)*%
X132450150Y-124069850D03*
D13*
%TO.P,U1,13,PA3_13*%
%TO.N,Net-(U1-PA3)*%
X133880150Y-125499850D03*
%TO.P,U1,14,PA4_14*%
%TO.N,/volume*%
X134380150Y-125499850D03*
%TO.P,U1,15,PA5_15*%
%TO.N,unconnected-(U1-PA5-Pad15)*%
X134880150Y-125499850D03*
%TO.P,U1,16,PA6_16*%
%TO.N,Net-(U1-PA6)*%
X135380150Y-125499850D03*
%TO.P,U1,17,PA7_17*%
%TO.N,Net-(U1-PA7)*%
X135880150Y-125499850D03*
%TO.P,U1,18,PB0_18*%
%TO.N,/IO1*%
X136380150Y-125499850D03*
%TO.P,U1,19,PB1_19*%
%TO.N,Net-(U1-PB1)*%
X136880150Y-125499850D03*
%TO.P,U1,20,PB2_20*%
%TO.N,unconnected-(U1-PB2-Pad20)*%
X137380150Y-125499850D03*
%TO.P,U1,21,PB10_21*%
%TO.N,/SAI_SCK*%
X137880150Y-125499850D03*
%TO.P,U1,22,PB11_22*%
%TO.N,Net-(U1-PB11)*%
X138380150Y-125499850D03*
%TO.P,U1,23,VSS_1_23*%
%TO.N,GND*%
X138880150Y-125499850D03*
%TO.P,U1,24,VDD_1_24*%
%TO.N,+3.3V*%
X139380150Y-125499850D03*
D12*
%TO.P,U1,25,PB12_25*%
%TO.N,unconnected-(U1-PB12-Pad25)*%
X140810150Y-124069850D03*
%TO.P,U1,26,PB13_26*%
%TO.N,unconnected-(U1-PB13-Pad26)*%
X140810150Y-123569850D03*
%TO.P,U1,27,PB14_27*%
%TO.N,/switch*%
X140810150Y-123069850D03*
%TO.P,U1,28,PB15_28*%
%TO.N,/SAI_SD_DIN*%
X140810150Y-122569850D03*
%TO.P,U1,29,PA8_29*%
%TO.N,unconnected-(U1-PA8-Pad29)*%
X140810150Y-122069850D03*
%TO.P,U1,30,PA9_30*%
%TO.N,unconnected-(U1-PA9-Pad30)*%
X140810150Y-121569850D03*
%TO.P,U1,31,PA10_31*%
%TO.N,unconnected-(U1-PA10-Pad31)*%
X140810150Y-121069850D03*
%TO.P,U1,32,PA11_32*%
%TO.N,unconnected-(U1-PA11-Pad32)*%
X140810150Y-120569850D03*
%TO.P,U1,33,PA12_33*%
%TO.N,unconnected-(U1-PA12-Pad33)*%
X140810150Y-120069850D03*
%TO.P,U1,34,PA13_34*%
%TO.N,Net-(U1-PA13)*%
X140810150Y-119569850D03*
%TO.P,U1,35,VSS_2_35*%
%TO.N,GND*%
X140810150Y-119069850D03*
%TO.P,U1,36,VDDUSB_36*%
%TO.N,+3.3V*%
X140810150Y-118569850D03*
D13*
%TO.P,U1,37,PA14_37*%
%TO.N,/SWCLK*%
X139380150Y-117139850D03*
%TO.P,U1,38,PA15_38*%
%TO.N,unconnected-(U1-PA15-Pad38)*%
X138880150Y-117139850D03*
%TO.P,U1,39,PB3_39*%
%TO.N,Net-(U1-PB3)*%
X138380150Y-117139850D03*
%TO.P,U1,40,PB4_40*%
%TO.N,unconnected-(U1-PB4-Pad40)*%
X137880150Y-117139850D03*
%TO.P,U1,41,PB5_41*%
%TO.N,unconnected-(U1-PB5-Pad41)*%
X137380150Y-117139850D03*
%TO.P,U1,42,PB6_42*%
%TO.N,unconnected-(U1-PB6-Pad42)*%
X136880150Y-117139850D03*
%TO.P,U1,43,PB7_43*%
%TO.N,unconnected-(U1-PB7-Pad43)*%
X136380150Y-117139850D03*
%TO.P,U1,44,PH3-BOOT0_44*%
%TO.N,Net-(U1-PH3-BOOT0)*%
X135880150Y-117139850D03*
%TO.P,U1,45,PB8_45*%
%TO.N,unconnected-(U1-PB8-Pad45)*%
X135380150Y-117139850D03*
%TO.P,U1,46,PB9_46*%
%TO.N,/SAI_FS_WS_LRCLK*%
X134880150Y-117139850D03*
%TO.P,U1,47,VSS_3_47*%
%TO.N,GND*%
X134380150Y-117139850D03*
%TO.P,U1,48,VDD_2_48*%
%TO.N,+3.3V*%
X133880150Y-117139850D03*
%TD*%
D14*
%TO.P,R7,1*%
%TO.N,/IO1*%
X137630150Y-134294850D03*
%TO.P,R7,2*%
%TO.N,Net-(R7-Pad2)*%
X137630150Y-136119850D03*
%TD*%
D15*
%TO.P,TP2,1,1_1*%
%TO.N,+5V*%
X119250000Y-97600000D03*
%TD*%
D16*
%TO.P,C18,1*%
%TO.N,+12V*%
X108463800Y-102713800D03*
%TO.P,C18,2*%
%TO.N,GND*%
X108463800Y-99588800D03*
%TD*%
D17*
%TO.P,R12,1*%
%TO.N,Net-(U1-PH3-BOOT0)*%
X134850000Y-109850000D03*
%TO.P,R12,2*%
%TO.N,GND*%
X134850000Y-106750000D03*
%TD*%
D18*
%TO.P,C23,1*%
%TO.N,+3.3V*%
X142017650Y-126019850D03*
%TO.P,C23,2*%
%TO.N,GND*%
X143742650Y-126019850D03*
%TD*%
D19*
%TO.P,R15,1*%
%TO.N,+5V*%
X119908300Y-102149998D03*
%TO.P,R15,2*%
%TO.N,Net-(U5-EN)*%
X123008300Y-102149998D03*
%TD*%
D20*
%TO.P,J1,1,VCC_1*%
%TO.N,+3.3V*%
X146380300Y-103220000D03*
%TO.P,J1,2,SWDIO_2*%
%TO.N,/SWDIO*%
X145110300Y-103220000D03*
%TO.P,J1,3,~{RESET}_3*%
%TO.N,/RESET*%
X146380300Y-101950000D03*
%TO.P,J1,4,SWCLK_4*%
%TO.N,Net-(J1-SWCLK)*%
X145110300Y-101950000D03*
%TO.P,J1,5,GND_5*%
%TO.N,GND*%
X146380300Y-100680000D03*
%TO.P,J1,6,SWO_6*%
%TO.N,/SWO*%
X145110300Y-100680000D03*
%TD*%
D21*
%TO.P,R11,1*%
%TO.N,Net-(U1-PB3)*%
X138030150Y-113032350D03*
%TO.P,R11,2*%
%TO.N,/SWO*%
X138030150Y-111207350D03*
%TD*%
D22*
%TO.P,R13,1*%
%TO.N,Net-(S1-NO_1)*%
X153800000Y-131900000D03*
%TO.P,R13,2*%
%TO.N,+3.3V*%
X153800000Y-135000000D03*
%TD*%
D23*
%TO.P,U2,1,1_1*%
%TO.N,/W25_CS*%
X127280150Y-128069850D03*
%TO.P,U2,2,2_2*%
%TO.N,Net-(R7-Pad2)*%
X126010150Y-128069850D03*
%TO.P,U2,3,3_3*%
%TO.N,/IO2*%
X124740150Y-128069850D03*
%TO.P,U2,4,4_4*%
%TO.N,GND*%
X123470150Y-128069850D03*
%TO.P,U2,5,5_5*%
%TO.N,/IO0*%
X123470150Y-136020050D03*
%TO.P,U2,6,6_6*%
%TO.N,/W25_CLK*%
X124740150Y-136020050D03*
%TO.P,U2,7,7_7*%
%TO.N,/IO3*%
X126010150Y-136020050D03*
%TO.P,U2,8,8_8*%
%TO.N,+3.3V*%
X127280150Y-136020050D03*
D24*
%TO.P,U2,9,9_9*%
%TO.N,GND*%
X125375150Y-132044950D03*
%TD*%
D25*
%TO.P,R10,1*%
%TO.N,/SWDIO*%
X145980150Y-119119850D03*
%TO.P,R10,2*%
%TO.N,Net-(U1-PA13)*%
X144155150Y-119119850D03*
%TD*%
D21*
%TO.P,R6,1*%
%TO.N,/W25_CLK*%
X132930150Y-131944850D03*
%TO.P,R6,2*%
%TO.N,Net-(U1-PA3)*%
X132930150Y-130119850D03*
%TD*%
D26*
%TO.P,C12,1*%
%TO.N,+12V*%
X109400000Y-123517677D03*
D27*
%TO.P,C12,2*%
%TO.N,GND*%
X109400000Y-118517677D03*
%TD*%
D18*
%TO.P,C5,1*%
%TO.N,+3.3V*%
X142267650Y-116219850D03*
%TO.P,C5,2*%
%TO.N,GND*%
X143992650Y-116219850D03*
%TD*%
D28*
%TO.P,C13,1*%
%TO.N,+5V*%
X144662500Y-134500000D03*
%TO.P,C13,2*%
%TO.N,GND*%
X142937500Y-134500000D03*
%TD*%
D29*
%TO.P,U4,1,FB_1*%
%TO.N,+5V*%
X110363801Y-105660450D03*
%TO.P,U4,2,EN_2*%
%TO.N,+12V*%
X109413800Y-105660450D03*
%TO.P,U4,3,VIN_3*%
X108463799Y-105660450D03*
%TO.P,U4,4,GND_4*%
%TO.N,GND*%
X108463799Y-108467150D03*
%TO.P,U4,5,SW_5*%
%TO.N,Net-(U4-SW)*%
X109413800Y-108467150D03*
%TO.P,U4,6,BST_6*%
%TO.N,Net-(U4-BST)*%
X110363801Y-108467150D03*
%TD*%
D27*
%TO.P,LS1,1,1_1*%
%TO.N,/speaker-*%
X152850000Y-147805000D03*
%TO.P,LS1,2,2_2*%
%TO.N,/speaker+*%
X152850000Y-157805000D03*
%TD*%
%TO.P,TP4,1,1_1*%
%TO.N,/switch*%
X153750000Y-114300000D03*
%TD*%
D30*
%TO.P,S1,1,NO_1_1*%
%TO.N,Net-(S1-NO_1)*%
X152750000Y-123325000D03*
%TO.P,S1,2,NO_2_2*%
X152750000Y-128575000D03*
%TO.P,S1,3,COM_1_3*%
%TO.N,GND*%
X149550000Y-123325000D03*
%TO.P,S1,4,COM_2_4*%
X149550000Y-128575000D03*
%TD*%
D31*
%TO.P,C19,1*%
%TO.N,+5V*%
X123208300Y-96749998D03*
%TO.P,C19,2*%
%TO.N,GND*%
X123208300Y-98474998D03*
%TD*%
D15*
%TO.P,TP1,1,1_1*%
%TO.N,+12V*%
X119800000Y-137500000D03*
%TD*%
D32*
%TO.P,C16,1*%
%TO.N,+5V*%
X111725000Y-101650000D03*
%TO.P,C16,2*%
%TO.N,GND*%
X114850000Y-101650000D03*
%TD*%
D19*
%TO.P,R14,1*%
%TO.N,Net-(U1-PB11)*%
X142100000Y-128700000D03*
%TO.P,R14,2*%
%TO.N,Net-(U3-\u002ASD_MODE)*%
X145200000Y-128700000D03*
%TD*%
D17*
%TO.P,R1,1*%
%TO.N,+3.3V*%
X150700000Y-114219850D03*
%TO.P,R1,2*%
%TO.N,/RESET*%
X150700000Y-111119850D03*
%TD*%
D32*
%TO.P,C1,1*%
%TO.N,+5V*%
X111725000Y-98300000D03*
%TO.P,C1,2*%
%TO.N,GND*%
X114850000Y-98300000D03*
%TD*%
D14*
%TO.P,R9,1*%
%TO.N,Net-(J1-SWCLK)*%
X140480150Y-108807350D03*
%TO.P,R9,2*%
%TO.N,/SWCLK*%
X140480150Y-110632350D03*
%TD*%
D33*
%TO.P,C7,1*%
%TO.N,+3.3V*%
X128680150Y-125269850D03*
%TO.P,C7,2*%
%TO.N,GND*%
X126605150Y-125269850D03*
%TD*%
D34*
%TO.P,J2,1*%
%TO.N,+12V*%
X116650000Y-132850000D03*
D35*
%TO.P,J2,2*%
%TO.N,GND*%
X110650000Y-132850000D03*
D36*
%TO.P,J2,3*%
X113650000Y-137550000D03*
%TD*%
D31*
%TO.P,C9,1*%
%TO.N,GND*%
X130222350Y-134131150D03*
%TO.P,C9,2*%
%TO.N,+3.3V*%
X130222350Y-135856150D03*
%TD*%
D37*
%TO.P,D2,1,CATHODE_(DIODE_1)_1*%
%TO.N,/SWO*%
X146160300Y-108150000D03*
D38*
%TO.P,D2,2,COMMON_ANODE_2*%
%TO.N,GND*%
X145410300Y-108150000D03*
D37*
%TO.P,D2,3,CATHODE_(DIODE_2)_3*%
%TO.N,/SWDIO*%
X144660300Y-108150000D03*
%TO.P,D2,4,CATHODE_(DIODE_3)_4*%
%TO.N,/SWCLK*%
X144660300Y-109950000D03*
%TO.P,D2,5,CATHODE_(DIODE_4)_5*%
%TO.N,/switch*%
X146160300Y-109950000D03*
%TD*%
D19*
%TO.P,R2,1*%
%TO.N,/switch*%
X150387500Y-119700000D03*
%TO.P,R2,2*%
%TO.N,Net-(S1-NO_1)*%
X153487500Y-119700000D03*
%TD*%
D31*
%TO.P,C20,1*%
%TO.N,+3.3V*%
X129368750Y-102250000D03*
%TO.P,C20,2*%
%TO.N,GND*%
X129368750Y-103975000D03*
%TD*%
D15*
%TO.P,TP3,1,1_1*%
%TO.N,+3.3V*%
X136950000Y-101000000D03*
%TD*%
D18*
%TO.P,C15,1*%
%TO.N,Net-(U4-SW)*%
X110163800Y-111363800D03*
%TO.P,C15,2*%
%TO.N,Net-(U4-BST)*%
X111888800Y-111363800D03*
%TD*%
%TO.P,C11,1*%
%TO.N,/switch*%
X149750000Y-117400000D03*
%TO.P,C11,2*%
%TO.N,GND*%
X151475000Y-117400000D03*
%TD*%
D14*
%TO.P,R8,1*%
%TO.N,Net-(U1-PB1)*%
X139280150Y-130294850D03*
%TO.P,R8,2*%
%TO.N,/IO0*%
X139280150Y-132119850D03*
%TD*%
D18*
%TO.P,C10,1*%
%TO.N,/RESET*%
X151045150Y-108649850D03*
%TO.P,C10,2*%
%TO.N,GND*%
X152770150Y-108649850D03*
%TD*%
D28*
%TO.P,C8,1*%
%TO.N,+3.3V*%
X128480150Y-123169850D03*
%TO.P,C8,2*%
%TO.N,GND*%
X126755150Y-123169850D03*
%TD*%
D21*
%TO.P,R4,1*%
%TO.N,/IO2*%
X136080150Y-132019850D03*
%TO.P,R4,2*%
%TO.N,Net-(U1-PA7)*%
X136080150Y-130194850D03*
%TD*%
D39*
%TO.P,D3,1,K1_1*%
%TO.N,+3.3V*%
X132618750Y-101850000D03*
%TO.P,D3,2,A_2*%
%TO.N,GND*%
X132618750Y-104350000D03*
%TD*%
D40*
%TO.P,D1,1,K_1*%
%TO.N,+12V*%
X117900000Y-124550000D03*
%TO.P,D1,2,A_2*%
%TO.N,GND*%
X117900000Y-120350000D03*
%TD*%
D41*
%TO.P,U3,1,DIN_1*%
%TO.N,/SAI_SD_DIN*%
X149548600Y-137200001D03*
%TO.P,U3,2,GAIN_SLOT_2*%
%TO.N,GND*%
X149548600Y-136700000D03*
%TO.P,U3,3,GND_3*%
X149548600Y-136200000D03*
%TO.P,U3,4,\u002ASD_MODE_4*%
%TO.N,Net-(U3-\u002ASD_MODE)*%
X149548600Y-135699999D03*
D42*
%TO.P,U3,5,N.C._5*%
%TO.N,unconnected-(U3-N.C.-Pad5)*%
X148800001Y-134951400D03*
%TO.P,U3,6,N.C._6*%
%TO.N,unconnected-(U3-N.C.-Pad6)*%
X148300000Y-134951400D03*
%TO.P,U3,7,VDD_7*%
%TO.N,+5V*%
X147800000Y-134951400D03*
%TO.P,U3,8,VDD_8*%
X147299999Y-134951400D03*
D41*
%TO.P,U3,9,OUTP_9*%
%TO.N,/speaker+*%
X146551400Y-135699999D03*
%TO.P,U3,10,OUTN_10*%
%TO.N,/speaker-*%
X146551400Y-136200000D03*
%TO.P,U3,11,GND_11*%
%TO.N,GND*%
X146551400Y-136700000D03*
%TO.P,U3,12,N.C._12*%
%TO.N,unconnected-(U3-N.C.-Pad12)*%
X146551400Y-137200001D03*
D42*
%TO.P,U3,13,N.C._13*%
%TO.N,unconnected-(U3-N.C.-Pad13)*%
X147299999Y-137948600D03*
%TO.P,U3,14,LRCLK_14*%
%TO.N,/SAI_FS_WS_LRCLK*%
X147800000Y-137948600D03*
%TO.P,U3,15,GND_15*%
%TO.N,GND*%
X148300000Y-137948600D03*
%TO.P,U3,16,BCLK_16*%
%TO.N,/SAI_SCK*%
X148800001Y-137948600D03*
D43*
%TO.P,U3,17,EPAD_17*%
%TO.N,GND*%
X148050000Y-136450000D03*
%TD*%
D44*
%TO.P,C14,1*%
%TO.N,+5V*%
X144575000Y-132250000D03*
%TO.P,C14,2*%
%TO.N,GND*%
X141450000Y-132250000D03*
%TD*%
D21*
%TO.P,R5,1*%
%TO.N,/W25_CS*%
X131130150Y-127794850D03*
%TO.P,R5,2*%
%TO.N,Net-(U1-PA2)*%
X131130150Y-125969850D03*
%TD*%
D45*
%TO.P,C4,1*%
%TO.N,+3.3V*%
X133830150Y-114282350D03*
%TO.P,C4,2*%
%TO.N,GND*%
X133830150Y-112557350D03*
%TD*%
D21*
%TO.P,R3,1*%
%TO.N,/IO3*%
X134480150Y-135932350D03*
%TO.P,R3,2*%
%TO.N,Net-(U1-PA6)*%
X134480150Y-134107350D03*
%TD*%
D31*
%TO.P,C21,1*%
%TO.N,Net-(U5-EN)*%
X125908300Y-102349998D03*
%TO.P,C21,2*%
%TO.N,GND*%
X125908300Y-104074998D03*
%TD*%
D46*
%TO.P,U5,1,VIN_1*%
%TO.N,+5V*%
X125900000Y-97599998D03*
%TO.P,U5,2,GND_2*%
%TO.N,GND*%
X125900000Y-98549999D03*
%TO.P,U5,3,EN_3*%
%TO.N,Net-(U5-EN)*%
X125900000Y-99500000D03*
%TO.P,U5,4,NC_4*%
%TO.N,unconnected-(U5-NC-Pad4)*%
X128808300Y-99500000D03*
%TO.P,U5,5,VOUT_5*%
%TO.N,+3.3V*%
X128808300Y-97599998D03*
%TD*%
D47*
%TO.P,L1,1,1_1*%
%TO.N,Net-(U4-SW)*%
X116900000Y-110400000D03*
%TO.P,L1,2,2_2*%
%TO.N,+5V*%
X116900000Y-105700000D03*
%TD*%
D32*
%TO.P,C6,1*%
%TO.N,+3.3V*%
X142355150Y-113769850D03*
%TO.P,C6,2*%
%TO.N,GND*%
X145480150Y-113769850D03*
%TD*%
D45*
%TO.P,C22,1*%
%TO.N,+3.3V*%
X131730150Y-116082350D03*
%TO.P,C22,2*%
%TO.N,GND*%
X131730150Y-114357350D03*
%TD*%
D48*
%TO.P,R16,1,1_1*%
%TO.N,+3.3V*%
X128590000Y-109760000D03*
D49*
%TO.P,R16,2,2_2*%
%TO.N,/volume*%
X126050000Y-112300000D03*
%TO.P,R16,3,3_3*%
%TO.N,GND*%
X123510000Y-109760000D03*
%TD*%
D50*
%TO.N,GND*%
X127300000Y-116550000D03*
X124500000Y-117700000D03*
X122650000Y-120700000D03*
X129575000Y-120275000D03*
%TO.N,+3.3V*%
X142050000Y-112250000D03*
X129600000Y-126600000D03*
X131550000Y-135850000D03*
X130550000Y-100850000D03*
X153800000Y-136900000D03*
X142000000Y-124900000D03*
X151360300Y-115750000D03*
X148550000Y-106550000D03*
X131650000Y-100400000D03*
X130950000Y-99800000D03*
X133000000Y-115550000D03*
%TO.N,/RESET*%
X151045150Y-109799850D03*
X129700000Y-121800000D03*
%TO.N,GND*%
X116400000Y-102050000D03*
X124650000Y-104100000D03*
X153850000Y-107550000D03*
X144950000Y-137950000D03*
X144906250Y-115306250D03*
X150950000Y-136450000D03*
X130953125Y-104196875D03*
X106500000Y-99650000D03*
X143200000Y-127050000D03*
X148299999Y-139451400D03*
X141000000Y-126950000D03*
X141500000Y-134300000D03*
X106850000Y-109750000D03*
X126605150Y-124119850D03*
X148050000Y-136450000D03*
X107275000Y-109375000D03*
X117900000Y-118150000D03*
X147400000Y-123900000D03*
X152400000Y-116500000D03*
X116500000Y-97950000D03*
X140100000Y-126850000D03*
X134350000Y-115650000D03*
X122250000Y-126650000D03*
X146060300Y-106650000D03*
X130100000Y-122500000D03*
X130250000Y-132950000D03*
X132075000Y-112825000D03*
X134650000Y-105300000D03*
X149110300Y-99000000D03*
X124450000Y-98549999D03*
X114826300Y-99950000D03*
X142830150Y-117969850D03*
X125375150Y-132044950D03*
%TO.N,/volume*%
X134000000Y-127450000D03*
%TO.N,/SAI_SCK*%
X145850000Y-130600000D03*
X149500000Y-139450000D03*
%TO.N,/switch*%
X148910300Y-118239700D03*
X143400000Y-123750000D03*
X148910300Y-112850000D03*
X146210300Y-111750000D03*
%TO.N,/SAI_FS_WS_LRCLK*%
X145500000Y-139050000D03*
X135250000Y-114950000D03*
%TO.N,Net-(R7-Pad2)*%
X129955150Y-130594850D03*
X137530150Y-137519850D03*
%TO.N,+5V*%
X146000000Y-133750000D03*
X146000000Y-132850000D03*
X113250000Y-105350000D03*
X112150000Y-105350000D03*
X111300000Y-105350000D03*
%TO.N,+12V*%
X117150000Y-127400000D03*
X116400000Y-126200000D03*
X115600000Y-125150000D03*
X107500000Y-104150000D03*
X115300000Y-127200000D03*
X108400000Y-104150000D03*
X113600000Y-127550000D03*
X114600000Y-124400000D03*
X113600000Y-125700000D03*
X112100000Y-127000000D03*
X109300000Y-104150000D03*
%TO.N,/SWDIO*%
X147150000Y-113950000D03*
X142950000Y-109500000D03*
%TO.N,/SWO*%
X140310300Y-102800000D03*
X147860300Y-108150000D03*
X138110300Y-109900000D03*
%TO.N,/IO2*%
X124830150Y-126469850D03*
X136130150Y-133219850D03*
%TD*%
%TO.N,/OSC_IN*%
D51*
X128450000Y-115800000D02*
X128450000Y-117350000D01*
X128450000Y-117350000D02*
X128100000Y-117700000D01*
%TO.N,GND*%
X127315000Y-116535000D02*
X127300000Y-116550000D01*
X127315000Y-115800000D02*
X127315000Y-116535000D01*
X125800000Y-117700000D02*
X124500000Y-117700000D01*
X122650000Y-119850000D02*
X122650000Y-120700000D01*
X129400000Y-120100000D02*
X129575000Y-120275000D01*
X128100000Y-119500000D02*
X128700000Y-120100000D01*
X128700000Y-120100000D02*
X129400000Y-120100000D01*
%TO.N,/OSC_IN*%
X130969850Y-120569850D02*
X132450150Y-120569850D01*
X128100000Y-117700000D02*
X130969850Y-120569850D01*
%TO.N,/OSC_OUT*%
X125450000Y-119850000D02*
X125800000Y-119500000D01*
X123785000Y-119850000D02*
X125450000Y-119850000D01*
X125800000Y-119500000D02*
X127369850Y-121069850D01*
X127369850Y-121069850D02*
X132450150Y-121069850D01*
%TO.N,/RESET*%
X130323044Y-121569850D02*
X132450150Y-121569850D01*
X130092893Y-121800000D02*
X130323044Y-121569850D01*
X129700000Y-121800000D02*
X130092893Y-121800000D01*
%TO.N,GND*%
X130100000Y-122500000D02*
X130530150Y-122069850D01*
X130530150Y-122069850D02*
X132450150Y-122069850D01*
%TO.N,+3.3V*%
X131280150Y-122569850D02*
X132450150Y-122569850D01*
X130680150Y-123169850D02*
X131280150Y-122569850D01*
X128480150Y-123169850D02*
X130680150Y-123169850D01*
X131180150Y-116632350D02*
X131730150Y-116082350D01*
X142267650Y-113857350D02*
X142355150Y-113769850D01*
D52*
X142355150Y-113769850D02*
X142355150Y-116132350D01*
D53*
X129181250Y-102062500D02*
X129368750Y-102250000D01*
D51*
X133830150Y-114719850D02*
X133000000Y-115550000D01*
X142017650Y-126019850D02*
X142017650Y-124917650D01*
X139380150Y-125499850D02*
X139900150Y-126019850D01*
D52*
X151360300Y-114084700D02*
X151445150Y-113999850D01*
D54*
X131543850Y-135856150D02*
X131550000Y-135850000D01*
X130222350Y-135856150D02*
X131543850Y-135856150D01*
D51*
X142017650Y-124917650D02*
X142000000Y-124900000D01*
X131180150Y-118269850D02*
X131180150Y-116632350D01*
D55*
X142050000Y-113464700D02*
X142355150Y-113769850D01*
D52*
X128808300Y-97599998D02*
X130749998Y-97599998D01*
D56*
X147500000Y-106550000D02*
X148550000Y-106550000D01*
D55*
X128680150Y-125680150D02*
X129600000Y-126600000D01*
D51*
X139900150Y-126019850D02*
X142017650Y-126019850D01*
X132450150Y-118569850D02*
X131480150Y-118569850D01*
X140810150Y-118569850D02*
X140810150Y-117677350D01*
D56*
X133880150Y-117139850D02*
X133880150Y-116430150D01*
D51*
X131480150Y-118569850D02*
X131180150Y-118269850D01*
D55*
X142050000Y-112250000D02*
X142050000Y-113464700D01*
D52*
X132618750Y-99468750D02*
X132618750Y-101850000D01*
D55*
X128680150Y-125269850D02*
X128680150Y-125680150D01*
D51*
X140810150Y-117677350D02*
X142267650Y-116219850D01*
D52*
X151360300Y-115750000D02*
X151360300Y-114084700D01*
D51*
X132467650Y-116082350D02*
X133000000Y-115550000D01*
D53*
X129368750Y-102250000D02*
X130881250Y-102250000D01*
D56*
X133880150Y-116430150D02*
X133000000Y-115550000D01*
D51*
X131730150Y-116082350D02*
X132467650Y-116082350D01*
D53*
X131281250Y-101850000D02*
X132618750Y-101850000D01*
X130881250Y-102250000D02*
X131281250Y-101850000D01*
D51*
X133880150Y-114332350D02*
X133830150Y-114282350D01*
D56*
X146590600Y-105640600D02*
X147500000Y-106550000D01*
D54*
X130058450Y-136020050D02*
X130222350Y-135856150D01*
X127280150Y-136020050D02*
X130058450Y-136020050D01*
D51*
X133830150Y-114282350D02*
X133830150Y-114719850D01*
X153800000Y-135000000D02*
X153800000Y-136900000D01*
D52*
X130749998Y-97599998D02*
X132618750Y-99468750D01*
D56*
X146380300Y-103220000D02*
X146590600Y-103430300D01*
D55*
X128680150Y-123369850D02*
X128480150Y-123169850D01*
D56*
X146590600Y-103430300D02*
X146590600Y-105640600D01*
D55*
X128680150Y-125269850D02*
X128680150Y-123369850D01*
D51*
X142355150Y-116132350D02*
X142267650Y-116219850D01*
%TO.N,/RESET*%
D56*
X146380300Y-101950000D02*
X147382850Y-102952550D01*
D51*
X151045150Y-109799850D02*
X151045150Y-110774700D01*
D56*
X150995150Y-108699850D02*
X151045150Y-108649850D01*
X151045150Y-104234850D02*
X151045150Y-108649850D01*
D51*
X151045150Y-109799850D02*
X151045150Y-108649850D01*
D56*
X147382850Y-102952550D02*
X149762850Y-102952550D01*
D51*
X151045150Y-110774700D02*
X150700000Y-111119850D01*
D56*
X149762850Y-102952550D02*
X151045150Y-104234850D01*
%TO.N,GND*%
X145350000Y-137150000D02*
X145350000Y-137550000D01*
D52*
X114826300Y-99950000D02*
X114826300Y-102001300D01*
D55*
X141450000Y-132250000D02*
X141450000Y-134250000D01*
D52*
X107275000Y-109375000D02*
X106900000Y-109750000D01*
D56*
X146380300Y-100680000D02*
X146686735Y-100680000D01*
D52*
X114826300Y-97863800D02*
X116413800Y-97863800D01*
D51*
X143200000Y-127050000D02*
X143650000Y-127050000D01*
X143742650Y-126907350D02*
X143742650Y-126019850D01*
D55*
X141450000Y-134250000D02*
X141500000Y-134300000D01*
D51*
X138880150Y-126391386D02*
X139338764Y-126850000D01*
X153850000Y-107550000D02*
X152800000Y-108600000D01*
X146060300Y-106650000D02*
X145410300Y-107300000D01*
D56*
X146686735Y-100680000D02*
X148366735Y-99000000D01*
D55*
X141500000Y-134300000D02*
X141700000Y-134500000D01*
D51*
X142130150Y-119069850D02*
X142830150Y-118369850D01*
D52*
X117900000Y-120350000D02*
X117900000Y-118150000D01*
D55*
X131730150Y-114357350D02*
X131730150Y-113169850D01*
D53*
X131106250Y-104350000D02*
X132618750Y-104350000D01*
D55*
X141700000Y-134500000D02*
X142937500Y-134500000D01*
D53*
X124450000Y-98549999D02*
X123283301Y-98549999D01*
X125900000Y-98549999D02*
X124450000Y-98549999D01*
D56*
X134350000Y-115989700D02*
X134350000Y-115650000D01*
D51*
X143650000Y-127000000D02*
X143742650Y-126907350D01*
X140850000Y-126850000D02*
X141050000Y-127050000D01*
X134850000Y-106750000D02*
X134850000Y-105500000D01*
D56*
X148366735Y-99000000D02*
X149110300Y-99000000D01*
D53*
X123470150Y-127870150D02*
X122250000Y-126650000D01*
D52*
X114826300Y-97863800D02*
X114826300Y-99950000D01*
D51*
X147400000Y-123900000D02*
X147975000Y-123325000D01*
X138880150Y-125499850D02*
X138880150Y-126391386D01*
D52*
X116363800Y-102013800D02*
X116400000Y-102050000D01*
X126605150Y-123319850D02*
X126755150Y-123169850D01*
D56*
X145800000Y-136700000D02*
X145350000Y-137150000D01*
D53*
X130250000Y-134103500D02*
X130222350Y-134131150D01*
D51*
X139338764Y-126850000D02*
X140100000Y-126850000D01*
D56*
X145350000Y-137550000D02*
X144950000Y-137950000D01*
X151475000Y-117400000D02*
X151500000Y-117400000D01*
X134380150Y-116019850D02*
X134350000Y-115989700D01*
X148300000Y-137948600D02*
X148299999Y-139451400D01*
D51*
X125908300Y-104074998D02*
X124675002Y-104074998D01*
D56*
X151500000Y-117400000D02*
X152400000Y-116500000D01*
D51*
X142830150Y-118369850D02*
X142830150Y-117969850D01*
D55*
X132342650Y-112557350D02*
X133830150Y-112557350D01*
D51*
X141050000Y-127050000D02*
X143200000Y-127050000D01*
X140100000Y-126850000D02*
X140850000Y-126850000D01*
D52*
X116413800Y-97863800D02*
X116500000Y-97950000D01*
D53*
X123470150Y-128069850D02*
X123470150Y-127870150D01*
D51*
X143650000Y-127050000D02*
X143650000Y-127000000D01*
D53*
X130953125Y-104196875D02*
X131106250Y-104350000D01*
D51*
X134850000Y-105500000D02*
X134650000Y-105300000D01*
X147975000Y-123325000D02*
X149550000Y-123325000D01*
X149550000Y-128575000D02*
X149550000Y-123325000D01*
D55*
X131730150Y-113169850D02*
X132075000Y-112825000D01*
D52*
X114838800Y-102013800D02*
X116363800Y-102013800D01*
X114826300Y-102001300D02*
X114838800Y-102013800D01*
D53*
X123283301Y-98549999D02*
X123208300Y-98474998D01*
X129368750Y-103975000D02*
X130731250Y-103975000D01*
D52*
X108182850Y-108467150D02*
X107275000Y-109375000D01*
X108463800Y-99588800D02*
X106561200Y-99588800D01*
X126605150Y-125269850D02*
X126605150Y-124119850D01*
D53*
X130731250Y-103975000D02*
X130953125Y-104196875D01*
D55*
X144906250Y-115306250D02*
X143992650Y-116219850D01*
D52*
X106561200Y-99588800D02*
X106500000Y-99650000D01*
D53*
X125824999Y-98474998D02*
X125900000Y-98549999D01*
D52*
X126605150Y-124119850D02*
X126605150Y-123319850D01*
D51*
X140810150Y-119069850D02*
X142130150Y-119069850D01*
D56*
X146551400Y-136700000D02*
X145800000Y-136700000D01*
D53*
X130250000Y-132950000D02*
X130250000Y-134103500D01*
D55*
X145480150Y-114732350D02*
X144906250Y-115306250D01*
D51*
X145410300Y-107300000D02*
X145410300Y-108150000D01*
D55*
X145480150Y-113769850D02*
X145480150Y-114732350D01*
D52*
X117900000Y-118150000D02*
X117850000Y-118100000D01*
D55*
X132075000Y-112825000D02*
X132342650Y-112557350D01*
D51*
X152800000Y-108620000D02*
X152770150Y-108649850D01*
X152800000Y-108600000D02*
X152800000Y-108620000D01*
D56*
X134380150Y-117139850D02*
X134380150Y-116019850D01*
%TO.N,Net-(U1-PA2)*%
D51*
X131130150Y-124519850D02*
X131580150Y-124069850D01*
X131130150Y-125969850D02*
X131130150Y-124519850D01*
X131580150Y-124069850D02*
X132450150Y-124069850D01*
%TO.N,Net-(U1-PA3)*%
X132930150Y-126669850D02*
X133880150Y-125719850D01*
X133880150Y-125719850D02*
X133880150Y-125499850D01*
X132930150Y-130119850D02*
X132930150Y-126669850D01*
%TO.N,/volume*%
X134380150Y-127069850D02*
X134000000Y-127450000D01*
X134380150Y-125499850D02*
X134380150Y-127069850D01*
%TO.N,Net-(U1-PA6)*%
X135380150Y-127469850D02*
X135380150Y-125499850D01*
X134480150Y-134107350D02*
X134480150Y-128369850D01*
X134480150Y-128369850D02*
X135380150Y-127469850D01*
%TO.N,Net-(U1-PA7)*%
D56*
X135880150Y-129994850D02*
X135880150Y-125499850D01*
D51*
X136080150Y-130194850D02*
X135880150Y-129994850D01*
%TO.N,/IO1*%
D56*
X136380150Y-128180150D02*
X136380150Y-125499850D01*
X137630150Y-134294850D02*
X137630150Y-129430150D01*
X137630150Y-129430150D02*
X136380150Y-128180150D01*
%TO.N,Net-(U1-PB1)*%
X139280150Y-129930150D02*
X136880150Y-127530150D01*
X139280150Y-130294850D02*
X139280150Y-129930150D01*
X136880150Y-127530150D02*
X136880150Y-125499850D01*
%TO.N,/SAI_SCK*%
X145650000Y-130400000D02*
X145800000Y-130550000D01*
X141150000Y-130400000D02*
X145650000Y-130400000D01*
X137880150Y-127130150D02*
X141150000Y-130400000D01*
X137880150Y-125499850D02*
X137880150Y-127130150D01*
X148800001Y-137948600D02*
X148800001Y-138750001D01*
X148800001Y-138750001D02*
X149500000Y-139450000D01*
%TO.N,Net-(U1-PB11)*%
X140200000Y-128500000D02*
X138380150Y-126680150D01*
X142100000Y-128850000D02*
X141750000Y-128500000D01*
X138380150Y-126680150D02*
X138380150Y-125499850D01*
X141750000Y-128500000D02*
X140200000Y-128500000D01*
%TO.N,/switch*%
D51*
X148910300Y-117350000D02*
X148910300Y-118239700D01*
X142719850Y-123069850D02*
X143400000Y-123750000D01*
X148910300Y-112850000D02*
X148910300Y-117350000D01*
X149750000Y-117400000D02*
X148960300Y-117400000D01*
X148960300Y-117400000D02*
X148910300Y-117350000D01*
X150370600Y-119700000D02*
X148910300Y-118239700D01*
X146160300Y-111700000D02*
X146210300Y-111750000D01*
X140810150Y-123069850D02*
X142719850Y-123069850D01*
X146160300Y-109950000D02*
X146160300Y-111700000D01*
X150387500Y-119700000D02*
X150370600Y-119700000D01*
%TO.N,/SAI_SD_DIN*%
D56*
X150600000Y-137550000D02*
X151500000Y-137550000D01*
X146950000Y-128400000D02*
X146950000Y-126250000D01*
X149548600Y-137200001D02*
X150250001Y-137200001D01*
X150250001Y-137200001D02*
X150600000Y-137550000D01*
X151800000Y-133250000D02*
X146950000Y-128400000D01*
X146950000Y-126250000D02*
X143269850Y-122569850D01*
X143269850Y-122569850D02*
X140810150Y-122569850D01*
X151800000Y-137250000D02*
X151800000Y-133250000D01*
X151500000Y-137550000D02*
X151800000Y-137250000D01*
%TO.N,Net-(U1-PA13)*%
D51*
X140810150Y-119569850D02*
X142730150Y-119569850D01*
X142730150Y-119569850D02*
X143180150Y-119119850D01*
X143180150Y-119119850D02*
X144155150Y-119119850D01*
%TO.N,/SWCLK*%
D56*
X143227950Y-110632350D02*
X143910300Y-109950000D01*
X143910300Y-109950000D02*
X144660300Y-109950000D01*
X139380150Y-116019850D02*
X139380150Y-117139850D01*
X140480150Y-110632350D02*
X140480150Y-114919850D01*
X140480150Y-114919850D02*
X139380150Y-116019850D01*
X140480150Y-110632350D02*
X143227950Y-110632350D01*
%TO.N,Net-(U1-PB3)*%
D51*
X138380150Y-114569850D02*
X138380150Y-117139850D01*
X138030150Y-113032350D02*
X138030150Y-114219850D01*
X138030150Y-114219850D02*
X138380150Y-114569850D01*
%TO.N,Net-(U1-PH3-BOOT0)*%
X136400000Y-114650000D02*
X136150000Y-114400000D01*
X135880150Y-117139850D02*
X135890150Y-117129850D01*
X136150000Y-114400000D02*
X136150000Y-112300000D01*
X134850000Y-111000000D02*
X134850000Y-109850000D01*
X136150000Y-112300000D02*
X134850000Y-111000000D01*
X135890150Y-117129850D02*
X135890150Y-116238314D01*
X136400000Y-115728464D02*
X136400000Y-114650000D01*
X135890150Y-116238314D02*
X136400000Y-115728464D01*
%TO.N,/SAI_FS_WS_LRCLK*%
D56*
X134880150Y-117139850D02*
X134880150Y-115968379D01*
X135250000Y-115598529D02*
X135250000Y-114950000D01*
X147800000Y-138750000D02*
X147300000Y-139250000D01*
X145700000Y-139250000D02*
X145500000Y-139050000D01*
X134880150Y-115968379D02*
X135250000Y-115598529D01*
X147800000Y-137948600D02*
X147800000Y-138750000D01*
X147300000Y-139250000D02*
X145700000Y-139250000D01*
%TO.N,Net-(R7-Pad2)*%
D51*
X128780150Y-129419850D02*
X126680150Y-129419850D01*
X126680150Y-129419850D02*
X126010150Y-128749850D01*
X126010150Y-128749850D02*
X126010150Y-128069850D01*
X137630150Y-137419850D02*
X137530150Y-137519850D01*
X129955150Y-130594850D02*
X128780150Y-129419850D01*
X137630150Y-136119850D02*
X137630150Y-137419850D01*
%TO.N,+5V*%
D53*
X125050000Y-96749998D02*
X125900000Y-97599998D01*
X118300000Y-105700000D02*
X116900000Y-105700000D01*
X119908300Y-102149998D02*
X119908300Y-104091700D01*
X119908300Y-98258300D02*
X119250000Y-97600000D01*
X123208300Y-96749998D02*
X121050002Y-96749998D01*
X120200000Y-97600000D02*
X119250000Y-97600000D01*
X119908300Y-102149998D02*
X119908300Y-98258300D01*
X119908300Y-104091700D02*
X118300000Y-105700000D01*
X121050002Y-96749998D02*
X120200000Y-97600000D01*
X125050000Y-96749998D02*
X123208300Y-96749998D01*
%TO.N,+12V*%
D57*
X116650000Y-132850000D02*
X116650000Y-134350000D01*
X116650000Y-134350000D02*
X119800000Y-137500000D01*
%TO.N,Net-(U5-EN)*%
D53*
X123008300Y-102149998D02*
X125708300Y-102149998D01*
X125908300Y-99508300D02*
X125900000Y-99500000D01*
X125708300Y-102149998D02*
X125908300Y-102349998D01*
X125908300Y-102349998D02*
X125908300Y-99508300D01*
%TO.N,/SWDIO*%
D56*
X144900000Y-107060300D02*
X144660300Y-107300000D01*
D51*
X147680150Y-114480150D02*
X147150000Y-113950000D01*
X146230150Y-119119850D02*
X147680150Y-117669850D01*
X147680150Y-117669850D02*
X147680150Y-114480150D01*
D56*
X144660300Y-107300000D02*
X144660300Y-108150000D01*
X145110300Y-103220000D02*
X144900000Y-103430300D01*
X144900000Y-105850000D02*
X144900000Y-107060300D01*
X144660300Y-108150000D02*
X144300000Y-108150000D01*
X144300000Y-108150000D02*
X142950000Y-109500000D01*
D51*
X145980150Y-119119850D02*
X146230150Y-119119850D01*
D56*
X144900000Y-103430300D02*
X144900000Y-105850000D01*
%TO.N,Net-(J1-SWCLK)*%
X140507650Y-108699850D02*
X140457650Y-108749850D01*
X140480150Y-104430150D02*
X142010300Y-102900000D01*
X142010300Y-102900000D02*
X144160300Y-102900000D01*
X140480150Y-108807350D02*
X140480150Y-104430150D01*
X144160300Y-102900000D02*
X145110300Y-101950000D01*
%TO.N,/SWO*%
X144803865Y-100680000D02*
X143773865Y-99650000D01*
X140310300Y-101600000D02*
X140310300Y-102800000D01*
X145110300Y-100680000D02*
X144803865Y-100680000D01*
X142260300Y-99650000D02*
X140310300Y-101600000D01*
X143773865Y-99650000D02*
X142260300Y-99650000D01*
D51*
X138030150Y-111207350D02*
X138030150Y-109980150D01*
X138030150Y-109980150D02*
X138110300Y-109900000D01*
X146160300Y-108150000D02*
X147860300Y-108150000D01*
%TO.N,Net-(S1-NO_1)*%
X153487500Y-121312500D02*
X153487500Y-119700000D01*
X152750000Y-122050000D02*
X153487500Y-121312500D01*
X152750000Y-128700000D02*
X153800000Y-129750000D01*
X153800000Y-129750000D02*
X153800000Y-131900000D01*
X152750000Y-128575000D02*
X152750000Y-128700000D01*
X152750000Y-123325000D02*
X152750000Y-128575000D01*
X152750000Y-123325000D02*
X152750000Y-122050000D01*
%TO.N,/W25_CS*%
X127280150Y-128069850D02*
X130855150Y-128069850D01*
X130855150Y-128069850D02*
X131130150Y-127794850D01*
%TO.N,/IO2*%
X124740150Y-128069850D02*
X124740150Y-126559850D01*
X124740150Y-126559850D02*
X124830150Y-126469850D01*
X136080150Y-132019850D02*
X136080150Y-133169850D01*
X136080150Y-133169850D02*
X136130150Y-133219850D01*
%TO.N,/IO0*%
X123470150Y-137359850D02*
X125380150Y-139269850D01*
X139530150Y-138269850D02*
X139530150Y-132369850D01*
X125380150Y-139269850D02*
X138530150Y-139269850D01*
X123470150Y-136020050D02*
X123470150Y-137359850D01*
X139530150Y-132369850D02*
X139280150Y-132119850D01*
X138530150Y-139269850D02*
X139530150Y-138269850D01*
%TO.N,/W25_CLK*%
X128630150Y-134019850D02*
X128630150Y-132819850D01*
X124740150Y-135309850D02*
X125280150Y-134769850D01*
X128630150Y-132819850D02*
X129505150Y-131944850D01*
X129505150Y-131944850D02*
X132930150Y-131944850D01*
X127880150Y-134769850D02*
X128630150Y-134019850D01*
X124740150Y-136020050D02*
X124740150Y-135309850D01*
X125280150Y-134769850D02*
X127880150Y-134769850D01*
%TO.N,/IO3*%
X133130150Y-137969850D02*
X134480150Y-136619850D01*
X126480150Y-137969850D02*
X133130150Y-137969850D01*
X126010150Y-136020050D02*
X126010150Y-137499850D01*
X134480150Y-136619850D02*
X134480150Y-135932350D01*
X126010150Y-137499850D02*
X126480150Y-137969850D01*
%TO.N,Net-(U4-SW)*%
X110163800Y-110513800D02*
X110163800Y-111363800D01*
X109413800Y-109763800D02*
X110163800Y-110513800D01*
X109413800Y-108467150D02*
X109413800Y-109763800D01*
%TO.N,Net-(U4-BST)*%
X110363801Y-108913801D02*
X111888800Y-110438800D01*
X110363801Y-108467150D02*
X110363801Y-108913801D01*
D52*
X112513799Y-110817150D02*
X112232850Y-110817150D01*
D51*
X111888800Y-110438800D02*
X111888800Y-111363800D01*
%TO.N,/speaker-*%
D53*
X144000000Y-137500000D02*
X144000000Y-138955000D01*
D56*
X145300000Y-136200000D02*
X144000000Y-137500000D01*
D53*
X144000000Y-138955000D02*
X152850000Y-147805000D01*
D56*
X146551400Y-136200000D02*
X145300000Y-136200000D01*
%TO.N,/speaker+*%
D53*
X142600000Y-137700000D02*
X142600000Y-147555000D01*
D56*
X146551400Y-135699999D02*
X144600000Y-135700000D01*
D53*
X144600000Y-135700000D02*
X142600000Y-137700000D01*
X142600000Y-147555000D02*
X152850000Y-157805000D01*
%TO.N,Net-(U3-\u002ASD_MODE)*%
D56*
X149548600Y-135699999D02*
X149600001Y-135699999D01*
X149600000Y-135699998D02*
X149600000Y-132550000D01*
X149600000Y-132550000D02*
X145750000Y-128700000D01*
X145750000Y-128700000D02*
X145200000Y-128700000D01*
X149600001Y-135699999D02*
X149600000Y-135699998D01*
%TD*%
%TA.AperFunction,Conductor*%
%TO.N,+5V*%
G36*
X112423807Y-97201174D02*
G01*
X112438831Y-97205485D01*
X112453885Y-97215027D01*
X112471010Y-97219939D01*
X112497829Y-97242883D01*
X112499005Y-97244223D01*
X112526817Y-97298955D01*
X112528516Y-97306553D01*
X112531503Y-97332951D01*
X112565046Y-103613797D01*
X112565047Y-103613800D01*
X112565048Y-103613802D01*
X113554484Y-104556079D01*
X113648800Y-104645900D01*
X119672159Y-104845758D01*
X119706895Y-104851935D01*
X119721746Y-104856836D01*
X119779235Y-104896539D01*
X119779237Y-104896540D01*
X119779237Y-104896541D01*
X119782826Y-104900972D01*
X119806891Y-104949447D01*
X119807100Y-104950300D01*
X119810223Y-104969272D01*
X119936847Y-106446555D01*
X119936846Y-106446556D01*
X119936847Y-106446557D01*
X119934826Y-106481793D01*
X119931868Y-106496377D01*
X119899250Y-106558166D01*
X119841378Y-106591782D01*
X119829584Y-106594831D01*
X119797551Y-106598774D01*
X113910313Y-106551460D01*
X113905303Y-106551318D01*
X113900313Y-106551076D01*
X113895326Y-106550734D01*
X110299061Y-106230618D01*
X110264711Y-106222518D01*
X110262887Y-106221801D01*
X110250164Y-106216802D01*
X110194967Y-106173967D01*
X110194963Y-106173962D01*
X110192195Y-106170127D01*
X110170521Y-106118488D01*
X110170077Y-106115904D01*
X110168299Y-106094975D01*
X110168299Y-105056805D01*
X110168480Y-105056805D01*
X110169144Y-105038520D01*
X110172824Y-105009546D01*
X110179775Y-104981514D01*
X110850000Y-103200000D01*
X111019588Y-97342293D01*
X111025617Y-97307527D01*
X111030455Y-97292656D01*
X111069898Y-97235009D01*
X111072204Y-97233125D01*
X111125698Y-97207681D01*
X111131315Y-97206526D01*
X111155508Y-97203989D01*
X112388841Y-97196366D01*
X112423807Y-97201174D01*
G37*
%TD.AperFunction*%
%TD*%
%TA.AperFunction,Conductor*%
%TO.N,+12V*%
G36*
X109495876Y-101945516D02*
G01*
X109562118Y-101967733D01*
X109605834Y-102022237D01*
X109615156Y-102068001D01*
X109647599Y-104891197D01*
X109639790Y-104935953D01*
X109615709Y-105000518D01*
X109609302Y-105060116D01*
X109609301Y-105060135D01*
X109609302Y-106088900D01*
X109589618Y-106155939D01*
X109536814Y-106201694D01*
X109485302Y-106212900D01*
X108299292Y-106212900D01*
X108232253Y-106193215D01*
X108198133Y-106160614D01*
X108147294Y-106088900D01*
X106978604Y-104440349D01*
X106955892Y-104374276D01*
X106957018Y-104351045D01*
X107297949Y-101973105D01*
X107326949Y-101909540D01*
X107385712Y-101871742D01*
X107425403Y-101866795D01*
X109495876Y-101945516D01*
G37*
%TD.AperFunction*%
%TD*%
%TA.AperFunction,Conductor*%
%TO.N,+12V*%
G36*
X110259697Y-122301545D02*
G01*
X117150000Y-123400000D01*
X118567626Y-123447254D01*
X118633972Y-123469161D01*
X118677943Y-123523460D01*
X118679360Y-123527011D01*
X119553135Y-125818880D01*
X119559675Y-125882877D01*
X118649998Y-131500006D01*
X118210538Y-135015689D01*
X118182691Y-135079770D01*
X118124619Y-135118622D01*
X118117570Y-135120607D01*
X116822872Y-135444281D01*
X116776622Y-135446923D01*
X115010292Y-135214512D01*
X114946393Y-135186250D01*
X114907918Y-135127929D01*
X114902499Y-135088786D01*
X114904142Y-135015689D01*
X115000000Y-130750000D01*
X112000000Y-128100000D01*
X108194536Y-124844636D01*
X108156390Y-124786100D01*
X108151168Y-124747943D01*
X108197576Y-122421527D01*
X108218593Y-122354893D01*
X108272299Y-122310201D01*
X108321551Y-122300000D01*
X110240176Y-122300000D01*
X110259697Y-122301545D01*
G37*
%TD.AperFunction*%
%TD*%
%TA.AperFunction,Conductor*%
%TO.N,+5V*%
G36*
X145850959Y-131469685D02*
G01*
X145886849Y-131504850D01*
X147878928Y-134470036D01*
X147899973Y-134536661D01*
X147899999Y-134539186D01*
X147899999Y-135277400D01*
X147880314Y-135344439D01*
X147827510Y-135390194D01*
X147775999Y-135401400D01*
X147400438Y-135401400D01*
X147399571Y-135401397D01*
X147398033Y-135401386D01*
X147266408Y-135400464D01*
X147199508Y-135380310D01*
X147163583Y-135344464D01*
X147074085Y-135207982D01*
X146840259Y-134851400D01*
X146840258Y-134851400D01*
X146840257Y-134851400D01*
X144246068Y-134962760D01*
X144178246Y-134945969D01*
X144130269Y-134895175D01*
X144116778Y-134841502D01*
X144100000Y-134050000D01*
X143902190Y-133011497D01*
X143900000Y-132988295D01*
X143900000Y-131574000D01*
X143919685Y-131506961D01*
X143972489Y-131461206D01*
X144024000Y-131450000D01*
X145783920Y-131450000D01*
X145850959Y-131469685D01*
G37*
%TD.AperFunction*%
%TD*%
%TA.AperFunction,Conductor*%
%TO.N,Net-(U4-SW)*%
G36*
X119842401Y-109568285D02*
G01*
X119888156Y-109621089D01*
X119899343Y-109670419D01*
X119948500Y-112464781D01*
X119929997Y-112532156D01*
X119878006Y-112578833D01*
X119870975Y-112581931D01*
X113516202Y-115149715D01*
X113446670Y-115156580D01*
X113421300Y-115148890D01*
X108552382Y-113082382D01*
X108498361Y-113038070D01*
X108476873Y-112971587D01*
X108485271Y-112923265D01*
X109336737Y-110735453D01*
X109379395Y-110680120D01*
X109445198Y-110656632D01*
X109482167Y-110660081D01*
X110555877Y-110926633D01*
X110616198Y-110961890D01*
X110647883Y-111024163D01*
X110650000Y-111046980D01*
X110650000Y-112200000D01*
X111099999Y-112749999D01*
X111100000Y-112750000D01*
X112600000Y-112900000D01*
X113500000Y-112250000D01*
X113900000Y-111300000D01*
X113902602Y-109672401D01*
X113922394Y-109605394D01*
X113975271Y-109559723D01*
X114026602Y-109548600D01*
X119775362Y-109548600D01*
X119842401Y-109568285D01*
G37*
%TD.AperFunction*%
%TD*%
%TA.AperFunction,Conductor*%
%TO.N,+3.3V*%
G36*
X130405558Y-97879915D02*
G01*
X131489886Y-98088439D01*
X131552001Y-98120430D01*
X131577377Y-98154754D01*
X132685414Y-100370829D01*
X132698345Y-100432572D01*
X132624051Y-101895608D01*
X132600992Y-101961563D01*
X132545936Y-102004581D01*
X132514967Y-102012438D01*
X130957351Y-102199119D01*
X130942595Y-102200000D01*
X129076242Y-102200000D01*
X129009203Y-102180315D01*
X128963448Y-102127511D01*
X128953504Y-102058353D01*
X128978591Y-101999578D01*
X129059959Y-101895608D01*
X129800000Y-100950000D01*
X130350000Y-99750000D01*
X130258326Y-98008201D01*
X130274460Y-97940222D01*
X130324786Y-97891755D01*
X130393327Y-97878190D01*
X130405558Y-97879915D01*
G37*
%TD.AperFunction*%
%TD*%
%TA.AperFunction,Conductor*%
%TO.N,GND*%
G36*
X151132383Y-136120469D02*
G01*
X151199234Y-136140782D01*
X151244492Y-136194013D01*
X151255214Y-136245627D01*
X151252911Y-136491101D01*
X151251164Y-136677400D01*
X151251153Y-136678563D01*
X151230840Y-136745415D01*
X151177609Y-136790673D01*
X151127158Y-136801400D01*
X149223999Y-136801400D01*
X149156960Y-136781715D01*
X149111205Y-136728911D01*
X149099999Y-136677400D01*
X149099999Y-136226569D01*
X149119684Y-136159530D01*
X149172488Y-136113775D01*
X149225160Y-136102574D01*
X151132383Y-136120469D01*
G37*
%TD.AperFunction*%
%TD*%
M02*
